<?xml version="1.0" encoding="utf-8" standalone="no"?>
<!DOCTYPE svg PUBLIC "-//W3C//DTD SVG 1.1//EN"
  "http://www.w3.org/Graphics/SVG/1.1/DTD/svg11.dtd">
<!-- Created with matplotlib (http://matplotlib.org/) -->
<svg height="432pt" version="1.1" viewBox="0 0 864 432" width="864pt" xmlns="http://www.w3.org/2000/svg" xmlns:xlink="http://www.w3.org/1999/xlink">
 <defs>
  <style type="text/css">
*{stroke-linecap:butt;stroke-linejoin:round;}
  </style>
 </defs>
 <g id="figure_1">
  <g id="patch_1">
   <path d="M 0 432 
L 864 432 
L 864 0 
L 0 0 
z
" style="fill:#ffffff;"/>
  </g>
  <g id="axes_1">
   <g id="patch_2">
    <path d="M 108 378 
L 777.6 378 
L 777.6 51.84 
L 108 51.84 
z
" style="fill:#ffffff;"/>
   </g>
   <g id="matplotlib.axis_1">
    <g id="xtick_1">
     <g id="line2d_1">
      <path clip-path="url(#p6dfb6e4ff2)" d="M 132.224861 378 
L 132.224861 51.84 
" style="fill:none;stroke:#cccccc;stroke-linecap:round;stroke-width:0.8;"/>
     </g>
     <g id="line2d_2"/>
     <g id="text_1">
      <!-- 0.0 -->
      <defs>
       <path d="M 46 36.53125 
Q 46 50.203125 43.4375 55.78125 
Q 40.875 61.375 34.8125 61.375 
Q 28.765625 61.375 26.171875 55.78125 
Q 23.578125 50.203125 23.578125 36.53125 
Q 23.578125 22.703125 26.171875 17.03125 
Q 28.765625 11.375 34.8125 11.375 
Q 40.828125 11.375 43.40625 17.03125 
Q 46 22.703125 46 36.53125 
z
M 64.796875 36.375 
Q 64.796875 18.265625 56.984375 8.421875 
Q 49.171875 -1.421875 34.8125 -1.421875 
Q 20.40625 -1.421875 12.59375 8.421875 
Q 4.78125 18.265625 4.78125 36.375 
Q 4.78125 54.546875 12.59375 64.375 
Q 20.40625 74.21875 34.8125 74.21875 
Q 49.171875 74.21875 56.984375 64.375 
Q 64.796875 54.546875 64.796875 36.375 
z
" id="DejaVuSans-Bold-30"/>
       <path d="M 10.203125 18.890625 
L 27.78125 18.890625 
L 27.78125 0 
L 10.203125 0 
z
" id="DejaVuSans-Bold-2e"/>
      </defs>
      <g style="fill:#262626;" transform="translate(121.596423 392.718125)scale(0.12 -0.12)">
       <use xlink:href="#DejaVuSans-Bold-30"/>
       <use x="69.580078" xlink:href="#DejaVuSans-Bold-2e"/>
       <use x="107.568359" xlink:href="#DejaVuSans-Bold-30"/>
      </g>
     </g>
    </g>
    <g id="xtick_2">
     <g id="line2d_3">
      <path clip-path="url(#p6dfb6e4ff2)" d="M 256.454917 378 
L 256.454917 51.84 
" style="fill:none;stroke:#cccccc;stroke-linecap:round;stroke-width:0.8;"/>
     </g>
     <g id="line2d_4"/>
     <g id="text_2">
      <!-- 0.2 -->
      <defs>
       <path d="M 28.8125 13.8125 
L 60.890625 13.8125 
L 60.890625 0 
L 7.90625 0 
L 7.90625 13.8125 
L 34.515625 37.3125 
Q 38.09375 40.53125 39.796875 43.609375 
Q 41.5 46.6875 41.5 50 
Q 41.5 55.125 38.0625 58.25 
Q 34.625 61.375 28.90625 61.375 
Q 24.515625 61.375 19.28125 59.5 
Q 14.0625 57.625 8.109375 53.90625 
L 8.109375 69.921875 
Q 14.453125 72.015625 20.65625 73.109375 
Q 26.859375 74.21875 32.8125 74.21875 
Q 45.90625 74.21875 53.15625 68.453125 
Q 60.40625 62.703125 60.40625 52.390625 
Q 60.40625 46.4375 57.328125 41.28125 
Q 54.25 36.140625 44.390625 27.484375 
z
" id="DejaVuSans-Bold-32"/>
      </defs>
      <g style="fill:#262626;" transform="translate(245.826479 392.718125)scale(0.12 -0.12)">
       <use xlink:href="#DejaVuSans-Bold-30"/>
       <use x="69.580078" xlink:href="#DejaVuSans-Bold-2e"/>
       <use x="107.568359" xlink:href="#DejaVuSans-Bold-32"/>
      </g>
     </g>
    </g>
    <g id="xtick_3">
     <g id="line2d_5">
      <path clip-path="url(#p6dfb6e4ff2)" d="M 380.684972 378 
L 380.684972 51.84 
" style="fill:none;stroke:#cccccc;stroke-linecap:round;stroke-width:0.8;"/>
     </g>
     <g id="line2d_6"/>
     <g id="text_3">
      <!-- 0.4 -->
      <defs>
       <path d="M 36.8125 57.421875 
L 16.21875 26.90625 
L 36.8125 26.90625 
z
M 33.6875 72.90625 
L 54.59375 72.90625 
L 54.59375 26.90625 
L 64.984375 26.90625 
L 64.984375 13.28125 
L 54.59375 13.28125 
L 54.59375 0 
L 36.8125 0 
L 36.8125 13.28125 
L 4.5 13.28125 
L 4.5 29.390625 
z
" id="DejaVuSans-Bold-34"/>
      </defs>
      <g style="fill:#262626;" transform="translate(370.056535 392.718125)scale(0.12 -0.12)">
       <use xlink:href="#DejaVuSans-Bold-30"/>
       <use x="69.580078" xlink:href="#DejaVuSans-Bold-2e"/>
       <use x="107.568359" xlink:href="#DejaVuSans-Bold-34"/>
      </g>
     </g>
    </g>
    <g id="xtick_4">
     <g id="line2d_7">
      <path clip-path="url(#p6dfb6e4ff2)" d="M 504.915028 378 
L 504.915028 51.84 
" style="fill:none;stroke:#cccccc;stroke-linecap:round;stroke-width:0.8;"/>
     </g>
     <g id="line2d_8"/>
     <g id="text_4">
      <!-- 0.6 -->
      <defs>
       <path d="M 36.1875 35.984375 
Q 31.25 35.984375 28.78125 32.78125 
Q 26.3125 29.59375 26.3125 23.1875 
Q 26.3125 16.796875 28.78125 13.59375 
Q 31.25 10.40625 36.1875 10.40625 
Q 41.15625 10.40625 43.625 13.59375 
Q 46.09375 16.796875 46.09375 23.1875 
Q 46.09375 29.59375 43.625 32.78125 
Q 41.15625 35.984375 36.1875 35.984375 
z
M 59.421875 71 
L 59.421875 57.515625 
Q 54.78125 59.71875 50.671875 60.765625 
Q 46.578125 61.8125 42.671875 61.8125 
Q 34.28125 61.8125 29.59375 57.140625 
Q 24.90625 52.484375 24.125 43.3125 
Q 27.34375 45.703125 31.09375 46.890625 
Q 34.859375 48.09375 39.3125 48.09375 
Q 50.484375 48.09375 57.34375 41.546875 
Q 64.203125 35.015625 64.203125 24.421875 
Q 64.203125 12.703125 56.53125 5.640625 
Q 48.875 -1.421875 35.984375 -1.421875 
Q 21.78125 -1.421875 13.984375 8.171875 
Q 6.203125 17.78125 6.203125 35.40625 
Q 6.203125 53.46875 15.3125 63.796875 
Q 24.421875 74.125 40.28125 74.125 
Q 45.3125 74.125 50.046875 73.34375 
Q 54.78125 72.5625 59.421875 71 
z
" id="DejaVuSans-Bold-36"/>
      </defs>
      <g style="fill:#262626;" transform="translate(494.28659 392.718125)scale(0.12 -0.12)">
       <use xlink:href="#DejaVuSans-Bold-30"/>
       <use x="69.580078" xlink:href="#DejaVuSans-Bold-2e"/>
       <use x="107.568359" xlink:href="#DejaVuSans-Bold-36"/>
      </g>
     </g>
    </g>
    <g id="xtick_5">
     <g id="line2d_9">
      <path clip-path="url(#p6dfb6e4ff2)" d="M 629.145083 378 
L 629.145083 51.84 
" style="fill:none;stroke:#cccccc;stroke-linecap:round;stroke-width:0.8;"/>
     </g>
     <g id="line2d_10"/>
     <g id="text_5">
      <!-- 0.8 -->
      <defs>
       <path d="M 34.8125 32.625 
Q 29.546875 32.625 26.703125 29.734375 
Q 23.875 26.859375 23.875 21.484375 
Q 23.875 16.109375 26.703125 13.25 
Q 29.546875 10.40625 34.8125 10.40625 
Q 40.046875 10.40625 42.828125 13.25 
Q 45.609375 16.109375 45.609375 21.484375 
Q 45.609375 26.90625 42.828125 29.765625 
Q 40.046875 32.625 34.8125 32.625 
z
M 21.09375 38.8125 
Q 14.453125 40.828125 11.078125 44.96875 
Q 7.71875 49.125 7.71875 55.328125 
Q 7.71875 64.546875 14.59375 69.375 
Q 21.484375 74.21875 34.8125 74.21875 
Q 48.046875 74.21875 54.921875 69.40625 
Q 61.8125 64.59375 61.8125 55.328125 
Q 61.8125 49.125 58.421875 44.96875 
Q 55.03125 40.828125 48.390625 38.8125 
Q 55.8125 36.765625 59.59375 32.15625 
Q 63.375 27.546875 63.375 20.515625 
Q 63.375 9.671875 56.171875 4.125 
Q 48.96875 -1.421875 34.8125 -1.421875 
Q 20.609375 -1.421875 13.359375 4.125 
Q 6.109375 9.671875 6.109375 20.515625 
Q 6.109375 27.546875 9.890625 32.15625 
Q 13.671875 36.765625 21.09375 38.8125 
z
M 25.484375 53.421875 
Q 25.484375 49.078125 27.90625 46.734375 
Q 30.328125 44.390625 34.8125 44.390625 
Q 39.203125 44.390625 41.59375 46.734375 
Q 44 49.078125 44 53.421875 
Q 44 57.765625 41.59375 60.078125 
Q 39.203125 62.40625 34.8125 62.40625 
Q 30.328125 62.40625 27.90625 60.0625 
Q 25.484375 57.71875 25.484375 53.421875 
z
" id="DejaVuSans-Bold-38"/>
      </defs>
      <g style="fill:#262626;" transform="translate(618.516646 392.718125)scale(0.12 -0.12)">
       <use xlink:href="#DejaVuSans-Bold-30"/>
       <use x="69.580078" xlink:href="#DejaVuSans-Bold-2e"/>
       <use x="107.568359" xlink:href="#DejaVuSans-Bold-38"/>
      </g>
     </g>
    </g>
    <g id="xtick_6">
     <g id="line2d_11">
      <path clip-path="url(#p6dfb6e4ff2)" d="M 753.375139 378 
L 753.375139 51.84 
" style="fill:none;stroke:#cccccc;stroke-linecap:round;stroke-width:0.8;"/>
     </g>
     <g id="line2d_12"/>
     <g id="text_6">
      <!-- 1.0 -->
      <defs>
       <path d="M 11.71875 12.984375 
L 28.328125 12.984375 
L 28.328125 60.109375 
L 11.28125 56.59375 
L 11.28125 69.390625 
L 28.21875 72.90625 
L 46.09375 72.90625 
L 46.09375 12.984375 
L 62.703125 12.984375 
L 62.703125 0 
L 11.71875 0 
z
" id="DejaVuSans-Bold-31"/>
      </defs>
      <g style="fill:#262626;" transform="translate(742.746702 392.718125)scale(0.12 -0.12)">
       <use xlink:href="#DejaVuSans-Bold-31"/>
       <use x="69.580078" xlink:href="#DejaVuSans-Bold-2e"/>
       <use x="107.568359" xlink:href="#DejaVuSans-Bold-30"/>
      </g>
     </g>
    </g>
    <g id="text_7">
     <!-- Volume Fraction $\phi_{ P3HT }$ -->
     <defs>
      <path d="M 28.609375 0 
L 0.78125 72.90625 
L 11.078125 72.90625 
L 34.1875 11.53125 
L 57.328125 72.90625 
L 67.578125 72.90625 
L 39.796875 0 
z
" id="DejaVuSans-56"/>
      <path d="M 30.609375 48.390625 
Q 23.390625 48.390625 19.1875 42.75 
Q 14.984375 37.109375 14.984375 27.296875 
Q 14.984375 17.484375 19.15625 11.84375 
Q 23.34375 6.203125 30.609375 6.203125 
Q 37.796875 6.203125 41.984375 11.859375 
Q 46.1875 17.53125 46.1875 27.296875 
Q 46.1875 37.015625 41.984375 42.703125 
Q 37.796875 48.390625 30.609375 48.390625 
z
M 30.609375 56 
Q 42.328125 56 49.015625 48.375 
Q 55.71875 40.765625 55.71875 27.296875 
Q 55.71875 13.875 49.015625 6.21875 
Q 42.328125 -1.421875 30.609375 -1.421875 
Q 18.84375 -1.421875 12.171875 6.21875 
Q 5.515625 13.875 5.515625 27.296875 
Q 5.515625 40.765625 12.171875 48.375 
Q 18.84375 56 30.609375 56 
z
" id="DejaVuSans-6f"/>
      <path d="M 9.421875 75.984375 
L 18.40625 75.984375 
L 18.40625 0 
L 9.421875 0 
z
" id="DejaVuSans-6c"/>
      <path d="M 8.5 21.578125 
L 8.5 54.6875 
L 17.484375 54.6875 
L 17.484375 21.921875 
Q 17.484375 14.15625 20.5 10.265625 
Q 23.53125 6.390625 29.59375 6.390625 
Q 36.859375 6.390625 41.078125 11.03125 
Q 45.3125 15.671875 45.3125 23.6875 
L 45.3125 54.6875 
L 54.296875 54.6875 
L 54.296875 0 
L 45.3125 0 
L 45.3125 8.40625 
Q 42.046875 3.421875 37.71875 1 
Q 33.40625 -1.421875 27.6875 -1.421875 
Q 18.265625 -1.421875 13.375 4.4375 
Q 8.5 10.296875 8.5 21.578125 
z
M 31.109375 56 
z
" id="DejaVuSans-75"/>
      <path d="M 52 44.1875 
Q 55.375 50.25 60.0625 53.125 
Q 64.75 56 71.09375 56 
Q 79.640625 56 84.28125 50.015625 
Q 88.921875 44.046875 88.921875 33.015625 
L 88.921875 0 
L 79.890625 0 
L 79.890625 32.71875 
Q 79.890625 40.578125 77.09375 44.375 
Q 74.3125 48.1875 68.609375 48.1875 
Q 61.625 48.1875 57.5625 43.546875 
Q 53.515625 38.921875 53.515625 30.90625 
L 53.515625 0 
L 44.484375 0 
L 44.484375 32.71875 
Q 44.484375 40.625 41.703125 44.40625 
Q 38.921875 48.1875 33.109375 48.1875 
Q 26.21875 48.1875 22.15625 43.53125 
Q 18.109375 38.875 18.109375 30.90625 
L 18.109375 0 
L 9.078125 0 
L 9.078125 54.6875 
L 18.109375 54.6875 
L 18.109375 46.1875 
Q 21.1875 51.21875 25.484375 53.609375 
Q 29.78125 56 35.6875 56 
Q 41.65625 56 45.828125 52.96875 
Q 50 49.953125 52 44.1875 
z
" id="DejaVuSans-6d"/>
      <path d="M 56.203125 29.59375 
L 56.203125 25.203125 
L 14.890625 25.203125 
Q 15.484375 15.921875 20.484375 11.0625 
Q 25.484375 6.203125 34.421875 6.203125 
Q 39.59375 6.203125 44.453125 7.46875 
Q 49.3125 8.734375 54.109375 11.28125 
L 54.109375 2.78125 
Q 49.265625 0.734375 44.1875 -0.34375 
Q 39.109375 -1.421875 33.890625 -1.421875 
Q 20.796875 -1.421875 13.15625 6.1875 
Q 5.515625 13.8125 5.515625 26.8125 
Q 5.515625 40.234375 12.765625 48.109375 
Q 20.015625 56 32.328125 56 
Q 43.359375 56 49.78125 48.890625 
Q 56.203125 41.796875 56.203125 29.59375 
z
M 47.21875 32.234375 
Q 47.125 39.59375 43.09375 43.984375 
Q 39.0625 48.390625 32.421875 48.390625 
Q 24.90625 48.390625 20.390625 44.140625 
Q 15.875 39.890625 15.1875 32.171875 
z
" id="DejaVuSans-65"/>
      <path id="DejaVuSans-20"/>
      <path d="M 9.8125 72.90625 
L 51.703125 72.90625 
L 51.703125 64.59375 
L 19.671875 64.59375 
L 19.671875 43.109375 
L 48.578125 43.109375 
L 48.578125 34.8125 
L 19.671875 34.8125 
L 19.671875 0 
L 9.8125 0 
z
" id="DejaVuSans-46"/>
      <path d="M 41.109375 46.296875 
Q 39.59375 47.171875 37.8125 47.578125 
Q 36.03125 48 33.890625 48 
Q 26.265625 48 22.1875 43.046875 
Q 18.109375 38.09375 18.109375 28.8125 
L 18.109375 0 
L 9.078125 0 
L 9.078125 54.6875 
L 18.109375 54.6875 
L 18.109375 46.1875 
Q 20.953125 51.171875 25.484375 53.578125 
Q 30.03125 56 36.53125 56 
Q 37.453125 56 38.578125 55.875 
Q 39.703125 55.765625 41.0625 55.515625 
z
" id="DejaVuSans-72"/>
      <path d="M 34.28125 27.484375 
Q 23.390625 27.484375 19.1875 25 
Q 14.984375 22.515625 14.984375 16.5 
Q 14.984375 11.71875 18.140625 8.90625 
Q 21.296875 6.109375 26.703125 6.109375 
Q 34.1875 6.109375 38.703125 11.40625 
Q 43.21875 16.703125 43.21875 25.484375 
L 43.21875 27.484375 
z
M 52.203125 31.203125 
L 52.203125 0 
L 43.21875 0 
L 43.21875 8.296875 
Q 40.140625 3.328125 35.546875 0.953125 
Q 30.953125 -1.421875 24.3125 -1.421875 
Q 15.921875 -1.421875 10.953125 3.296875 
Q 6 8.015625 6 15.921875 
Q 6 25.140625 12.171875 29.828125 
Q 18.359375 34.515625 30.609375 34.515625 
L 43.21875 34.515625 
L 43.21875 35.40625 
Q 43.21875 41.609375 39.140625 45 
Q 35.0625 48.390625 27.6875 48.390625 
Q 23 48.390625 18.546875 47.265625 
Q 14.109375 46.140625 10.015625 43.890625 
L 10.015625 52.203125 
Q 14.9375 54.109375 19.578125 55.046875 
Q 24.21875 56 28.609375 56 
Q 40.484375 56 46.34375 49.84375 
Q 52.203125 43.703125 52.203125 31.203125 
z
" id="DejaVuSans-61"/>
      <path d="M 48.78125 52.59375 
L 48.78125 44.1875 
Q 44.96875 46.296875 41.140625 47.34375 
Q 37.3125 48.390625 33.40625 48.390625 
Q 24.65625 48.390625 19.8125 42.84375 
Q 14.984375 37.3125 14.984375 27.296875 
Q 14.984375 17.28125 19.8125 11.734375 
Q 24.65625 6.203125 33.40625 6.203125 
Q 37.3125 6.203125 41.140625 7.25 
Q 44.96875 8.296875 48.78125 10.40625 
L 48.78125 2.09375 
Q 45.015625 0.34375 40.984375 -0.53125 
Q 36.96875 -1.421875 32.421875 -1.421875 
Q 20.0625 -1.421875 12.78125 6.34375 
Q 5.515625 14.109375 5.515625 27.296875 
Q 5.515625 40.671875 12.859375 48.328125 
Q 20.21875 56 33.015625 56 
Q 37.15625 56 41.109375 55.140625 
Q 45.0625 54.296875 48.78125 52.59375 
z
" id="DejaVuSans-63"/>
      <path d="M 18.3125 70.21875 
L 18.3125 54.6875 
L 36.8125 54.6875 
L 36.8125 47.703125 
L 18.3125 47.703125 
L 18.3125 18.015625 
Q 18.3125 11.328125 20.140625 9.421875 
Q 21.96875 7.515625 27.59375 7.515625 
L 36.8125 7.515625 
L 36.8125 0 
L 27.59375 0 
Q 17.1875 0 13.234375 3.875 
Q 9.28125 7.765625 9.28125 18.015625 
L 9.28125 47.703125 
L 2.6875 47.703125 
L 2.6875 54.6875 
L 9.28125 54.6875 
L 9.28125 70.21875 
z
" id="DejaVuSans-74"/>
      <path d="M 9.421875 54.6875 
L 18.40625 54.6875 
L 18.40625 0 
L 9.421875 0 
z
M 9.421875 75.984375 
L 18.40625 75.984375 
L 18.40625 64.59375 
L 9.421875 64.59375 
z
" id="DejaVuSans-69"/>
      <path d="M 54.890625 33.015625 
L 54.890625 0 
L 45.90625 0 
L 45.90625 32.71875 
Q 45.90625 40.484375 42.875 44.328125 
Q 39.84375 48.1875 33.796875 48.1875 
Q 26.515625 48.1875 22.3125 43.546875 
Q 18.109375 38.921875 18.109375 30.90625 
L 18.109375 0 
L 9.078125 0 
L 9.078125 54.6875 
L 18.109375 54.6875 
L 18.109375 46.1875 
Q 21.34375 51.125 25.703125 53.5625 
Q 30.078125 56 35.796875 56 
Q 45.21875 56 50.046875 50.171875 
Q 54.890625 44.34375 54.890625 33.015625 
z
" id="DejaVuSans-6e"/>
      <path d="M 51.03125 42.328125 
L 45.3125 12.984375 
L 48.78125 15.234375 
Q 53.609375 18.40625 55.328125 27.296875 
Q 56.734375 34.578125 53.609375 40.234375 
Q 52.390625 42.390625 51.03125 42.328125 
z
M 38.71875 -20.796875 
z
M 42.578125 -1.171875 
L 38.71875 -20.796875 
L 21.34375 -20.796875 
L 25.203125 -1.171875 
Q 15.09375 0.34375 10.0625 6.25 
Q 3.421875 14.15625 5.953125 27.296875 
Q 8.40625 39.84375 16.75 48.390625 
Q 22.796875 54.5 36.234375 55.71875 
L 40.1875 75.984375 
L 57.5625 75.984375 
L 53.609375 55.71875 
Q 66.609375 54.5 70.21875 48.390625 
Q 75.296875 39.84375 72.859375 27.296875 
Q 70.3125 14.15625 60.5 6.25 
Q 53.21875 0.34375 42.578125 -1.171875 
z
M 57.5625 75.984375 
z
M 27.9375 12.984375 
L 33.640625 42.328125 
Q 32.28125 42.390625 30.171875 40.234375 
Q 24.90625 34.578125 23.484375 27.296875 
Q 21.78125 18.40625 25.296875 15.234375 
z
" id="DejaVuSans-BoldOblique-3d5"/>
      <path d="M 16.3125 72.90625 
L 47.515625 72.90625 
Q 58.984375 72.90625 65.453125 67.65625 
Q 71.921875 62.40625 71.921875 53.078125 
Q 71.921875 47.359375 69.765625 42.203125 
Q 67.625 37.0625 63.625 33.203125 
Q 59.28125 29.046875 53.265625 27.171875 
Q 47.265625 25.296875 38.1875 25.296875 
L 25.78125 25.296875 
L 20.90625 0 
L 2.09375 0 
z
M 32.515625 59.28125 
L 28.515625 38.921875 
L 38.921875 38.921875 
Q 45.5625 38.921875 49.078125 42.046875 
Q 52.59375 45.171875 52.59375 51.125 
Q 52.59375 55.078125 50.078125 57.171875 
Q 47.5625 59.28125 42.828125 59.28125 
z
" id="DejaVuSans-BoldOblique-50"/>
      <path d="M 46.578125 39.3125 
Q 53.953125 37.40625 57.78125 32.6875 
Q 61.625 27.984375 61.625 20.703125 
Q 61.625 9.859375 53.3125 4.21875 
Q 45.015625 -1.421875 29.109375 -1.421875 
Q 23.484375 -1.421875 17.84375 -0.515625 
Q 12.203125 0.390625 6.6875 2.203125 
L 6.6875 16.703125 
Q 11.96875 14.0625 17.15625 12.71875 
Q 22.359375 11.375 27.390625 11.375 
Q 34.859375 11.375 38.84375 13.953125 
Q 42.828125 16.546875 42.828125 21.390625 
Q 42.828125 26.375 38.75 28.9375 
Q 34.671875 31.5 26.703125 31.5 
L 19.1875 31.5 
L 19.1875 43.609375 
L 27.09375 43.609375 
Q 34.1875 43.609375 37.640625 45.828125 
Q 41.109375 48.046875 41.109375 52.59375 
Q 41.109375 56.78125 37.734375 59.078125 
Q 34.375 61.375 28.21875 61.375 
Q 23.6875 61.375 19.046875 60.34375 
Q 14.40625 59.328125 9.8125 57.328125 
L 9.8125 71.09375 
Q 15.375 72.65625 20.84375 73.4375 
Q 26.3125 74.21875 31.59375 74.21875 
Q 45.796875 74.21875 52.84375 69.546875 
Q 59.90625 64.890625 59.90625 55.515625 
Q 59.90625 49.125 56.53125 45.046875 
Q 53.171875 40.96875 46.578125 39.3125 
z
" id="DejaVuSans-Bold-33"/>
      <path d="M 16.3125 72.90625 
L 35.109375 72.90625 
L 29.6875 45.125 
L 57.421875 45.125 
L 62.796875 72.90625 
L 81.59375 72.90625 
L 67.390625 0 
L 48.578125 0 
L 54.59375 30.90625 
L 26.90625 30.90625 
L 20.90625 0 
L 2.09375 0 
z
" id="DejaVuSans-BoldOblique-48"/>
      <path d="M 7.625 72.90625 
L 74.8125 72.90625 
L 72.015625 58.6875 
L 47.796875 58.6875 
L 36.375 0 
L 17.578125 0 
L 29 58.6875 
L 4.78125 58.6875 
z
" id="DejaVuSans-BoldOblique-54"/>
     </defs>
     <g style="fill:#262626;" transform="translate(344.3904 412.34655)scale(0.1728 -0.1728)">
      <use transform="translate(0 0.015625)" xlink:href="#DejaVuSans-56"/>
      <use transform="translate(68.408203 0.015625)" xlink:href="#DejaVuSans-6f"/>
      <use transform="translate(129.589844 0.015625)" xlink:href="#DejaVuSans-6c"/>
      <use transform="translate(157.373047 0.015625)" xlink:href="#DejaVuSans-75"/>
      <use transform="translate(220.751953 0.015625)" xlink:href="#DejaVuSans-6d"/>
      <use transform="translate(318.164062 0.015625)" xlink:href="#DejaVuSans-65"/>
      <use transform="translate(379.6875 0.015625)" xlink:href="#DejaVuSans-20"/>
      <use transform="translate(411.474609 0.015625)" xlink:href="#DejaVuSans-46"/>
      <use transform="translate(468.994141 0.015625)" xlink:href="#DejaVuSans-72"/>
      <use transform="translate(510.107422 0.015625)" xlink:href="#DejaVuSans-61"/>
      <use transform="translate(571.386719 0.015625)" xlink:href="#DejaVuSans-63"/>
      <use transform="translate(626.367188 0.015625)" xlink:href="#DejaVuSans-74"/>
      <use transform="translate(665.576172 0.015625)" xlink:href="#DejaVuSans-69"/>
      <use transform="translate(693.359375 0.015625)" xlink:href="#DejaVuSans-6f"/>
      <use transform="translate(754.541016 0.015625)" xlink:href="#DejaVuSans-6e"/>
      <use transform="translate(817.919922 0.015625)" xlink:href="#DejaVuSans-20"/>
      <use transform="translate(849.707031 0.015625)" xlink:href="#DejaVuSans-BoldOblique-3d5"/>
      <use transform="translate(929.345703 -16.390625)scale(0.7)" xlink:href="#DejaVuSans-BoldOblique-50"/>
      <use transform="translate(980.649414 -16.390625)scale(0.7)" xlink:href="#DejaVuSans-Bold-33"/>
      <use transform="translate(1029.355469 -16.390625)scale(0.7)" xlink:href="#DejaVuSans-BoldOblique-48"/>
      <use transform="translate(1087.939453 -16.390625)scale(0.7)" xlink:href="#DejaVuSans-BoldOblique-54"/>
     </g>
    </g>
   </g>
   <g id="matplotlib.axis_2">
    <g id="ytick_1">
     <g id="line2d_13">
      <path clip-path="url(#p6dfb6e4ff2)" d="M 108 365.503017 
L 777.6 365.503017 
" style="fill:none;stroke:#cccccc;stroke-linecap:round;stroke-width:0.8;"/>
     </g>
     <g id="line2d_14"/>
     <g id="text_8">
      <!-- 0.00 -->
      <g style="fill:#262626;" transform="translate(72.79375 370.062079)scale(0.12 -0.12)">
       <use xlink:href="#DejaVuSans-Bold-30"/>
       <use x="69.580078" xlink:href="#DejaVuSans-Bold-2e"/>
       <use x="107.568359" xlink:href="#DejaVuSans-Bold-30"/>
       <use x="177.148438" xlink:href="#DejaVuSans-Bold-30"/>
      </g>
     </g>
    </g>
    <g id="ytick_2">
     <g id="line2d_15">
      <path clip-path="url(#p6dfb6e4ff2)" d="M 108 322.221587 
L 777.6 322.221587 
" style="fill:none;stroke:#cccccc;stroke-linecap:round;stroke-width:0.8;"/>
     </g>
     <g id="line2d_16"/>
     <g id="text_9">
      <!-- 0.05 -->
      <defs>
       <path d="M 10.59375 72.90625 
L 57.328125 72.90625 
L 57.328125 59.078125 
L 25.59375 59.078125 
L 25.59375 47.796875 
Q 27.734375 48.390625 29.90625 48.703125 
Q 32.078125 49.03125 34.421875 49.03125 
Q 47.75 49.03125 55.171875 42.359375 
Q 62.59375 35.6875 62.59375 23.78125 
Q 62.59375 11.96875 54.515625 5.265625 
Q 46.4375 -1.421875 32.078125 -1.421875 
Q 25.875 -1.421875 19.796875 -0.21875 
Q 13.71875 0.984375 7.71875 3.421875 
L 7.71875 18.21875 
Q 13.671875 14.796875 19.015625 13.078125 
Q 24.359375 11.375 29.109375 11.375 
Q 35.9375 11.375 39.859375 14.71875 
Q 43.796875 18.0625 43.796875 23.78125 
Q 43.796875 29.546875 39.859375 32.859375 
Q 35.9375 36.1875 29.109375 36.1875 
Q 25.046875 36.1875 20.453125 35.125 
Q 15.875 34.078125 10.59375 31.890625 
z
" id="DejaVuSans-Bold-35"/>
      </defs>
      <g style="fill:#262626;" transform="translate(72.79375 326.78065)scale(0.12 -0.12)">
       <use xlink:href="#DejaVuSans-Bold-30"/>
       <use x="69.580078" xlink:href="#DejaVuSans-Bold-2e"/>
       <use x="107.568359" xlink:href="#DejaVuSans-Bold-30"/>
       <use x="177.148438" xlink:href="#DejaVuSans-Bold-35"/>
      </g>
     </g>
    </g>
    <g id="ytick_3">
     <g id="line2d_17">
      <path clip-path="url(#p6dfb6e4ff2)" d="M 108 278.940158 
L 777.6 278.940158 
" style="fill:none;stroke:#cccccc;stroke-linecap:round;stroke-width:0.8;"/>
     </g>
     <g id="line2d_18"/>
     <g id="text_10">
      <!-- 0.10 -->
      <g style="fill:#262626;" transform="translate(72.79375 283.499221)scale(0.12 -0.12)">
       <use xlink:href="#DejaVuSans-Bold-30"/>
       <use x="69.580078" xlink:href="#DejaVuSans-Bold-2e"/>
       <use x="107.568359" xlink:href="#DejaVuSans-Bold-31"/>
       <use x="177.148438" xlink:href="#DejaVuSans-Bold-30"/>
      </g>
     </g>
    </g>
    <g id="ytick_4">
     <g id="line2d_19">
      <path clip-path="url(#p6dfb6e4ff2)" d="M 108 235.658729 
L 777.6 235.658729 
" style="fill:none;stroke:#cccccc;stroke-linecap:round;stroke-width:0.8;"/>
     </g>
     <g id="line2d_20"/>
     <g id="text_11">
      <!-- 0.15 -->
      <g style="fill:#262626;" transform="translate(72.79375 240.217792)scale(0.12 -0.12)">
       <use xlink:href="#DejaVuSans-Bold-30"/>
       <use x="69.580078" xlink:href="#DejaVuSans-Bold-2e"/>
       <use x="107.568359" xlink:href="#DejaVuSans-Bold-31"/>
       <use x="177.148438" xlink:href="#DejaVuSans-Bold-35"/>
      </g>
     </g>
    </g>
    <g id="ytick_5">
     <g id="line2d_21">
      <path clip-path="url(#p6dfb6e4ff2)" d="M 108 192.3773 
L 777.6 192.3773 
" style="fill:none;stroke:#cccccc;stroke-linecap:round;stroke-width:0.8;"/>
     </g>
     <g id="line2d_22"/>
     <g id="text_12">
      <!-- 0.20 -->
      <g style="fill:#262626;" transform="translate(72.79375 196.936363)scale(0.12 -0.12)">
       <use xlink:href="#DejaVuSans-Bold-30"/>
       <use x="69.580078" xlink:href="#DejaVuSans-Bold-2e"/>
       <use x="107.568359" xlink:href="#DejaVuSans-Bold-32"/>
       <use x="177.148438" xlink:href="#DejaVuSans-Bold-30"/>
      </g>
     </g>
    </g>
    <g id="ytick_6">
     <g id="line2d_23">
      <path clip-path="url(#p6dfb6e4ff2)" d="M 108 149.095871 
L 777.6 149.095871 
" style="fill:none;stroke:#cccccc;stroke-linecap:round;stroke-width:0.8;"/>
     </g>
     <g id="line2d_24"/>
     <g id="text_13">
      <!-- 0.25 -->
      <g style="fill:#262626;" transform="translate(72.79375 153.654933)scale(0.12 -0.12)">
       <use xlink:href="#DejaVuSans-Bold-30"/>
       <use x="69.580078" xlink:href="#DejaVuSans-Bold-2e"/>
       <use x="107.568359" xlink:href="#DejaVuSans-Bold-32"/>
       <use x="177.148438" xlink:href="#DejaVuSans-Bold-35"/>
      </g>
     </g>
    </g>
    <g id="ytick_7">
     <g id="line2d_25">
      <path clip-path="url(#p6dfb6e4ff2)" d="M 108 105.814442 
L 777.6 105.814442 
" style="fill:none;stroke:#cccccc;stroke-linecap:round;stroke-width:0.8;"/>
     </g>
     <g id="line2d_26"/>
     <g id="text_14">
      <!-- 0.30 -->
      <g style="fill:#262626;" transform="translate(72.79375 110.373504)scale(0.12 -0.12)">
       <use xlink:href="#DejaVuSans-Bold-30"/>
       <use x="69.580078" xlink:href="#DejaVuSans-Bold-2e"/>
       <use x="107.568359" xlink:href="#DejaVuSans-Bold-33"/>
       <use x="177.148438" xlink:href="#DejaVuSans-Bold-30"/>
      </g>
     </g>
    </g>
    <g id="ytick_8">
     <g id="line2d_27">
      <path clip-path="url(#p6dfb6e4ff2)" d="M 108 62.533013 
L 777.6 62.533013 
" style="fill:none;stroke:#cccccc;stroke-linecap:round;stroke-width:0.8;"/>
     </g>
     <g id="line2d_28"/>
     <g id="text_15">
      <!-- 0.35 -->
      <g style="fill:#262626;" transform="translate(72.79375 67.092075)scale(0.12 -0.12)">
       <use xlink:href="#DejaVuSans-Bold-30"/>
       <use x="69.580078" xlink:href="#DejaVuSans-Bold-2e"/>
       <use x="107.568359" xlink:href="#DejaVuSans-Bold-33"/>
       <use x="177.148438" xlink:href="#DejaVuSans-Bold-35"/>
      </g>
     </g>
    </g>
    <g id="text_16">
     <!-- Figure of Merit -->
     <defs>
      <path d="M 45.40625 27.984375 
Q 45.40625 37.75 41.375 43.109375 
Q 37.359375 48.484375 30.078125 48.484375 
Q 22.859375 48.484375 18.828125 43.109375 
Q 14.796875 37.75 14.796875 27.984375 
Q 14.796875 18.265625 18.828125 12.890625 
Q 22.859375 7.515625 30.078125 7.515625 
Q 37.359375 7.515625 41.375 12.890625 
Q 45.40625 18.265625 45.40625 27.984375 
z
M 54.390625 6.78125 
Q 54.390625 -7.171875 48.1875 -13.984375 
Q 42 -20.796875 29.203125 -20.796875 
Q 24.46875 -20.796875 20.265625 -20.09375 
Q 16.0625 -19.390625 12.109375 -17.921875 
L 12.109375 -9.1875 
Q 16.0625 -11.328125 19.921875 -12.34375 
Q 23.78125 -13.375 27.78125 -13.375 
Q 36.625 -13.375 41.015625 -8.765625 
Q 45.40625 -4.15625 45.40625 5.171875 
L 45.40625 9.625 
Q 42.625 4.78125 38.28125 2.390625 
Q 33.9375 0 27.875 0 
Q 17.828125 0 11.671875 7.65625 
Q 5.515625 15.328125 5.515625 27.984375 
Q 5.515625 40.671875 11.671875 48.328125 
Q 17.828125 56 27.875 56 
Q 33.9375 56 38.28125 53.609375 
Q 42.625 51.21875 45.40625 46.390625 
L 45.40625 54.6875 
L 54.390625 54.6875 
z
" id="DejaVuSans-67"/>
      <path d="M 37.109375 75.984375 
L 37.109375 68.5 
L 28.515625 68.5 
Q 23.6875 68.5 21.796875 66.546875 
Q 19.921875 64.59375 19.921875 59.515625 
L 19.921875 54.6875 
L 34.71875 54.6875 
L 34.71875 47.703125 
L 19.921875 47.703125 
L 19.921875 0 
L 10.890625 0 
L 10.890625 47.703125 
L 2.296875 47.703125 
L 2.296875 54.6875 
L 10.890625 54.6875 
L 10.890625 58.5 
Q 10.890625 67.625 15.140625 71.796875 
Q 19.390625 75.984375 28.609375 75.984375 
z
" id="DejaVuSans-66"/>
      <path d="M 9.8125 72.90625 
L 24.515625 72.90625 
L 43.109375 23.296875 
L 61.8125 72.90625 
L 76.515625 72.90625 
L 76.515625 0 
L 66.890625 0 
L 66.890625 64.015625 
L 48.09375 14.015625 
L 38.1875 14.015625 
L 19.390625 64.015625 
L 19.390625 0 
L 9.8125 0 
z
" id="DejaVuSans-4d"/>
     </defs>
     <g style="fill:#262626;" transform="translate(65.20005 278.03655)rotate(-90)scale(0.1728 -0.1728)">
      <use xlink:href="#DejaVuSans-46"/>
      <use x="57.410156" xlink:href="#DejaVuSans-69"/>
      <use x="85.193359" xlink:href="#DejaVuSans-67"/>
      <use x="148.669922" xlink:href="#DejaVuSans-75"/>
      <use x="212.048828" xlink:href="#DejaVuSans-72"/>
      <use x="253.130859" xlink:href="#DejaVuSans-65"/>
      <use x="314.654297" xlink:href="#DejaVuSans-20"/>
      <use x="346.441406" xlink:href="#DejaVuSans-6f"/>
      <use x="407.623047" xlink:href="#DejaVuSans-66"/>
      <use x="442.828125" xlink:href="#DejaVuSans-20"/>
      <use x="474.615234" xlink:href="#DejaVuSans-4d"/>
      <use x="560.894531" xlink:href="#DejaVuSans-65"/>
      <use x="622.417969" xlink:href="#DejaVuSans-72"/>
      <use x="663.53125" xlink:href="#DejaVuSans-69"/>
      <use x="691.314453" xlink:href="#DejaVuSans-74"/>
     </g>
    </g>
   </g>
   <g id="line2d_29">
    <path clip-path="url(#p6dfb6e4ff2)" d="M 138.436364 360.400193 
L 157.935135 344.571741 
L 176.82457 329.527869 
L 194.495332 315.731111 
L 211.556757 302.681249 
L 228.008845 290.366703 
L 243.851597 278.774646 
L 259.694349 267.461202 
L 274.927764 256.862895 
L 289.551843 246.963651 
L 303.566585 237.745962 
L 316.97199 229.19089 
L 329.768059 221.278086 
L 342.564128 213.627717 
L 354.75086 206.600164 
L 366.328256 200.171308 
L 377.905651 193.997362 
L 388.87371 188.396862 
L 399.841769 183.051895 
L 410.200491 178.251591 
L 420.559214 173.705338 
L 430.3086 169.671235 
L 440.057985 165.887341 
L 449.198034 162.579233 
L 458.338084 159.514923 
L 466.868796 156.886151 
L 475.399509 154.492041 
L 483.320885 152.489432 
L 491.24226 150.709542 
L 499.163636 149.163171 
L 506.475676 147.952958 
L 513.787715 146.961151 
L 521.099754 146.197983 
L 527.802457 145.70855 
L 534.50516 145.429274 
L 541.207862 145.369589 
L 547.910565 145.539499 
L 554.613268 145.949626 
L 560.706634 146.540407 
L 566.8 147.348029 
L 572.893366 148.382013 
L 578.986732 149.652444 
L 585.080098 151.170018 
L 590.564128 152.756508 
L 596.048157 154.561127 
L 601.532187 156.593133 
L 607.016216 158.862311 
L 612.500246 161.379021 
L 617.984275 164.15423 
L 623.468305 167.199567 
L 628.952334 170.527366 
L 633.827027 173.733108 
L 638.70172 177.18211 
L 643.576413 180.884662 
L 648.451106 184.851647 
L 653.325799 189.094575 
L 658.200491 193.625637 
L 663.075184 198.457752 
L 667.949877 203.604623 
L 672.82457 209.080797 
L 677.699263 214.901732 
L 682.573956 221.083869 
L 687.448649 227.64471 
L 692.323342 234.602909 
L 697.198034 241.978363 
L 702.072727 249.792321 
L 706.94742 258.0675 
L 711.822113 266.828212 
L 716.696806 276.100511 
L 721.571499 285.912346 
L 726.446192 296.293744 
L 730.711548 305.870013 
L 734.976904 315.930229 
L 739.24226 326.499162 
L 743.507617 337.603305 
L 747.163636 347.568568 
L 747.163636 347.568568 
" style="fill:none;stroke:#aec7e8;stroke-linecap:round;stroke-width:2.5;"/>
   </g>
   <g id="line2d_30">
    <path clip-path="url(#p6dfb6e4ff2)" d="M 138.436364 360.760485 
L 159.153808 345.12676 
L 178.65258 330.686799 
L 197.542015 316.971013 
L 215.822113 303.972658 
L 233.492875 291.683867 
L 250.5543 280.095568 
L 266.397052 269.595987 
L 282.239803 259.365569 
L 297.473219 249.800208 
L 312.097297 240.885388 
L 326.112039 232.605118 
L 339.517445 224.941915 
L 352.313514 217.876802 
L 364.500246 211.389342 
L 376.686978 205.151994 
L 388.264373 199.472529 
L 399.841769 194.047666 
L 410.809828 189.157542 
L 421.16855 184.775126 
L 431.527273 180.635526 
L 441.276658 176.974057 
L 451.026044 173.553228 
L 460.166093 170.57706 
L 469.306143 167.836844 
L 477.836855 165.503819 
L 486.367568 163.39934 
L 494.89828 161.535753 
L 502.819656 160.032544 
L 510.741032 158.759831 
L 518.053071 157.800114 
L 525.365111 157.057392 
L 532.67715 156.542581 
L 539.379853 156.280833 
L 546.082555 156.229966 
L 552.785258 156.400175 
L 559.487961 156.802325 
L 565.581327 157.378925 
L 571.674693 158.166048 
L 577.768059 159.17354 
L 583.861425 160.411869 
L 589.954791 161.892179 
L 595.438821 163.441148 
L 600.92285 165.204927 
L 606.40688 167.193271 
L 611.890909 169.416538 
L 617.374939 171.885729 
L 622.858968 174.612546 
L 628.342998 177.609444 
L 633.21769 180.510797 
L 638.092383 183.645925 
L 642.967076 187.025326 
L 647.841769 190.660134 
L 652.716462 194.562174 
L 657.591155 198.744007 
L 662.465848 203.218999 
L 667.340541 208.001378 
L 672.215233 213.106309 
L 677.089926 218.54997 
L 681.964619 224.349642 
L 686.839312 230.523798 
L 691.714005 237.092215 
L 696.588698 244.076085 
L 701.463391 251.49815 
L 706.338084 259.382837 
L 710.60344 266.682047 
L 714.868796 274.374415 
L 719.134152 282.480107 
L 723.399509 291.020687 
L 727.664865 300.019248 
L 731.930221 309.500548 
L 736.195577 319.491161 
L 740.460934 330.019648 
L 744.72629 341.116747 
L 747.163636 347.725884 
L 747.163636 347.725884 
" style="fill:none;stroke:#ff7f0e;stroke-dasharray:9.25,4;stroke-dashoffset:0;stroke-width:2.5;"/>
   </g>
   <g id="line2d_31">
    <path clip-path="url(#p6dfb6e4ff2)" d="M 138.436364 360.402935 
L 156.107125 346.084055 
L 173.16855 332.538161 
L 189.620639 319.751187 
L 205.463391 307.707909 
L 221.306143 295.944897 
L 236.539558 284.913721 
L 251.163636 274.596117 
L 265.178378 264.972604 
L 279.19312 255.621832 
L 292.598526 246.946655 
L 305.394595 238.924324 
L 318.190663 231.167824 
L 330.377396 224.040668 
L 341.954791 217.516815 
L 353.532187 211.245658 
L 364.500246 205.549137 
L 375.468305 200.102277 
L 385.827027 195.198286 
L 396.185749 190.538881 
L 405.935135 186.387436 
L 415.684521 182.473334 
L 425.433907 178.80756 
L 434.573956 175.606799 
L 443.714005 172.64476 
L 452.244717 170.105113 
L 460.77543 167.792169 
L 469.306143 165.715796 
L 477.227518 164.008683 
L 485.148894 162.523399 
L 493.07027 161.269284 
L 500.38231 160.32535 
L 507.694349 159.594993 
L 515.006388 159.08685 
L 522.318428 158.810033 
L 529.02113 158.7677 
L 535.723833 158.935621 
L 542.426536 159.322009 
L 549.129238 159.935505 
L 555.831941 160.785215 
L 561.925307 161.770726 
L 568.018673 162.966971 
L 574.112039 164.381922 
L 580.205405 166.023956 
L 586.298771 167.901887 
L 592.392138 170.024988 
L 598.485504 172.403025 
L 603.969533 174.769726 
L 609.453563 177.359146 
L 614.937592 180.179567 
L 620.421622 183.239687 
L 625.905651 186.548646 
L 631.389681 190.116056 
L 636.87371 193.952027 
L 642.35774 198.067206 
L 647.841769 202.472811 
L 653.325799 207.180667 
L 658.809828 212.203251 
L 664.293857 217.553735 
L 669.777887 223.246039 
L 675.261916 229.294879 
L 680.745946 235.715831 
L 685.620639 241.749047 
L 690.495332 248.101536 
L 695.370025 254.786195 
L 700.244717 261.816628 
L 705.11941 269.207189 
L 709.994103 276.973039 
L 714.868796 285.130204 
L 719.743489 293.695631 
L 724.618182 302.687265 
L 729.492875 312.124116 
L 734.367568 322.026341 
L 739.24226 332.415332 
L 744.116953 343.313816 
L 747.163636 350.394768 
L 747.163636 350.394768 
" style="fill:none;stroke:#ffbb78;stroke-linecap:round;stroke-width:2.5;"/>
   </g>
   <g id="line2d_32">
    <path clip-path="url(#p6dfb6e4ff2)" d="M 138.436364 359.738564 
L 156.107125 343.545121 
L 173.16855 328.212332 
L 189.620639 313.725351 
L 205.463391 300.06805 
L 220.696806 287.223019 
L 235.320885 275.171565 
L 249.944963 263.409649 
L 263.959705 252.424692 
L 277.365111 242.194593 
L 290.770516 232.250398 
L 303.566585 223.0393 
L 315.753317 214.535646 
L 327.940049 206.307985 
L 339.517445 198.760505 
L 350.485504 191.864056 
L 361.453563 185.226778 
L 371.812285 179.207746 
L 382.171007 173.442806 
L 391.920393 168.260038 
L 401.669779 163.324022 
L 411.419165 158.646277 
L 420.559214 154.506333 
L 429.699263 150.614861 
L 438.229975 147.217017 
L 446.760688 144.055317 
L 455.2914 141.140133 
L 463.212776 138.663502 
L 471.134152 136.418205 
L 479.055528 134.414077 
L 486.367568 132.787154 
L 493.679607 131.38322 
L 500.991646 130.211384 
L 507.694349 129.349294 
L 514.397052 128.698103 
L 521.099754 128.266015 
L 527.802457 128.061667 
L 534.50516 128.094154 
L 540.598526 128.337264 
L 546.691892 128.7916 
L 552.785258 129.465122 
L 558.878624 130.366192 
L 564.97199 131.503605 
L 571.065356 132.886613 
L 576.549386 134.349348 
L 582.033415 136.026363 
L 587.517445 137.925486 
L 593.001474 140.054929 
L 598.485504 142.423314 
L 603.969533 145.039699 
L 609.453563 147.913605 
L 614.937592 151.055049 
L 620.421622 154.474572 
L 625.905651 158.183277 
L 631.389681 162.192865 
L 636.264373 166.0195 
L 641.139066 170.102732 
L 646.013759 174.452137 
L 650.888452 179.07777 
L 655.763145 183.9902 
L 660.637838 189.200544 
L 665.512531 194.720499 
L 670.387224 200.562382 
L 675.261916 206.739175 
L 680.136609 213.264565 
L 685.011302 220.152995 
L 689.885995 227.419719 
L 694.760688 235.080856 
L 699.635381 243.153454 
L 704.510074 251.65556 
L 709.384767 260.60629 
L 714.259459 270.02591 
L 719.134152 279.93593 
L 724.008845 290.359192 
L 728.883538 301.31998 
L 733.758231 312.844135 
L 738.632924 324.959182 
L 743.507617 337.694468 
L 747.163636 347.671728 
L 747.163636 347.671728 
" style="fill:none;stroke:#2ca02c;stroke-dasharray:9.25,4;stroke-dashoffset:0;stroke-width:2.5;"/>
   </g>
   <g id="line2d_33">
    <path clip-path="url(#p6dfb6e4ff2)" d="M 138.436364 358.82282 
L 156.716462 339.382068 
L 174.387224 320.915795 
L 191.448649 303.411157 
L 207.900737 286.853876 
L 223.743489 271.228198 
L 238.976904 256.516858 
L 253.600983 242.701061 
L 267.615725 229.760476 
L 281.02113 217.673256 
L 294.426536 205.887122 
L 307.222604 194.934012 
L 319.409337 184.788024 
L 331.596069 174.936472 
L 343.173464 165.865507 
L 354.141523 157.545078 
L 365.109582 149.504762 
L 375.468305 142.181969 
L 385.827027 135.136198 
L 395.576413 128.771032 
L 405.325799 122.677252 
L 414.465848 117.223186 
L 423.605897 112.03214 
L 432.136609 107.435982 
L 440.667322 103.091635 
L 448.588698 99.293581 
L 456.510074 95.733257 
L 464.43145 92.421524 
L 471.743489 89.595145 
L 479.055528 87.00002 
L 486.367568 84.64633 
L 493.07027 82.710076 
L 499.772973 80.994543 
L 506.475676 79.509013 
L 513.178378 78.263296 
L 519.271744 77.347648 
L 525.365111 76.646992 
L 531.458477 76.170001 
L 537.551843 75.925819 
L 543.645209 75.924099 
L 549.129238 76.138268 
L 554.613268 76.564908 
L 560.097297 77.212255 
L 565.581327 78.088975 
L 571.065356 79.204192 
L 576.549386 80.567522 
L 581.424079 81.99585 
L 586.298771 83.635713 
L 591.173464 85.494975 
L 596.048157 87.581894 
L 600.92285 89.905147 
L 605.797543 92.473858 
L 610.672236 95.297626 
L 615.546929 98.386559 
L 620.421622 101.751304 
L 625.296314 105.403087 
L 630.171007 109.353753 
L 635.0457 113.615804 
L 639.920393 118.202452 
L 644.795086 123.127668 
L 649.669779 128.406233 
L 654.544472 134.053804 
L 659.419165 140.086977 
L 664.293857 146.523355 
L 669.16855 153.381633 
L 673.433907 159.744303 
L 677.699263 166.459283 
L 681.964619 173.54147 
L 686.229975 181.006612 
L 690.495332 188.87137 
L 694.760688 197.153387 
L 699.026044 205.87136 
L 703.2914 215.045119 
L 707.556757 224.695717 
L 711.822113 234.84552 
L 716.087469 245.518321 
L 720.352826 256.739444 
L 724.618182 268.535876 
L 728.883538 280.936408 
L 733.148894 293.97178 
L 737.414251 307.674857 
L 741.679607 322.080809 
L 745.944963 337.227324 
L 747.163636 341.696507 
L 747.163636 341.696507 
" style="fill:none;stroke:#98df8a;stroke-linecap:round;stroke-width:2.5;"/>
   </g>
   <g id="line2d_34">
    <path clip-path="url(#p6dfb6e4ff2)" d="M 138.436364 358.397184 
L 155.497789 339.104049 
L 171.949877 320.826805 
L 187.792629 303.547893 
L 203.026044 287.248337 
L 218.259459 271.275332 
L 232.883538 256.26618 
L 246.89828 242.198156 
L 260.303686 229.047062 
L 273.709091 216.210904 
L 286.50516 204.26797 
L 298.691892 193.190114 
L 310.878624 182.416663 
L 322.45602 172.478476 
L 333.424079 163.343512 
L 344.392138 154.494759 
L 354.75086 146.413263 
L 365.109582 138.612608 
L 374.858968 131.539574 
L 384.608354 124.739499 
L 393.748403 118.623762 
L 402.888452 112.770485 
L 412.028501 107.191607 
L 420.559214 102.243391 
L 429.089926 97.556161 
L 437.011302 93.447527 
L 444.932678 89.583696 
L 452.854054 85.975017 
L 460.166093 82.87985 
L 467.478133 80.020493 
L 474.790172 77.406524 
L 481.492875 75.234572 
L 488.195577 73.285492 
L 494.89828 71.567903 
L 501.600983 70.090874 
L 507.694349 68.964896 
L 513.787715 68.053151 
L 519.881081 67.363553 
L 525.974447 66.904406 
L 532.067813 66.684435 
L 537.551843 66.698527 
L 543.035872 66.920787 
L 548.519902 67.358559 
L 554.003931 68.019536 
L 559.487961 68.911781 
L 564.97199 70.04375 
L 570.45602 71.424317 
L 575.330713 72.86771 
L 580.205405 74.521737 
L 585.080098 76.393564 
L 589.954791 78.490687 
L 594.829484 80.82095 
L 599.704177 83.392563 
L 604.57887 86.214129 
L 609.453563 89.294663 
L 614.328256 92.643619 
L 619.202948 96.270917 
L 624.077641 100.186973 
L 628.952334 104.402728 
L 633.827027 108.929683 
L 638.70172 113.779935 
L 643.576413 118.966217 
L 648.451106 124.501939 
L 653.325799 130.401233 
L 658.200491 136.679006 
L 663.075184 143.350989 
L 667.949877 150.433799 
L 672.82457 157.944997 
L 677.699263 165.903164 
L 682.573956 174.327967 
L 687.448649 183.240246 
L 692.323342 192.662101 
L 697.198034 202.616988 
L 702.072727 213.129824 
L 706.94742 224.227106 
L 711.822113 235.937033 
L 716.696806 248.28965 
L 721.571499 261.316997 
L 726.446192 275.053282 
L 731.320885 289.535064 
L 736.195577 304.801459 
L 741.07027 320.894371 
L 745.944963 337.858738 
L 747.163636 342.241573 
L 747.163636 342.241573 
" style="fill:none;stroke:#d62728;stroke-dasharray:9.25,4;stroke-dashoffset:0;stroke-width:2.5;"/>
   </g>
   <g id="line2d_35">
    <path clip-path="url(#p6dfb6e4ff2)" d="M 138.436364 360.762264 
L 157.325799 346.523894 
L 175.605897 333.013809 
L 193.276658 320.222382 
L 210.338084 308.138859 
L 226.790172 296.75132 
L 242.632924 286.046645 
L 257.866339 276.010484 
L 273.099754 266.241846 
L 287.723833 257.131289 
L 301.738575 248.661242 
L 315.14398 240.812797 
L 328.549386 233.226842 
L 341.345455 226.24501 
L 353.532187 219.844831 
L 365.718919 213.701722 
L 377.296314 208.117352 
L 388.264373 203.065589 
L 399.232432 198.258754 
L 409.591155 193.955902 
L 419.949877 189.895517 
L 429.699263 186.307044 
L 439.448649 182.956345 
L 448.588698 180.041971 
L 457.728747 177.358274 
L 466.868796 174.916839 
L 475.399509 172.867646 
L 483.930221 171.050996 
L 491.851597 169.582313 
L 499.772973 168.333739 
L 507.694349 167.315628 
L 515.006388 166.589901 
L 522.318428 166.079127 
L 529.630467 165.793063 
L 536.942506 165.74207 
L 543.645209 165.911215 
L 550.347912 166.296115 
L 557.050614 166.906288 
L 563.753317 167.751823 
L 569.846683 168.733721 
L 575.940049 169.927476 
L 582.033415 171.342078 
L 588.126781 172.987035 
L 594.220147 174.872405 
L 600.313514 177.008845 
L 605.797543 179.155624 
L 611.281572 181.523615 
L 616.765602 184.122007 
L 622.249631 186.960507 
L 627.733661 190.049373 
L 633.21769 193.399458 
L 638.70172 197.022248 
L 644.185749 200.929915 
L 649.669779 205.135367 
L 655.153808 209.652302 
L 660.028501 213.94059 
L 664.903194 218.497302 
L 669.777887 223.333881 
L 674.65258 228.462431 
L 679.527273 233.895764 
L 684.401966 239.647452 
L 689.276658 245.731886 
L 694.151351 252.164338 
L 699.026044 258.961027 
L 703.900737 266.139198 
L 708.77543 273.717201 
L 713.650123 281.714583 
L 718.524816 290.152184 
L 723.399509 299.05225 
L 728.274201 308.438552 
L 733.148894 318.336517 
L 738.023587 328.773377 
L 742.89828 339.778332 
L 747.163636 349.898269 
L 747.163636 349.898269 
" style="fill:none;stroke:#ff9896;stroke-linecap:round;stroke-width:2.5;"/>
   </g>
   <g id="line2d_36">
    <path clip-path="url(#p6dfb6e4ff2)" d="M 138.436364 360.850108 
L 157.935135 346.42461 
L 176.82457 332.725275 
L 195.104668 319.743965 
L 212.77543 307.471428 
L 229.836855 295.897234 
L 246.288943 285.009727 
L 262.131695 274.795974 
L 277.365111 265.241736 
L 291.989189 256.331437 
L 306.003931 248.048159 
L 319.409337 240.37365 
L 332.814742 232.95704 
L 345.610811 226.132614 
L 357.797543 219.878552 
L 369.984275 213.877945 
L 381.561671 208.4257 
L 392.52973 203.496301 
L 403.497789 198.809234 
L 413.856511 194.617258 
L 424.215233 190.665746 
L 433.964619 187.17809 
L 443.714005 183.926804 
L 452.854054 181.104562 
L 461.994103 178.512186 
L 471.134152 176.161517 
L 479.664865 174.196794 
L 488.195577 172.464656 
L 496.116953 171.074756 
L 504.038329 169.905544 
L 511.959705 168.967692 
L 519.271744 168.31715 
L 526.583784 167.882936 
L 533.895823 167.675154 
L 541.207862 167.70455 
L 547.910565 167.949603 
L 554.613268 168.412911 
L 561.315971 169.104399 
L 568.018673 170.034603 
L 574.112039 171.096802 
L 580.205405 172.37445 
L 586.298771 173.876989 
L 592.392138 175.61442 
L 598.485504 177.597344 
L 604.57887 179.837012 
L 610.062899 182.08209 
L 615.546929 184.554028 
L 621.030958 187.262587 
L 626.514988 190.218092 
L 631.999017 193.431482 
L 637.483047 196.914349 
L 642.967076 200.67899 
L 648.451106 204.738464 
L 653.935135 209.106647 
L 658.809828 213.260553 
L 663.684521 217.681027 
L 668.559214 222.379709 
L 673.433907 227.368928 
L 678.3086 232.661748 
L 683.183292 238.272034 
L 688.057985 244.214503 
L 692.932678 250.504799 
L 697.807371 257.159563 
L 702.682064 264.196516 
L 707.556757 271.634544 
L 712.43145 279.493801 
L 717.306143 287.795813 
L 722.180835 296.563599 
L 727.055528 305.8218 
L 731.930221 315.596828 
L 736.804914 325.917026 
L 741.679607 336.812848 
L 746.5543 348.317058 
L 747.163636 349.79959 
L 747.163636 349.79959 
" style="fill:none;stroke:#9467bd;stroke-dasharray:9.25,4;stroke-dashoffset:0;stroke-width:2.5;"/>
   </g>
   <g id="line2d_37">
    <path clip-path="url(#p6dfb6e4ff2)" d="M 138.436364 361.806886 
L 157.935135 350.373504 
L 176.82457 339.554474 
L 195.104668 329.340869 
L 212.77543 319.722761 
L 229.836855 310.689178 
L 246.288943 302.228077 
L 262.131695 294.326321 
L 277.365111 286.969668 
L 292.598526 279.863515 
L 307.222604 273.291162 
L 321.237346 267.235448 
L 334.642752 261.678047 
L 348.048157 256.363394 
L 360.844226 251.529365 
L 373.030958 247.154517 
L 385.21769 243.015154 
L 396.795086 239.312483 
L 408.372482 235.845554 
L 419.340541 232.789912 
L 430.3086 229.968521 
L 440.667322 227.529958 
L 451.026044 225.322216 
L 460.77543 223.465696 
L 470.524816 221.834468 
L 479.664865 220.519687 
L 488.804914 219.422448 
L 497.944963 218.553132 
L 506.475676 217.957149 
L 515.006388 217.578888 
L 523.537101 217.428499 
L 531.458477 217.502311 
L 539.379853 217.791073 
L 547.301229 218.304509 
L 555.222604 219.052942 
L 562.534644 219.961847 
L 569.846683 221.089464 
L 577.158722 222.445477 
L 584.470762 224.04015 
L 591.173464 225.720879 
L 597.876167 227.620175 
L 604.57887 229.747428 
L 611.281572 232.112577 
L 617.984275 234.726144 
L 624.686978 237.599283 
L 630.780344 240.446418 
L 636.87371 243.527255 
L 642.967076 246.851739 
L 649.060442 250.430387 
L 655.153808 254.27433 
L 661.247174 258.395359 
L 667.340541 262.805973 
L 673.433907 267.519437 
L 678.917936 272.032115 
L 684.401966 276.812379 
L 689.885995 281.871735 
L 695.370025 287.222355 
L 700.854054 292.877132 
L 706.338084 298.84973 
L 711.822113 305.154644 
L 717.306143 311.807263 
L 722.790172 318.823944 
L 728.274201 326.222083 
L 733.758231 334.020205 
L 739.24226 342.238052 
L 744.72629 350.89669 
L 747.163636 354.89229 
L 747.163636 354.89229 
" style="fill:none;stroke:#8c564b;stroke-linecap:round;stroke-width:2.5;"/>
   </g>
   <g id="line2d_38">
    <path clip-path="url(#p6dfb6e4ff2)" d="M 138.436364 362.984821 
L 160.981818 353.99272 
L 182.917936 345.479188 
L 204.244717 337.441848 
L 224.352826 330.096519 
L 243.851597 323.205466 
L 262.741032 316.76312 
L 281.02113 310.763019 
L 298.691892 305.197745 
L 315.753317 300.05887 
L 332.205405 295.336905 
L 348.048157 291.021253 
L 363.281572 287.100174 
L 377.905651 283.560753 
L 391.920393 280.388889 
L 405.935135 277.446316 
L 419.340541 274.859958 
L 432.136609 272.612563 
L 444.932678 270.594975 
L 457.11941 268.900343 
L 468.696806 267.507992 
L 480.274201 266.340373 
L 491.24226 265.453793 
L 502.210319 264.793535 
L 512.569042 264.389871 
L 522.927764 264.212273 
L 532.67715 264.263403 
L 542.426536 264.538243 
L 551.566585 265.010363 
L 560.706634 265.701508 
L 569.846683 266.623755 
L 578.377396 267.704459 
L 586.908108 269.009104 
L 595.438821 270.549839 
L 603.360197 272.203304 
L 611.281572 274.08277 
L 619.202948 276.200225 
L 626.514988 278.37713 
L 633.827027 280.778577 
L 641.139066 283.416128 
L 648.451106 286.30215 
L 655.153808 289.177243 
L 661.856511 292.283152 
L 668.559214 295.631518 
L 675.261916 299.234781 
L 681.964619 303.106247 
L 688.057985 306.870468 
L 694.151351 310.879544 
L 700.244717 315.145674 
L 706.338084 319.681878 
L 712.43145 324.502072 
L 718.524816 329.621147 
L 724.618182 335.055049 
L 730.102211 340.228851 
L 735.586241 345.684839 
L 741.07027 351.437249 
L 746.5543 357.501292 
L 747.163636 358.195007 
L 747.163636 358.195007 
" style="fill:none;stroke:#c49c94;stroke-dasharray:9.25,4;stroke-dashoffset:0;stroke-width:2.5;"/>
   </g>
   <g id="line2d_39">
    <path clip-path="url(#p6dfb6e4ff2)" d="M 138.436364 362.684839 
L 161.591155 352.334594 
L 183.527273 342.768664 
L 204.854054 333.710168 
L 224.962162 325.405005 
L 244.460934 317.587197 
L 263.350369 310.252133 
L 281.630467 303.39429 
L 299.301229 297.007161 
L 315.753317 291.290439 
L 331.596069 286.010234 
L 347.438821 280.966398 
L 362.672236 276.355414 
L 377.296314 272.164887 
L 391.311057 268.381097 
L 404.716462 264.988976 
L 417.512531 261.972105 
L 430.3086 259.185475 
L 442.495332 256.759642 
L 454.072727 254.674581 
L 465.650123 252.817047 
L 476.618182 251.280378 
L 487.586241 249.974485 
L 497.944963 248.966194 
L 507.694349 248.229077 
L 517.443735 247.709649 
L 527.19312 247.420875 
L 536.33317 247.372075 
L 545.473219 247.550772 
L 554.003931 247.934662 
L 562.534644 248.54022 
L 571.065356 249.380129 
L 578.986732 250.381817 
L 586.908108 251.609129 
L 594.829484 253.074725 
L 602.141523 254.650844 
L 609.453563 256.453111 
L 616.765602 258.49388 
L 623.468305 260.585418 
L 630.171007 262.899462 
L 636.87371 265.447741 
L 643.576413 268.242822 
L 650.279115 271.298189 
L 656.372482 274.313831 
L 662.465848 277.568206 
L 668.559214 281.073792 
L 674.65258 284.843948 
L 680.745946 288.893003 
L 686.229975 292.788297 
L 691.714005 296.933947 
L 697.198034 301.342778 
L 702.682064 306.028506 
L 708.166093 311.00582 
L 713.650123 316.290464 
L 719.134152 321.899337 
L 724.618182 327.850599 
L 730.102211 334.163793 
L 734.976904 340.096354 
L 739.851597 346.347393 
L 744.72629 352.933931 
L 747.163636 356.358666 
L 747.163636 356.358666 
" style="fill:none;stroke:#e377c2;stroke-linecap:round;stroke-width:2.5;"/>
   </g>
   <g id="line2d_40">
    <path clip-path="url(#p6dfb6e4ff2)" d="M 138.436364 363.174545 
L 162.200491 354.411949 
L 185.355283 346.109913 
L 207.2914 338.477087 
L 228.618182 331.290418 
L 248.72629 324.742522 
L 268.225061 318.620921 
L 287.114496 312.920944 
L 305.394595 307.637037 
L 323.065356 302.762693 
L 340.126781 298.29039 
L 356.57887 294.211524 
L 372.421622 290.516348 
L 387.655037 287.193928 
L 402.279115 284.232094 
L 416.293857 281.61741 
L 429.699263 279.335157 
L 443.104668 277.281135 
L 455.900737 275.547528 
L 468.087469 274.116212 
L 480.274201 272.913211 
L 491.851597 271.99541 
L 502.819656 271.340981 
L 513.787715 270.908834 
L 524.146437 270.717285 
L 534.50516 270.749021 
L 544.254545 270.9951 
L 554.003931 271.463406 
L 563.14398 272.116096 
L 572.284029 272.987627 
L 581.424079 274.090753 
L 589.954791 275.341411 
L 598.485504 276.817853 
L 606.40688 278.402339 
L 614.328256 280.203871 
L 622.249631 282.234452 
L 630.171007 284.506987 
L 637.483047 286.831459 
L 644.795086 289.385662 
L 652.107125 292.182199 
L 659.419165 295.23461 
L 666.121867 298.269857 
L 672.82457 301.544391 
L 679.527273 305.07113 
L 686.229975 308.863941 
L 692.323342 312.555358 
L 698.416708 316.490974 
L 704.510074 320.683638 
L 710.60344 325.147114 
L 716.696806 329.896167 
L 722.790172 334.946656 
L 728.883538 340.315634 
L 734.367568 345.435174 
L 739.851597 350.84193 
L 745.335627 356.551311 
L 747.163636 358.524511 
L 747.163636 358.524511 
" style="fill:none;stroke:#f7b6d2;stroke-dasharray:9.25,4;stroke-dashoffset:0;stroke-width:2.5;"/>
   </g>
   <g id="line2d_41">
    <path clip-path="url(#p6dfb6e4ff2)" d="M 138.436364 361.526454 
L 158.544472 348.823782 
L 178.043243 336.768238 
L 196.932678 325.353122 
L 215.212776 314.570724 
L 232.883538 304.412266 
L 249.335627 295.204051 
L 265.787715 286.252729 
L 281.630467 277.891771 
L 296.863882 270.107622 
L 311.487961 262.885444 
L 325.502703 256.209108 
L 338.908108 250.061202 
L 352.313514 244.160401 
L 365.109582 238.772278 
L 377.296314 233.875987 
L 389.483047 229.22275 
L 401.060442 225.040384 
L 412.028501 221.30448 
L 422.99656 217.801164 
L 433.355283 214.717803 
L 443.714005 211.865372 
L 453.463391 209.403034 
L 463.212776 207.167828 
L 472.352826 205.289397 
L 481.492875 203.631979 
L 490.632924 202.207028 
L 499.163636 201.097613 
L 507.694349 200.212028 
L 516.225061 199.561651 
L 524.146437 199.178953 
L 532.067813 199.019933 
L 539.989189 199.095671 
L 547.301229 199.384161 
L 554.613268 199.892657 
L 561.925307 200.631702 
L 568.62801 201.521265 
L 575.330713 202.623169 
L 582.033415 203.947172 
L 588.736118 205.503633 
L 595.438821 207.303572 
L 601.532187 209.161012 
L 607.625553 211.238708 
L 613.718919 213.546578 
L 619.812285 216.095142 
L 625.905651 218.895573 
L 631.999017 221.959747 
L 637.483047 224.953427 
L 642.967076 228.180736 
L 648.451106 231.652026 
L 653.935135 235.378272 
L 659.419165 239.371115 
L 664.903194 243.642916 
L 670.387224 248.206814 
L 675.871253 253.076785 
L 681.355283 258.267709 
L 686.839312 263.795451 
L 692.323342 269.676935 
L 697.198034 275.216477 
L 702.072727 281.063312 
L 706.94742 287.231806 
L 711.822113 293.737238 
L 716.696806 300.595868 
L 721.571499 307.825021 
L 726.446192 315.443173 
L 731.320885 323.470049 
L 736.195577 331.926732 
L 741.07027 340.835777 
L 745.944963 350.221348 
L 747.163636 352.645195 
L 747.163636 352.645195 
" style="fill:none;stroke:#7f7f7f;stroke-linecap:round;stroke-width:2.5;"/>
   </g>
   <g id="line2d_42">
    <path clip-path="url(#p6dfb6e4ff2)" d="M 138.436364 361.686822 
L 159.153808 349.126845 
L 179.261916 337.19796 
L 198.151351 326.244114 
L 216.43145 315.8929 
L 234.102211 306.136264 
L 251.163636 296.96508 
L 267.615725 288.369101 
L 283.458477 280.336913 
L 298.691892 272.855896 
L 313.315971 265.912198 
L 327.940049 259.21692 
L 341.954791 253.048807 
L 355.360197 247.390764 
L 368.156265 242.224354 
L 380.952334 237.301127 
L 393.139066 232.852265 
L 404.716462 228.855744 
L 416.293857 225.09655 
L 427.261916 221.766937 
L 438.229975 218.675995 
L 448.588698 215.98852 
L 458.94742 213.539105 
L 468.696806 211.46347 
L 478.446192 209.623073 
L 487.586241 208.123047 
L 496.72629 206.852996 
L 505.257002 205.886116 
L 513.787715 205.141333 
L 522.318428 204.63029 
L 530.239803 204.375933 
L 538.161179 204.344546 
L 546.082555 204.54754 
L 553.394595 204.953489 
L 560.706634 205.579785 
L 568.018673 206.437351 
L 574.721376 207.436564 
L 581.424079 208.649464 
L 588.126781 210.086228 
L 594.829484 211.757685 
L 601.532187 213.675378 
L 607.625553 215.642754 
L 613.718919 217.83364 
L 619.812285 220.258495 
L 625.905651 222.928443 
L 631.999017 225.855322 
L 638.092383 229.051746 
L 643.576413 232.17009 
L 649.060442 235.528088 
L 654.544472 239.136816 
L 660.028501 243.008049 
L 665.512531 247.154307 
L 670.99656 251.58892 
L 676.48059 256.326094 
L 681.964619 261.380984 
L 687.448649 266.769772 
L 692.323342 271.854077 
L 697.198034 277.228811 
L 702.072727 282.907749 
L 706.94742 288.905549 
L 711.822113 295.237828 
L 716.696806 301.921237 
L 721.571499 308.973553 
L 726.446192 316.413773 
L 731.320885 324.262222 
L 736.195577 332.540669 
L 741.07027 341.272458 
L 745.944963 350.482657 
L 747.163636 352.863073 
L 747.163636 352.863073 
" style="fill:none;stroke:#c7c7c7;stroke-dasharray:9.25,4;stroke-dashoffset:0;stroke-width:2.5;"/>
   </g>
   <g id="line2d_43">
    <path clip-path="url(#p6dfb6e4ff2)" d="M 138.436364 363.048692 
L 162.200491 353.812241 
L 184.745946 345.287867 
L 206.682064 337.234698 
L 227.399509 329.864277 
L 247.507617 322.946343 
L 267.006388 316.476844 
L 285.286486 310.64137 
L 302.957248 305.227347 
L 320.018673 300.227045 
L 336.470762 295.63169 
L 352.313514 291.431422 
L 367.546929 287.615245 
L 382.171007 284.170997 
L 396.795086 280.956155 
L 410.809828 278.105073 
L 424.215233 275.602525 
L 437.011302 273.431978 
L 449.807371 271.488427 
L 461.994103 269.861993 
L 473.571499 268.532657 
L 485.148894 267.426688 
L 496.116953 266.597635 
L 507.085012 265.994481 
L 517.443735 265.644809 
L 527.802457 265.521757 
L 537.551843 265.625238 
L 547.301229 265.953967 
L 556.441278 266.478559 
L 565.581327 267.224666 
L 574.721376 268.205033 
L 583.252088 269.343504 
L 591.782801 270.710034 
L 599.704177 272.194458 
L 607.625553 273.897805 
L 615.546929 275.832013 
L 623.468305 278.009906 
L 630.780344 280.248469 
L 638.092383 282.718055 
L 645.404423 285.431152 
L 652.107125 288.143504 
L 658.809828 291.082781 
L 665.512531 294.260814 
L 672.215233 297.690266 
L 678.917936 301.384715 
L 685.011302 304.985503 
L 691.104668 308.829052 
L 697.198034 312.927895 
L 703.2914 317.295444 
L 709.384767 321.946064 
L 715.478133 326.895165 
L 721.571499 332.159296 
L 727.055528 337.181044 
L 732.539558 342.486277 
L 738.023587 348.089882 
L 743.507617 354.007809 
L 747.163636 358.136115 
L 747.163636 358.136115 
" style="fill:none;stroke:#bcbd22;stroke-linecap:round;stroke-width:2.5;"/>
   </g>
   <g id="line2d_44">
    <path clip-path="url(#p6dfb6e4ff2)" d="M 138.436364 361.921967 
L 159.153808 350.141218 
L 179.261916 338.960572 
L 198.760688 328.374778 
L 217.650123 318.377665 
L 235.320885 309.271627 
L 252.38231 300.721032 
L 268.834398 292.715711 
L 284.67715 285.244375 
L 300.519902 278.021575 
L 315.753317 271.326506 
L 330.377396 265.144973 
L 344.392138 259.461491 
L 357.797543 254.259279 
L 371.202948 249.300367 
L 383.999017 244.807891 
L 396.185749 240.761624 
L 408.372482 236.955676 
L 419.949877 233.575892 
L 430.917936 230.59842 
L 441.885995 227.851905 
L 452.244717 225.482041 
L 462.60344 223.342148 
L 472.352826 221.549832 
L 482.102211 219.984367 
L 491.24226 218.733864 
L 500.38231 217.704749 
L 509.522359 216.908844 
L 518.053071 216.387577 
L 526.583784 216.09154 
L 534.50516 216.028636 
L 542.426536 216.180221 
L 550.347912 216.557078 
L 558.269287 217.170728 
L 565.581327 217.957984 
L 572.893366 218.967835 
L 580.205405 220.211308 
L 586.908108 221.566427 
L 593.610811 223.137389 
L 600.313514 224.934462 
L 607.016216 226.968577 
L 613.718919 229.251378 
L 619.812285 231.552892 
L 625.905651 234.080122 
L 631.999017 236.843621 
L 638.092383 239.85461 
L 644.185749 243.12503 
L 650.279115 246.667608 
L 655.763145 250.099819 
L 661.247174 253.773981 
L 666.731204 257.701268 
L 672.215233 261.893552 
L 677.699263 266.363459 
L 683.183292 271.124429 
L 688.667322 276.190787 
L 694.151351 281.577809 
L 699.635381 287.301812 
L 705.11941 293.380236 
L 709.994103 299.095877 
L 714.868796 305.120274 
L 719.743489 311.468317 
L 724.618182 318.155866 
L 729.492875 325.19984 
L 734.367568 332.618295 
L 739.24226 340.430534 
L 744.116953 348.657204 
L 747.163636 354.019089 
L 747.163636 354.019089 
" style="fill:none;stroke:#dbdb8d;stroke-dasharray:9.25,4;stroke-dashoffset:0;stroke-width:2.5;"/>
   </g>
   <g id="line2d_45">
    <path clip-path="url(#p6dfb6e4ff2)" d="M 138.436364 362.33209 
L 161.591155 350.671885 
L 183.527273 339.87319 
L 204.854054 329.625233 
L 224.962162 320.20814 
L 244.460934 311.322392 
L 262.741032 303.229527 
L 280.411794 295.642048 
L 297.473219 288.552874 
L 313.925307 281.953817 
L 329.768059 275.835523 
L 345.001474 270.187406 
L 359.625553 264.997594 
L 373.640295 260.252895 
L 387.0457 255.938759 
L 400.451106 251.859156 
L 413.247174 248.198856 
L 425.433907 244.939724 
L 437.011302 242.06217 
L 448.588698 239.411593 
L 459.556757 237.123419 
L 470.524816 235.066171 
L 480.883538 233.348763 
L 491.24226 231.864441 
L 500.991646 230.693682 
L 510.741032 229.756049 
L 519.881081 229.101704 
L 529.02113 228.678081 
L 537.551843 228.50326 
L 546.082555 228.554026 
L 554.003931 228.814792 
L 561.925307 229.293048 
L 569.846683 230.001159 
L 577.158722 230.87032 
L 584.470762 231.957945 
L 591.782801 233.276137 
L 598.485504 234.698123 
L 605.188206 236.33553 
L 611.890909 238.199881 
L 618.593612 240.30354 
L 625.296314 242.65978 
L 631.389681 245.032992 
L 637.483047 247.638244 
L 643.576413 250.48786 
L 649.669779 253.595052 
L 655.763145 256.974002 
L 661.247174 260.259985 
L 666.731204 263.790337 
L 672.215233 267.577799 
L 677.699263 271.636013 
L 683.183292 275.979604 
L 688.667322 280.624269 
L 694.151351 285.586879 
L 699.026044 290.27965 
L 703.900737 295.251642 
L 708.77543 300.517491 
L 713.650123 306.092874 
L 718.524816 311.994604 
L 723.399509 318.240735 
L 728.274201 324.850675 
L 733.148894 331.84532 
L 738.023587 339.247198 
L 742.89828 347.08063 
L 747.163636 354.309512 
L 747.163636 354.309512 
" style="fill:none;stroke:#17becf;stroke-linecap:round;stroke-width:2.5;"/>
   </g>
   <g id="patch_3">
    <path d="M 108 378 
L 108 51.84 
" style="fill:none;stroke:#cccccc;stroke-linecap:square;stroke-linejoin:miter;"/>
   </g>
   <g id="patch_4">
    <path d="M 108 378 
L 777.6 378 
" style="fill:none;stroke:#cccccc;stroke-linecap:square;stroke-linejoin:miter;"/>
   </g>
   <g id="text_17">
    <!-- Relative Missibility FoM -->
    <defs>
     <path d="M 44.390625 34.1875 
Q 47.5625 33.109375 50.5625 29.59375 
Q 53.5625 26.078125 56.59375 19.921875 
L 66.609375 0 
L 56 0 
L 46.6875 18.703125 
Q 43.0625 26.03125 39.671875 28.421875 
Q 36.28125 30.8125 30.421875 30.8125 
L 19.671875 30.8125 
L 19.671875 0 
L 9.8125 0 
L 9.8125 72.90625 
L 32.078125 72.90625 
Q 44.578125 72.90625 50.734375 67.671875 
Q 56.890625 62.453125 56.890625 51.90625 
Q 56.890625 45.015625 53.6875 40.46875 
Q 50.484375 35.9375 44.390625 34.1875 
z
M 19.671875 64.796875 
L 19.671875 38.921875 
L 32.078125 38.921875 
Q 39.203125 38.921875 42.84375 42.21875 
Q 46.484375 45.515625 46.484375 51.90625 
Q 46.484375 58.296875 42.84375 61.546875 
Q 39.203125 64.796875 32.078125 64.796875 
z
" id="DejaVuSans-52"/>
     <path d="M 2.984375 54.6875 
L 12.5 54.6875 
L 29.59375 8.796875 
L 46.6875 54.6875 
L 56.203125 54.6875 
L 35.6875 0 
L 23.484375 0 
z
" id="DejaVuSans-76"/>
     <path d="M 44.28125 53.078125 
L 44.28125 44.578125 
Q 40.484375 46.53125 36.375 47.5 
Q 32.28125 48.484375 27.875 48.484375 
Q 21.1875 48.484375 17.84375 46.4375 
Q 14.5 44.390625 14.5 40.28125 
Q 14.5 37.15625 16.890625 35.375 
Q 19.28125 33.59375 26.515625 31.984375 
L 29.59375 31.296875 
Q 39.15625 29.25 43.1875 25.515625 
Q 47.21875 21.78125 47.21875 15.09375 
Q 47.21875 7.46875 41.1875 3.015625 
Q 35.15625 -1.421875 24.609375 -1.421875 
Q 20.21875 -1.421875 15.453125 -0.5625 
Q 10.6875 0.296875 5.421875 2 
L 5.421875 11.28125 
Q 10.40625 8.6875 15.234375 7.390625 
Q 20.0625 6.109375 24.8125 6.109375 
Q 31.15625 6.109375 34.5625 8.28125 
Q 37.984375 10.453125 37.984375 14.40625 
Q 37.984375 18.0625 35.515625 20.015625 
Q 33.0625 21.96875 24.703125 23.78125 
L 21.578125 24.515625 
Q 13.234375 26.265625 9.515625 29.90625 
Q 5.8125 33.546875 5.8125 39.890625 
Q 5.8125 47.609375 11.28125 51.796875 
Q 16.75 56 26.8125 56 
Q 31.78125 56 36.171875 55.265625 
Q 40.578125 54.546875 44.28125 53.078125 
z
" id="DejaVuSans-73"/>
     <path d="M 48.6875 27.296875 
Q 48.6875 37.203125 44.609375 42.84375 
Q 40.53125 48.484375 33.40625 48.484375 
Q 26.265625 48.484375 22.1875 42.84375 
Q 18.109375 37.203125 18.109375 27.296875 
Q 18.109375 17.390625 22.1875 11.75 
Q 26.265625 6.109375 33.40625 6.109375 
Q 40.53125 6.109375 44.609375 11.75 
Q 48.6875 17.390625 48.6875 27.296875 
z
M 18.109375 46.390625 
Q 20.953125 51.265625 25.265625 53.625 
Q 29.59375 56 35.59375 56 
Q 45.5625 56 51.78125 48.09375 
Q 58.015625 40.1875 58.015625 27.296875 
Q 58.015625 14.40625 51.78125 6.484375 
Q 45.5625 -1.421875 35.59375 -1.421875 
Q 29.59375 -1.421875 25.265625 0.953125 
Q 20.953125 3.328125 18.109375 8.203125 
L 18.109375 0 
L 9.078125 0 
L 9.078125 75.984375 
L 18.109375 75.984375 
z
" id="DejaVuSans-62"/>
     <path d="M 32.171875 -5.078125 
Q 28.375 -14.84375 24.75 -17.8125 
Q 21.140625 -20.796875 15.09375 -20.796875 
L 7.90625 -20.796875 
L 7.90625 -13.28125 
L 13.1875 -13.28125 
Q 16.890625 -13.28125 18.9375 -11.515625 
Q 21 -9.765625 23.484375 -3.21875 
L 25.09375 0.875 
L 2.984375 54.6875 
L 12.5 54.6875 
L 29.59375 11.921875 
L 46.6875 54.6875 
L 56.203125 54.6875 
z
" id="DejaVuSans-79"/>
    </defs>
    <g style="fill:#262626;" transform="translate(341.9307 45.84)scale(0.1728 -0.1728)">
     <use xlink:href="#DejaVuSans-52"/>
     <use x="69.419922" xlink:href="#DejaVuSans-65"/>
     <use x="130.943359" xlink:href="#DejaVuSans-6c"/>
     <use x="158.726562" xlink:href="#DejaVuSans-61"/>
     <use x="220.005859" xlink:href="#DejaVuSans-74"/>
     <use x="259.214844" xlink:href="#DejaVuSans-69"/>
     <use x="286.998047" xlink:href="#DejaVuSans-76"/>
     <use x="346.177734" xlink:href="#DejaVuSans-65"/>
     <use x="407.701172" xlink:href="#DejaVuSans-20"/>
     <use x="439.488281" xlink:href="#DejaVuSans-4d"/>
     <use x="525.767578" xlink:href="#DejaVuSans-69"/>
     <use x="553.550781" xlink:href="#DejaVuSans-73"/>
     <use x="605.650391" xlink:href="#DejaVuSans-73"/>
     <use x="657.75" xlink:href="#DejaVuSans-69"/>
     <use x="685.533203" xlink:href="#DejaVuSans-62"/>
     <use x="749.009766" xlink:href="#DejaVuSans-69"/>
     <use x="776.792969" xlink:href="#DejaVuSans-6c"/>
     <use x="804.576172" xlink:href="#DejaVuSans-69"/>
     <use x="832.359375" xlink:href="#DejaVuSans-74"/>
     <use x="871.568359" xlink:href="#DejaVuSans-79"/>
     <use x="930.748047" xlink:href="#DejaVuSans-20"/>
     <use x="962.535156" xlink:href="#DejaVuSans-46"/>
     <use x="1020.007812" xlink:href="#DejaVuSans-6f"/>
     <use x="1081.189453" xlink:href="#DejaVuSans-4d"/>
    </g>
   </g>
   <g id="legend_1">
    <g id="patch_5">
     <path d="M 753.11552 327.511307 
L 833.551508 327.511307 
Q 835.550228 327.511307 835.550228 325.512587 
L 835.550228 77.14352 
Q 835.550228 75.1448 833.551508 75.1448 
L 753.11552 75.1448 
Q 751.1168 75.1448 751.1168 77.14352 
L 751.1168 325.512587 
Q 751.1168 327.511307 753.11552 327.511307 
z
" style="fill:#4c4c4c;opacity:0.5;stroke:#4c4c4c;stroke-linejoin:miter;stroke-width:0.24;"/>
    </g>
    <g id="patch_6">
     <path d="M 751.11552 325.511307 
L 831.551508 325.511307 
Q 833.550228 325.511307 833.550228 323.512587 
L 833.550228 75.14352 
Q 833.550228 73.1448 831.551508 73.1448 
L 751.11552 73.1448 
Q 749.1168 73.1448 749.1168 75.14352 
L 749.1168 323.512587 
Q 749.1168 325.511307 751.11552 325.511307 
z
" style="fill:#ffffff;stroke:#000000;stroke-linejoin:miter;stroke-width:0.24;"/>
    </g>
    <g id="line2d_46">
     <path d="M 753.11424 81.238054 
L 773.10144 81.238054 
" style="fill:none;stroke:#aec7e8;stroke-linecap:round;stroke-width:2.5;"/>
    </g>
    <g id="line2d_47"/>
    <g id="text_18">
     <!-- TC71BM -->
     <defs>
      <path d="M 0.484375 72.90625 
L 67.671875 72.90625 
L 67.671875 58.6875 
L 43.5 58.6875 
L 43.5 0 
L 24.703125 0 
L 24.703125 58.6875 
L 0.484375 58.6875 
z
" id="DejaVuSans-Bold-54"/>
      <path d="M 67 4 
Q 61.8125 1.3125 56.203125 -0.046875 
Q 50.59375 -1.421875 44.484375 -1.421875 
Q 26.265625 -1.421875 15.625 8.765625 
Q 4.984375 18.953125 4.984375 36.375 
Q 4.984375 53.859375 15.625 64.03125 
Q 26.265625 74.21875 44.484375 74.21875 
Q 50.59375 74.21875 56.203125 72.84375 
Q 61.8125 71.484375 67 68.796875 
L 67 53.71875 
Q 61.765625 57.28125 56.6875 58.9375 
Q 51.609375 60.59375 46 60.59375 
Q 35.9375 60.59375 30.171875 54.140625 
Q 24.421875 47.703125 24.421875 36.375 
Q 24.421875 25.09375 30.171875 18.640625 
Q 35.9375 12.203125 46 12.203125 
Q 51.609375 12.203125 56.6875 13.859375 
Q 61.765625 15.53125 67 19.09375 
z
" id="DejaVuSans-Bold-43"/>
      <path d="M 6.6875 72.90625 
L 61.625 72.90625 
L 61.625 62.3125 
L 33.203125 0 
L 14.890625 0 
L 41.796875 59.078125 
L 6.6875 59.078125 
z
" id="DejaVuSans-Bold-37"/>
      <path d="M 38.375 44.671875 
Q 42.828125 44.671875 45.109375 46.625 
Q 47.40625 48.578125 47.40625 52.390625 
Q 47.40625 56.15625 45.109375 58.125 
Q 42.828125 60.109375 38.375 60.109375 
L 27.984375 60.109375 
L 27.984375 44.671875 
z
M 39.015625 12.796875 
Q 44.671875 12.796875 47.53125 15.1875 
Q 50.390625 17.578125 50.390625 22.40625 
Q 50.390625 27.15625 47.5625 29.515625 
Q 44.734375 31.890625 39.015625 31.890625 
L 27.984375 31.890625 
L 27.984375 12.796875 
z
M 56.5 39.015625 
Q 62.546875 37.25 65.859375 32.515625 
Q 69.1875 27.78125 69.1875 20.90625 
Q 69.1875 10.359375 62.0625 5.171875 
Q 54.9375 0 40.375 0 
L 9.1875 0 
L 9.1875 72.90625 
L 37.40625 72.90625 
Q 52.59375 72.90625 59.40625 68.3125 
Q 66.21875 63.71875 66.21875 53.609375 
Q 66.21875 48.296875 63.71875 44.5625 
Q 61.234375 40.828125 56.5 39.015625 
z
" id="DejaVuSans-Bold-42"/>
      <path d="M 9.1875 72.90625 
L 33.109375 72.90625 
L 49.703125 33.890625 
L 66.40625 72.90625 
L 90.28125 72.90625 
L 90.28125 0 
L 72.515625 0 
L 72.515625 53.328125 
L 55.71875 14.015625 
L 43.796875 14.015625 
L 27 53.328125 
L 27 0 
L 9.1875 0 
z
" id="DejaVuSans-Bold-4d"/>
     </defs>
     <g style="fill:#262626;" transform="translate(781.09632 84.735814)scale(0.099936 -0.099936)">
      <use xlink:href="#DejaVuSans-Bold-54"/>
      <use x="68.212891" xlink:href="#DejaVuSans-Bold-43"/>
      <use x="141.601562" xlink:href="#DejaVuSans-Bold-37"/>
      <use x="211.181641" xlink:href="#DejaVuSans-Bold-31"/>
      <use x="280.761719" xlink:href="#DejaVuSans-Bold-42"/>
      <use x="356.982422" xlink:href="#DejaVuSans-Bold-4d"/>
     </g>
    </g>
    <g id="line2d_48">
     <path d="M 753.11424 95.906785 
L 773.10144 95.906785 
" style="fill:none;stroke:#ff7f0e;stroke-dasharray:9.25,4;stroke-dashoffset:0;stroke-width:2.5;"/>
    </g>
    <g id="line2d_49"/>
    <g id="text_19">
     <!-- PC71BM -->
     <defs>
      <path d="M 9.1875 72.90625 
L 40.375 72.90625 
Q 54.296875 72.90625 61.734375 66.71875 
Q 69.1875 60.546875 69.1875 49.125 
Q 69.1875 37.640625 61.734375 31.46875 
Q 54.296875 25.296875 40.375 25.296875 
L 27.984375 25.296875 
L 27.984375 0 
L 9.1875 0 
z
M 27.984375 59.28125 
L 27.984375 38.921875 
L 38.375 38.921875 
Q 43.84375 38.921875 46.828125 41.578125 
Q 49.8125 44.234375 49.8125 49.125 
Q 49.8125 54 46.828125 56.640625 
Q 43.84375 59.28125 38.375 59.28125 
z
" id="DejaVuSans-Bold-50"/>
     </defs>
     <g style="fill:#262626;" transform="translate(781.09632 99.404545)scale(0.099936 -0.099936)">
      <use xlink:href="#DejaVuSans-Bold-50"/>
      <use x="73.291016" xlink:href="#DejaVuSans-Bold-43"/>
      <use x="146.679688" xlink:href="#DejaVuSans-Bold-37"/>
      <use x="216.259766" xlink:href="#DejaVuSans-Bold-31"/>
      <use x="285.839844" xlink:href="#DejaVuSans-Bold-42"/>
      <use x="362.060547" xlink:href="#DejaVuSans-Bold-4d"/>
     </g>
    </g>
    <g id="line2d_50">
     <path d="M 753.11424 110.575516 
L 773.10144 110.575516 
" style="fill:none;stroke:#ffbb78;stroke-linecap:round;stroke-width:2.5;"/>
    </g>
    <g id="line2d_51"/>
    <g id="text_20">
     <!-- PC61MM -->
     <g style="fill:#262626;" transform="translate(781.09632 114.073276)scale(0.099936 -0.099936)">
      <use xlink:href="#DejaVuSans-Bold-50"/>
      <use x="73.291016" xlink:href="#DejaVuSans-Bold-43"/>
      <use x="146.679688" xlink:href="#DejaVuSans-Bold-36"/>
      <use x="216.259766" xlink:href="#DejaVuSans-Bold-31"/>
      <use x="285.839844" xlink:href="#DejaVuSans-Bold-4d"/>
      <use x="385.351562" xlink:href="#DejaVuSans-Bold-4d"/>
     </g>
    </g>
    <g id="line2d_52">
     <path d="M 753.11424 125.244248 
L 773.10144 125.244248 
" style="fill:none;stroke:#2ca02c;stroke-dasharray:9.25,4;stroke-dashoffset:0;stroke-width:2.5;"/>
    </g>
    <g id="line2d_53"/>
    <g id="text_21">
     <!-- PC61PM -->
     <g style="fill:#262626;" transform="translate(781.09632 128.742007)scale(0.099936 -0.099936)">
      <use xlink:href="#DejaVuSans-Bold-50"/>
      <use x="73.291016" xlink:href="#DejaVuSans-Bold-43"/>
      <use x="146.679688" xlink:href="#DejaVuSans-Bold-36"/>
      <use x="216.259766" xlink:href="#DejaVuSans-Bold-31"/>
      <use x="285.839844" xlink:href="#DejaVuSans-Bold-50"/>
      <use x="359.130859" xlink:href="#DejaVuSans-Bold-4d"/>
     </g>
    </g>
    <g id="line2d_54">
     <path d="M 753.11424 139.912978 
L 773.10144 139.912978 
" style="fill:none;stroke:#98df8a;stroke-linecap:round;stroke-width:2.5;"/>
    </g>
    <g id="line2d_55"/>
    <g id="text_22">
     <!-- PC61BM -->
     <g style="fill:#262626;" transform="translate(781.09632 143.410738)scale(0.099936 -0.099936)">
      <use xlink:href="#DejaVuSans-Bold-50"/>
      <use x="73.291016" xlink:href="#DejaVuSans-Bold-43"/>
      <use x="146.679688" xlink:href="#DejaVuSans-Bold-36"/>
      <use x="216.259766" xlink:href="#DejaVuSans-Bold-31"/>
      <use x="285.839844" xlink:href="#DejaVuSans-Bold-42"/>
      <use x="362.060547" xlink:href="#DejaVuSans-Bold-4d"/>
     </g>
    </g>
    <g id="line2d_56">
     <path d="M 753.11424 154.581709 
L 773.10144 154.581709 
" style="fill:none;stroke:#d62728;stroke-dasharray:9.25,4;stroke-dashoffset:0;stroke-width:2.5;"/>
    </g>
    <g id="line2d_57"/>
    <g id="text_23">
     <!-- PC61BE -->
     <defs>
      <path d="M 9.1875 72.90625 
L 59.90625 72.90625 
L 59.90625 58.6875 
L 27.984375 58.6875 
L 27.984375 45.125 
L 58.015625 45.125 
L 58.015625 30.90625 
L 27.984375 30.90625 
L 27.984375 14.203125 
L 60.984375 14.203125 
L 60.984375 0 
L 9.1875 0 
z
" id="DejaVuSans-Bold-45"/>
     </defs>
     <g style="fill:#262626;" transform="translate(781.09632 158.079469)scale(0.099936 -0.099936)">
      <use xlink:href="#DejaVuSans-Bold-50"/>
      <use x="73.291016" xlink:href="#DejaVuSans-Bold-43"/>
      <use x="146.679688" xlink:href="#DejaVuSans-Bold-36"/>
      <use x="216.259766" xlink:href="#DejaVuSans-Bold-31"/>
      <use x="285.839844" xlink:href="#DejaVuSans-Bold-42"/>
      <use x="362.060547" xlink:href="#DejaVuSans-Bold-45"/>
     </g>
    </g>
    <g id="line2d_58">
     <path d="M 753.11424 169.25044 
L 773.10144 169.25044 
" style="fill:none;stroke:#ff9896;stroke-linecap:round;stroke-width:2.5;"/>
    </g>
    <g id="line2d_59"/>
    <g id="text_24">
     <!-- TC61PM -->
     <g style="fill:#262626;" transform="translate(781.09632 172.7482)scale(0.099936 -0.099936)">
      <use xlink:href="#DejaVuSans-Bold-54"/>
      <use x="68.212891" xlink:href="#DejaVuSans-Bold-43"/>
      <use x="141.601562" xlink:href="#DejaVuSans-Bold-36"/>
      <use x="211.181641" xlink:href="#DejaVuSans-Bold-31"/>
      <use x="280.761719" xlink:href="#DejaVuSans-Bold-50"/>
      <use x="354.052734" xlink:href="#DejaVuSans-Bold-4d"/>
     </g>
    </g>
    <g id="line2d_60">
     <path d="M 753.11424 183.919171 
L 773.10144 183.919171 
" style="fill:none;stroke:#9467bd;stroke-dasharray:9.25,4;stroke-dashoffset:0;stroke-width:2.5;"/>
    </g>
    <g id="line2d_61"/>
    <g id="text_25">
     <!-- TC61BM -->
     <g style="fill:#262626;" transform="translate(781.09632 187.416931)scale(0.099936 -0.099936)">
      <use xlink:href="#DejaVuSans-Bold-54"/>
      <use x="68.212891" xlink:href="#DejaVuSans-Bold-43"/>
      <use x="141.601562" xlink:href="#DejaVuSans-Bold-36"/>
      <use x="211.181641" xlink:href="#DejaVuSans-Bold-31"/>
      <use x="280.761719" xlink:href="#DejaVuSans-Bold-42"/>
      <use x="356.982422" xlink:href="#DejaVuSans-Bold-4d"/>
     </g>
    </g>
    <g id="line2d_62">
     <path d="M 753.11424 198.587903 
L 773.10144 198.587903 
" style="fill:none;stroke:#8c564b;stroke-linecap:round;stroke-width:2.5;"/>
    </g>
    <g id="line2d_63"/>
    <g id="text_26">
     <!-- TFP -->
     <defs>
      <path d="M 9.1875 72.90625 
L 59.90625 72.90625 
L 59.90625 58.6875 
L 27.984375 58.6875 
L 27.984375 45.125 
L 58.015625 45.125 
L 58.015625 30.90625 
L 27.984375 30.90625 
L 27.984375 0 
L 9.1875 0 
z
" id="DejaVuSans-Bold-46"/>
     </defs>
     <g style="fill:#262626;" transform="translate(781.09632 202.085663)scale(0.099936 -0.099936)">
      <use xlink:href="#DejaVuSans-Bold-54"/>
      <use x="68.212891" xlink:href="#DejaVuSans-Bold-46"/>
      <use x="136.523438" xlink:href="#DejaVuSans-Bold-50"/>
     </g>
    </g>
    <g id="line2d_64">
     <path d="M 753.11424 213.256633 
L 773.10144 213.256633 
" style="fill:none;stroke:#c49c94;stroke-dasharray:9.25,4;stroke-dashoffset:0;stroke-width:2.5;"/>
    </g>
    <g id="line2d_65"/>
    <g id="text_27">
     <!-- PFP -->
     <g style="fill:#262626;" transform="translate(781.09632 216.754393)scale(0.099936 -0.099936)">
      <use xlink:href="#DejaVuSans-Bold-50"/>
      <use x="73.291016" xlink:href="#DejaVuSans-Bold-46"/>
      <use x="141.601562" xlink:href="#DejaVuSans-Bold-50"/>
     </g>
    </g>
    <g id="line2d_66">
     <path d="M 753.11424 227.925365 
L 773.10144 227.925365 
" style="fill:none;stroke:#e377c2;stroke-linecap:round;stroke-width:2.5;"/>
    </g>
    <g id="line2d_67"/>
    <g id="text_28">
     <!-- MOPFP -->
     <defs>
      <path d="M 42.484375 60.59375 
Q 33.890625 60.59375 29.15625 54.25 
Q 24.421875 47.90625 24.421875 36.375 
Q 24.421875 24.90625 29.15625 18.546875 
Q 33.890625 12.203125 42.484375 12.203125 
Q 51.125 12.203125 55.859375 18.546875 
Q 60.59375 24.90625 60.59375 36.375 
Q 60.59375 47.90625 55.859375 54.25 
Q 51.125 60.59375 42.484375 60.59375 
z
M 42.484375 74.21875 
Q 60.0625 74.21875 70.015625 64.15625 
Q 79.984375 54.109375 79.984375 36.375 
Q 79.984375 18.703125 70.015625 8.640625 
Q 60.0625 -1.421875 42.484375 -1.421875 
Q 24.953125 -1.421875 14.96875 8.640625 
Q 4.984375 18.703125 4.984375 36.375 
Q 4.984375 54.109375 14.96875 64.15625 
Q 24.953125 74.21875 42.484375 74.21875 
z
" id="DejaVuSans-Bold-4f"/>
     </defs>
     <g style="fill:#262626;" transform="translate(781.09632 231.423125)scale(0.099936 -0.099936)">
      <use xlink:href="#DejaVuSans-Bold-4d"/>
      <use x="99.511719" xlink:href="#DejaVuSans-Bold-4f"/>
      <use x="184.521484" xlink:href="#DejaVuSans-Bold-50"/>
      <use x="257.8125" xlink:href="#DejaVuSans-Bold-46"/>
      <use x="326.123047" xlink:href="#DejaVuSans-Bold-50"/>
     </g>
    </g>
    <g id="line2d_68">
     <path d="M 753.11424 242.594096 
L 773.10144 242.594096 
" style="fill:none;stroke:#f7b6d2;stroke-dasharray:9.25,4;stroke-dashoffset:0;stroke-width:2.5;"/>
    </g>
    <g id="line2d_69"/>
    <g id="text_29">
     <!-- ICMA -->
     <defs>
      <path d="M 9.1875 72.90625 
L 27.984375 72.90625 
L 27.984375 0 
L 9.1875 0 
z
" id="DejaVuSans-Bold-49"/>
      <path d="M 53.421875 13.28125 
L 24.03125 13.28125 
L 19.390625 0 
L 0.484375 0 
L 27.484375 72.90625 
L 49.90625 72.90625 
L 76.90625 0 
L 58.015625 0 
z
M 28.71875 26.8125 
L 48.6875 26.8125 
L 38.71875 55.8125 
z
" id="DejaVuSans-Bold-41"/>
     </defs>
     <g style="fill:#262626;" transform="translate(781.09632 246.091856)scale(0.099936 -0.099936)">
      <use xlink:href="#DejaVuSans-Bold-49"/>
      <use x="37.207031" xlink:href="#DejaVuSans-Bold-43"/>
      <use x="110.595703" xlink:href="#DejaVuSans-Bold-4d"/>
      <use x="210.107422" xlink:href="#DejaVuSans-Bold-41"/>
     </g>
    </g>
    <g id="line2d_70">
     <path d="M 753.11424 257.262827 
L 773.10144 257.262827 
" style="fill:none;stroke:#7f7f7f;stroke-linecap:round;stroke-width:2.5;"/>
    </g>
    <g id="line2d_71"/>
    <g id="text_30">
     <!-- ICMM -->
     <g style="fill:#262626;" transform="translate(781.09632 260.760587)scale(0.099936 -0.099936)">
      <use xlink:href="#DejaVuSans-Bold-49"/>
      <use x="37.207031" xlink:href="#DejaVuSans-Bold-43"/>
      <use x="110.595703" xlink:href="#DejaVuSans-Bold-4d"/>
      <use x="210.107422" xlink:href="#DejaVuSans-Bold-4d"/>
     </g>
    </g>
    <g id="line2d_72">
     <path d="M 753.11424 271.931557 
L 773.10144 271.931557 
" style="fill:none;stroke:#c7c7c7;stroke-dasharray:9.25,4;stroke-dashoffset:0;stroke-width:2.5;"/>
    </g>
    <g id="line2d_73"/>
    <g id="text_31">
     <!-- ICEM -->
     <g style="fill:#262626;" transform="translate(781.09632 275.429318)scale(0.099936 -0.099936)">
      <use xlink:href="#DejaVuSans-Bold-49"/>
      <use x="37.207031" xlink:href="#DejaVuSans-Bold-43"/>
      <use x="110.595703" xlink:href="#DejaVuSans-Bold-45"/>
      <use x="178.90625" xlink:href="#DejaVuSans-Bold-4d"/>
     </g>
    </g>
    <g id="line2d_74">
     <path d="M 753.11424 286.600288 
L 773.10144 286.600288 
" style="fill:none;stroke:#bcbd22;stroke-linecap:round;stroke-width:2.5;"/>
    </g>
    <g id="line2d_75"/>
    <g id="text_32">
     <!-- NCMA -->
     <defs>
      <path d="M 9.1875 72.90625 
L 30.171875 72.90625 
L 56.6875 22.90625 
L 56.6875 72.90625 
L 74.515625 72.90625 
L 74.515625 0 
L 53.515625 0 
L 27 50 
L 27 0 
L 9.1875 0 
z
" id="DejaVuSans-Bold-4e"/>
     </defs>
     <g style="fill:#262626;" transform="translate(781.09632 290.098049)scale(0.099936 -0.099936)">
      <use xlink:href="#DejaVuSans-Bold-4e"/>
      <use x="83.691406" xlink:href="#DejaVuSans-Bold-43"/>
      <use x="157.080078" xlink:href="#DejaVuSans-Bold-4d"/>
      <use x="256.591797" xlink:href="#DejaVuSans-Bold-41"/>
     </g>
    </g>
    <g id="line2d_76">
     <path d="M 753.11424 301.26902 
L 773.10144 301.26902 
" style="fill:none;stroke:#dbdb8d;stroke-dasharray:9.25,4;stroke-dashoffset:0;stroke-width:2.5;"/>
    </g>
    <g id="line2d_77"/>
    <g id="text_33">
     <!-- NCM -->
     <g style="fill:#262626;" transform="translate(781.09632 304.76678)scale(0.099936 -0.099936)">
      <use xlink:href="#DejaVuSans-Bold-4e"/>
      <use x="83.691406" xlink:href="#DejaVuSans-Bold-43"/>
      <use x="157.080078" xlink:href="#DejaVuSans-Bold-4d"/>
     </g>
    </g>
    <g id="line2d_78">
     <path d="M 753.11424 315.937751 
L 773.10144 315.937751 
" style="fill:none;stroke:#17becf;stroke-linecap:round;stroke-width:2.5;"/>
    </g>
    <g id="line2d_79"/>
    <g id="text_34">
     <!-- ICBA -->
     <g style="fill:#262626;" transform="translate(781.09632 319.435511)scale(0.099936 -0.099936)">
      <use xlink:href="#DejaVuSans-Bold-49"/>
      <use x="37.207031" xlink:href="#DejaVuSans-Bold-43"/>
      <use x="110.595703" xlink:href="#DejaVuSans-Bold-42"/>
      <use x="186.816406" xlink:href="#DejaVuSans-Bold-41"/>
     </g>
    </g>
   </g>
  </g>
 </g>
 <defs>
  <clipPath id="p6dfb6e4ff2">
   <rect height="326.16" width="669.6" x="108" y="51.84"/>
  </clipPath>
 </defs>
</svg>
