<?xml version="1.0" encoding="utf-8" standalone="no"?>
<!DOCTYPE svg PUBLIC "-//W3C//DTD SVG 1.1//EN"
  "http://www.w3.org/Graphics/SVG/1.1/DTD/svg11.dtd">
<!-- Created with matplotlib (http://matplotlib.org/) -->
<svg height="432pt" version="1.1" viewBox="0 0 864 432" width="864pt" xmlns="http://www.w3.org/2000/svg" xmlns:xlink="http://www.w3.org/1999/xlink">
 <defs>
  <style type="text/css">
*{stroke-linecap:butt;stroke-linejoin:round;}
  </style>
 </defs>
 <g id="figure_1">
  <g id="patch_1">
   <path d="M 0 432 
L 864 432 
L 864 0 
L 0 0 
z
" style="fill:#ffffff;"/>
  </g>
  <g id="axes_1">
   <g id="patch_2">
    <path d="M 108 378 
L 777.6 378 
L 777.6 51.84 
L 108 51.84 
z
" style="fill:#ffffff;"/>
   </g>
   <g id="matplotlib.axis_1">
    <g id="xtick_1">
     <g id="line2d_1">
      <path clip-path="url(#p9ebf103abd)" d="M 132.224861 378 
L 132.224861 51.84 
" style="fill:none;stroke:#cccccc;stroke-linecap:round;stroke-width:0.8;"/>
     </g>
     <g id="line2d_2"/>
     <g id="text_1">
      <!-- 0.0 -->
      <defs>
       <path d="M 46 36.53125 
Q 46 50.203125 43.4375 55.78125 
Q 40.875 61.375 34.8125 61.375 
Q 28.765625 61.375 26.171875 55.78125 
Q 23.578125 50.203125 23.578125 36.53125 
Q 23.578125 22.703125 26.171875 17.03125 
Q 28.765625 11.375 34.8125 11.375 
Q 40.828125 11.375 43.40625 17.03125 
Q 46 22.703125 46 36.53125 
z
M 64.796875 36.375 
Q 64.796875 18.265625 56.984375 8.421875 
Q 49.171875 -1.421875 34.8125 -1.421875 
Q 20.40625 -1.421875 12.59375 8.421875 
Q 4.78125 18.265625 4.78125 36.375 
Q 4.78125 54.546875 12.59375 64.375 
Q 20.40625 74.21875 34.8125 74.21875 
Q 49.171875 74.21875 56.984375 64.375 
Q 64.796875 54.546875 64.796875 36.375 
z
" id="DejaVuSans-Bold-30"/>
       <path d="M 10.203125 18.890625 
L 27.78125 18.890625 
L 27.78125 0 
L 10.203125 0 
z
" id="DejaVuSans-Bold-2e"/>
      </defs>
      <g style="fill:#262626;" transform="translate(121.596423 392.718125)scale(0.12 -0.12)">
       <use xlink:href="#DejaVuSans-Bold-30"/>
       <use x="69.580078" xlink:href="#DejaVuSans-Bold-2e"/>
       <use x="107.568359" xlink:href="#DejaVuSans-Bold-30"/>
      </g>
     </g>
    </g>
    <g id="xtick_2">
     <g id="line2d_3">
      <path clip-path="url(#p9ebf103abd)" d="M 256.454917 378 
L 256.454917 51.84 
" style="fill:none;stroke:#cccccc;stroke-linecap:round;stroke-width:0.8;"/>
     </g>
     <g id="line2d_4"/>
     <g id="text_2">
      <!-- 0.2 -->
      <defs>
       <path d="M 28.8125 13.8125 
L 60.890625 13.8125 
L 60.890625 0 
L 7.90625 0 
L 7.90625 13.8125 
L 34.515625 37.3125 
Q 38.09375 40.53125 39.796875 43.609375 
Q 41.5 46.6875 41.5 50 
Q 41.5 55.125 38.0625 58.25 
Q 34.625 61.375 28.90625 61.375 
Q 24.515625 61.375 19.28125 59.5 
Q 14.0625 57.625 8.109375 53.90625 
L 8.109375 69.921875 
Q 14.453125 72.015625 20.65625 73.109375 
Q 26.859375 74.21875 32.8125 74.21875 
Q 45.90625 74.21875 53.15625 68.453125 
Q 60.40625 62.703125 60.40625 52.390625 
Q 60.40625 46.4375 57.328125 41.28125 
Q 54.25 36.140625 44.390625 27.484375 
z
" id="DejaVuSans-Bold-32"/>
      </defs>
      <g style="fill:#262626;" transform="translate(245.826479 392.718125)scale(0.12 -0.12)">
       <use xlink:href="#DejaVuSans-Bold-30"/>
       <use x="69.580078" xlink:href="#DejaVuSans-Bold-2e"/>
       <use x="107.568359" xlink:href="#DejaVuSans-Bold-32"/>
      </g>
     </g>
    </g>
    <g id="xtick_3">
     <g id="line2d_5">
      <path clip-path="url(#p9ebf103abd)" d="M 380.684972 378 
L 380.684972 51.84 
" style="fill:none;stroke:#cccccc;stroke-linecap:round;stroke-width:0.8;"/>
     </g>
     <g id="line2d_6"/>
     <g id="text_3">
      <!-- 0.4 -->
      <defs>
       <path d="M 36.8125 57.421875 
L 16.21875 26.90625 
L 36.8125 26.90625 
z
M 33.6875 72.90625 
L 54.59375 72.90625 
L 54.59375 26.90625 
L 64.984375 26.90625 
L 64.984375 13.28125 
L 54.59375 13.28125 
L 54.59375 0 
L 36.8125 0 
L 36.8125 13.28125 
L 4.5 13.28125 
L 4.5 29.390625 
z
" id="DejaVuSans-Bold-34"/>
      </defs>
      <g style="fill:#262626;" transform="translate(370.056535 392.718125)scale(0.12 -0.12)">
       <use xlink:href="#DejaVuSans-Bold-30"/>
       <use x="69.580078" xlink:href="#DejaVuSans-Bold-2e"/>
       <use x="107.568359" xlink:href="#DejaVuSans-Bold-34"/>
      </g>
     </g>
    </g>
    <g id="xtick_4">
     <g id="line2d_7">
      <path clip-path="url(#p9ebf103abd)" d="M 504.915028 378 
L 504.915028 51.84 
" style="fill:none;stroke:#cccccc;stroke-linecap:round;stroke-width:0.8;"/>
     </g>
     <g id="line2d_8"/>
     <g id="text_4">
      <!-- 0.6 -->
      <defs>
       <path d="M 36.1875 35.984375 
Q 31.25 35.984375 28.78125 32.78125 
Q 26.3125 29.59375 26.3125 23.1875 
Q 26.3125 16.796875 28.78125 13.59375 
Q 31.25 10.40625 36.1875 10.40625 
Q 41.15625 10.40625 43.625 13.59375 
Q 46.09375 16.796875 46.09375 23.1875 
Q 46.09375 29.59375 43.625 32.78125 
Q 41.15625 35.984375 36.1875 35.984375 
z
M 59.421875 71 
L 59.421875 57.515625 
Q 54.78125 59.71875 50.671875 60.765625 
Q 46.578125 61.8125 42.671875 61.8125 
Q 34.28125 61.8125 29.59375 57.140625 
Q 24.90625 52.484375 24.125 43.3125 
Q 27.34375 45.703125 31.09375 46.890625 
Q 34.859375 48.09375 39.3125 48.09375 
Q 50.484375 48.09375 57.34375 41.546875 
Q 64.203125 35.015625 64.203125 24.421875 
Q 64.203125 12.703125 56.53125 5.640625 
Q 48.875 -1.421875 35.984375 -1.421875 
Q 21.78125 -1.421875 13.984375 8.171875 
Q 6.203125 17.78125 6.203125 35.40625 
Q 6.203125 53.46875 15.3125 63.796875 
Q 24.421875 74.125 40.28125 74.125 
Q 45.3125 74.125 50.046875 73.34375 
Q 54.78125 72.5625 59.421875 71 
z
" id="DejaVuSans-Bold-36"/>
      </defs>
      <g style="fill:#262626;" transform="translate(494.28659 392.718125)scale(0.12 -0.12)">
       <use xlink:href="#DejaVuSans-Bold-30"/>
       <use x="69.580078" xlink:href="#DejaVuSans-Bold-2e"/>
       <use x="107.568359" xlink:href="#DejaVuSans-Bold-36"/>
      </g>
     </g>
    </g>
    <g id="xtick_5">
     <g id="line2d_9">
      <path clip-path="url(#p9ebf103abd)" d="M 629.145083 378 
L 629.145083 51.84 
" style="fill:none;stroke:#cccccc;stroke-linecap:round;stroke-width:0.8;"/>
     </g>
     <g id="line2d_10"/>
     <g id="text_5">
      <!-- 0.8 -->
      <defs>
       <path d="M 34.8125 32.625 
Q 29.546875 32.625 26.703125 29.734375 
Q 23.875 26.859375 23.875 21.484375 
Q 23.875 16.109375 26.703125 13.25 
Q 29.546875 10.40625 34.8125 10.40625 
Q 40.046875 10.40625 42.828125 13.25 
Q 45.609375 16.109375 45.609375 21.484375 
Q 45.609375 26.90625 42.828125 29.765625 
Q 40.046875 32.625 34.8125 32.625 
z
M 21.09375 38.8125 
Q 14.453125 40.828125 11.078125 44.96875 
Q 7.71875 49.125 7.71875 55.328125 
Q 7.71875 64.546875 14.59375 69.375 
Q 21.484375 74.21875 34.8125 74.21875 
Q 48.046875 74.21875 54.921875 69.40625 
Q 61.8125 64.59375 61.8125 55.328125 
Q 61.8125 49.125 58.421875 44.96875 
Q 55.03125 40.828125 48.390625 38.8125 
Q 55.8125 36.765625 59.59375 32.15625 
Q 63.375 27.546875 63.375 20.515625 
Q 63.375 9.671875 56.171875 4.125 
Q 48.96875 -1.421875 34.8125 -1.421875 
Q 20.609375 -1.421875 13.359375 4.125 
Q 6.109375 9.671875 6.109375 20.515625 
Q 6.109375 27.546875 9.890625 32.15625 
Q 13.671875 36.765625 21.09375 38.8125 
z
M 25.484375 53.421875 
Q 25.484375 49.078125 27.90625 46.734375 
Q 30.328125 44.390625 34.8125 44.390625 
Q 39.203125 44.390625 41.59375 46.734375 
Q 44 49.078125 44 53.421875 
Q 44 57.765625 41.59375 60.078125 
Q 39.203125 62.40625 34.8125 62.40625 
Q 30.328125 62.40625 27.90625 60.0625 
Q 25.484375 57.71875 25.484375 53.421875 
z
" id="DejaVuSans-Bold-38"/>
      </defs>
      <g style="fill:#262626;" transform="translate(618.516646 392.718125)scale(0.12 -0.12)">
       <use xlink:href="#DejaVuSans-Bold-30"/>
       <use x="69.580078" xlink:href="#DejaVuSans-Bold-2e"/>
       <use x="107.568359" xlink:href="#DejaVuSans-Bold-38"/>
      </g>
     </g>
    </g>
    <g id="xtick_6">
     <g id="line2d_11">
      <path clip-path="url(#p9ebf103abd)" d="M 753.375139 378 
L 753.375139 51.84 
" style="fill:none;stroke:#cccccc;stroke-linecap:round;stroke-width:0.8;"/>
     </g>
     <g id="line2d_12"/>
     <g id="text_6">
      <!-- 1.0 -->
      <defs>
       <path d="M 11.71875 12.984375 
L 28.328125 12.984375 
L 28.328125 60.109375 
L 11.28125 56.59375 
L 11.28125 69.390625 
L 28.21875 72.90625 
L 46.09375 72.90625 
L 46.09375 12.984375 
L 62.703125 12.984375 
L 62.703125 0 
L 11.71875 0 
z
" id="DejaVuSans-Bold-31"/>
      </defs>
      <g style="fill:#262626;" transform="translate(742.746702 392.718125)scale(0.12 -0.12)">
       <use xlink:href="#DejaVuSans-Bold-31"/>
       <use x="69.580078" xlink:href="#DejaVuSans-Bold-2e"/>
       <use x="107.568359" xlink:href="#DejaVuSans-Bold-30"/>
      </g>
     </g>
    </g>
    <g id="text_7">
     <!-- Volume Fraction $\phi_{ PCE11 }$ -->
     <defs>
      <path d="M 28.609375 0 
L 0.78125 72.90625 
L 11.078125 72.90625 
L 34.1875 11.53125 
L 57.328125 72.90625 
L 67.578125 72.90625 
L 39.796875 0 
z
" id="DejaVuSans-56"/>
      <path d="M 30.609375 48.390625 
Q 23.390625 48.390625 19.1875 42.75 
Q 14.984375 37.109375 14.984375 27.296875 
Q 14.984375 17.484375 19.15625 11.84375 
Q 23.34375 6.203125 30.609375 6.203125 
Q 37.796875 6.203125 41.984375 11.859375 
Q 46.1875 17.53125 46.1875 27.296875 
Q 46.1875 37.015625 41.984375 42.703125 
Q 37.796875 48.390625 30.609375 48.390625 
z
M 30.609375 56 
Q 42.328125 56 49.015625 48.375 
Q 55.71875 40.765625 55.71875 27.296875 
Q 55.71875 13.875 49.015625 6.21875 
Q 42.328125 -1.421875 30.609375 -1.421875 
Q 18.84375 -1.421875 12.171875 6.21875 
Q 5.515625 13.875 5.515625 27.296875 
Q 5.515625 40.765625 12.171875 48.375 
Q 18.84375 56 30.609375 56 
z
" id="DejaVuSans-6f"/>
      <path d="M 9.421875 75.984375 
L 18.40625 75.984375 
L 18.40625 0 
L 9.421875 0 
z
" id="DejaVuSans-6c"/>
      <path d="M 8.5 21.578125 
L 8.5 54.6875 
L 17.484375 54.6875 
L 17.484375 21.921875 
Q 17.484375 14.15625 20.5 10.265625 
Q 23.53125 6.390625 29.59375 6.390625 
Q 36.859375 6.390625 41.078125 11.03125 
Q 45.3125 15.671875 45.3125 23.6875 
L 45.3125 54.6875 
L 54.296875 54.6875 
L 54.296875 0 
L 45.3125 0 
L 45.3125 8.40625 
Q 42.046875 3.421875 37.71875 1 
Q 33.40625 -1.421875 27.6875 -1.421875 
Q 18.265625 -1.421875 13.375 4.4375 
Q 8.5 10.296875 8.5 21.578125 
z
M 31.109375 56 
z
" id="DejaVuSans-75"/>
      <path d="M 52 44.1875 
Q 55.375 50.25 60.0625 53.125 
Q 64.75 56 71.09375 56 
Q 79.640625 56 84.28125 50.015625 
Q 88.921875 44.046875 88.921875 33.015625 
L 88.921875 0 
L 79.890625 0 
L 79.890625 32.71875 
Q 79.890625 40.578125 77.09375 44.375 
Q 74.3125 48.1875 68.609375 48.1875 
Q 61.625 48.1875 57.5625 43.546875 
Q 53.515625 38.921875 53.515625 30.90625 
L 53.515625 0 
L 44.484375 0 
L 44.484375 32.71875 
Q 44.484375 40.625 41.703125 44.40625 
Q 38.921875 48.1875 33.109375 48.1875 
Q 26.21875 48.1875 22.15625 43.53125 
Q 18.109375 38.875 18.109375 30.90625 
L 18.109375 0 
L 9.078125 0 
L 9.078125 54.6875 
L 18.109375 54.6875 
L 18.109375 46.1875 
Q 21.1875 51.21875 25.484375 53.609375 
Q 29.78125 56 35.6875 56 
Q 41.65625 56 45.828125 52.96875 
Q 50 49.953125 52 44.1875 
z
" id="DejaVuSans-6d"/>
      <path d="M 56.203125 29.59375 
L 56.203125 25.203125 
L 14.890625 25.203125 
Q 15.484375 15.921875 20.484375 11.0625 
Q 25.484375 6.203125 34.421875 6.203125 
Q 39.59375 6.203125 44.453125 7.46875 
Q 49.3125 8.734375 54.109375 11.28125 
L 54.109375 2.78125 
Q 49.265625 0.734375 44.1875 -0.34375 
Q 39.109375 -1.421875 33.890625 -1.421875 
Q 20.796875 -1.421875 13.15625 6.1875 
Q 5.515625 13.8125 5.515625 26.8125 
Q 5.515625 40.234375 12.765625 48.109375 
Q 20.015625 56 32.328125 56 
Q 43.359375 56 49.78125 48.890625 
Q 56.203125 41.796875 56.203125 29.59375 
z
M 47.21875 32.234375 
Q 47.125 39.59375 43.09375 43.984375 
Q 39.0625 48.390625 32.421875 48.390625 
Q 24.90625 48.390625 20.390625 44.140625 
Q 15.875 39.890625 15.1875 32.171875 
z
" id="DejaVuSans-65"/>
      <path id="DejaVuSans-20"/>
      <path d="M 9.8125 72.90625 
L 51.703125 72.90625 
L 51.703125 64.59375 
L 19.671875 64.59375 
L 19.671875 43.109375 
L 48.578125 43.109375 
L 48.578125 34.8125 
L 19.671875 34.8125 
L 19.671875 0 
L 9.8125 0 
z
" id="DejaVuSans-46"/>
      <path d="M 41.109375 46.296875 
Q 39.59375 47.171875 37.8125 47.578125 
Q 36.03125 48 33.890625 48 
Q 26.265625 48 22.1875 43.046875 
Q 18.109375 38.09375 18.109375 28.8125 
L 18.109375 0 
L 9.078125 0 
L 9.078125 54.6875 
L 18.109375 54.6875 
L 18.109375 46.1875 
Q 20.953125 51.171875 25.484375 53.578125 
Q 30.03125 56 36.53125 56 
Q 37.453125 56 38.578125 55.875 
Q 39.703125 55.765625 41.0625 55.515625 
z
" id="DejaVuSans-72"/>
      <path d="M 34.28125 27.484375 
Q 23.390625 27.484375 19.1875 25 
Q 14.984375 22.515625 14.984375 16.5 
Q 14.984375 11.71875 18.140625 8.90625 
Q 21.296875 6.109375 26.703125 6.109375 
Q 34.1875 6.109375 38.703125 11.40625 
Q 43.21875 16.703125 43.21875 25.484375 
L 43.21875 27.484375 
z
M 52.203125 31.203125 
L 52.203125 0 
L 43.21875 0 
L 43.21875 8.296875 
Q 40.140625 3.328125 35.546875 0.953125 
Q 30.953125 -1.421875 24.3125 -1.421875 
Q 15.921875 -1.421875 10.953125 3.296875 
Q 6 8.015625 6 15.921875 
Q 6 25.140625 12.171875 29.828125 
Q 18.359375 34.515625 30.609375 34.515625 
L 43.21875 34.515625 
L 43.21875 35.40625 
Q 43.21875 41.609375 39.140625 45 
Q 35.0625 48.390625 27.6875 48.390625 
Q 23 48.390625 18.546875 47.265625 
Q 14.109375 46.140625 10.015625 43.890625 
L 10.015625 52.203125 
Q 14.9375 54.109375 19.578125 55.046875 
Q 24.21875 56 28.609375 56 
Q 40.484375 56 46.34375 49.84375 
Q 52.203125 43.703125 52.203125 31.203125 
z
" id="DejaVuSans-61"/>
      <path d="M 48.78125 52.59375 
L 48.78125 44.1875 
Q 44.96875 46.296875 41.140625 47.34375 
Q 37.3125 48.390625 33.40625 48.390625 
Q 24.65625 48.390625 19.8125 42.84375 
Q 14.984375 37.3125 14.984375 27.296875 
Q 14.984375 17.28125 19.8125 11.734375 
Q 24.65625 6.203125 33.40625 6.203125 
Q 37.3125 6.203125 41.140625 7.25 
Q 44.96875 8.296875 48.78125 10.40625 
L 48.78125 2.09375 
Q 45.015625 0.34375 40.984375 -0.53125 
Q 36.96875 -1.421875 32.421875 -1.421875 
Q 20.0625 -1.421875 12.78125 6.34375 
Q 5.515625 14.109375 5.515625 27.296875 
Q 5.515625 40.671875 12.859375 48.328125 
Q 20.21875 56 33.015625 56 
Q 37.15625 56 41.109375 55.140625 
Q 45.0625 54.296875 48.78125 52.59375 
z
" id="DejaVuSans-63"/>
      <path d="M 18.3125 70.21875 
L 18.3125 54.6875 
L 36.8125 54.6875 
L 36.8125 47.703125 
L 18.3125 47.703125 
L 18.3125 18.015625 
Q 18.3125 11.328125 20.140625 9.421875 
Q 21.96875 7.515625 27.59375 7.515625 
L 36.8125 7.515625 
L 36.8125 0 
L 27.59375 0 
Q 17.1875 0 13.234375 3.875 
Q 9.28125 7.765625 9.28125 18.015625 
L 9.28125 47.703125 
L 2.6875 47.703125 
L 2.6875 54.6875 
L 9.28125 54.6875 
L 9.28125 70.21875 
z
" id="DejaVuSans-74"/>
      <path d="M 9.421875 54.6875 
L 18.40625 54.6875 
L 18.40625 0 
L 9.421875 0 
z
M 9.421875 75.984375 
L 18.40625 75.984375 
L 18.40625 64.59375 
L 9.421875 64.59375 
z
" id="DejaVuSans-69"/>
      <path d="M 54.890625 33.015625 
L 54.890625 0 
L 45.90625 0 
L 45.90625 32.71875 
Q 45.90625 40.484375 42.875 44.328125 
Q 39.84375 48.1875 33.796875 48.1875 
Q 26.515625 48.1875 22.3125 43.546875 
Q 18.109375 38.921875 18.109375 30.90625 
L 18.109375 0 
L 9.078125 0 
L 9.078125 54.6875 
L 18.109375 54.6875 
L 18.109375 46.1875 
Q 21.34375 51.125 25.703125 53.5625 
Q 30.078125 56 35.796875 56 
Q 45.21875 56 50.046875 50.171875 
Q 54.890625 44.34375 54.890625 33.015625 
z
" id="DejaVuSans-6e"/>
      <path d="M 51.03125 42.328125 
L 45.3125 12.984375 
L 48.78125 15.234375 
Q 53.609375 18.40625 55.328125 27.296875 
Q 56.734375 34.578125 53.609375 40.234375 
Q 52.390625 42.390625 51.03125 42.328125 
z
M 38.71875 -20.796875 
z
M 42.578125 -1.171875 
L 38.71875 -20.796875 
L 21.34375 -20.796875 
L 25.203125 -1.171875 
Q 15.09375 0.34375 10.0625 6.25 
Q 3.421875 14.15625 5.953125 27.296875 
Q 8.40625 39.84375 16.75 48.390625 
Q 22.796875 54.5 36.234375 55.71875 
L 40.1875 75.984375 
L 57.5625 75.984375 
L 53.609375 55.71875 
Q 66.609375 54.5 70.21875 48.390625 
Q 75.296875 39.84375 72.859375 27.296875 
Q 70.3125 14.15625 60.5 6.25 
Q 53.21875 0.34375 42.578125 -1.171875 
z
M 57.5625 75.984375 
z
M 27.9375 12.984375 
L 33.640625 42.328125 
Q 32.28125 42.390625 30.171875 40.234375 
Q 24.90625 34.578125 23.484375 27.296875 
Q 21.78125 18.40625 25.296875 15.234375 
z
" id="DejaVuSans-BoldOblique-3d5"/>
      <path d="M 16.3125 72.90625 
L 47.515625 72.90625 
Q 58.984375 72.90625 65.453125 67.65625 
Q 71.921875 62.40625 71.921875 53.078125 
Q 71.921875 47.359375 69.765625 42.203125 
Q 67.625 37.0625 63.625 33.203125 
Q 59.28125 29.046875 53.265625 27.171875 
Q 47.265625 25.296875 38.1875 25.296875 
L 25.78125 25.296875 
L 20.90625 0 
L 2.09375 0 
z
M 32.515625 59.28125 
L 28.515625 38.921875 
L 38.921875 38.921875 
Q 45.5625 38.921875 49.078125 42.046875 
Q 52.59375 45.171875 52.59375 51.125 
Q 52.59375 55.078125 50.078125 57.171875 
Q 47.5625 59.28125 42.828125 59.28125 
z
" id="DejaVuSans-BoldOblique-50"/>
      <path d="M 60.59375 3.421875 
Q 53.859375 1.03125 47.65625 -0.1875 
Q 41.453125 -1.421875 35.890625 -1.421875 
Q 21.1875 -1.421875 12.390625 6.640625 
Q 3.609375 14.703125 3.609375 27.984375 
Q 3.609375 36.71875 6.390625 44.453125 
Q 9.1875 52.203125 14.59375 58.59375 
Q 21 66.109375 30 70.15625 
Q 39.015625 74.21875 49.421875 74.21875 
Q 55.078125 74.21875 60.78125 72.875 
Q 66.5 71.53125 72.40625 68.796875 
L 69.390625 53.71875 
Q 64.703125 57.28125 59.953125 58.9375 
Q 55.21875 60.59375 49.8125 60.59375 
Q 38.53125 60.59375 30.90625 51.90625 
Q 23.296875 43.21875 23.296875 30.171875 
Q 23.296875 21.78125 27.984375 16.984375 
Q 32.671875 12.203125 40.921875 12.203125 
Q 45.84375 12.203125 51.390625 13.984375 
Q 56.9375 15.765625 63.8125 19.578125 
z
" id="DejaVuSans-BoldOblique-43"/>
      <path d="M 16.3125 72.90625 
L 67 72.90625 
L 64.203125 58.6875 
L 32.328125 58.6875 
L 29.6875 45.125 
L 59.71875 45.125 
L 56.890625 30.90625 
L 26.90625 30.90625 
L 23.6875 14.203125 
L 56.59375 14.203125 
L 53.90625 0 
L 2.09375 0 
z
" id="DejaVuSans-BoldOblique-45"/>
     </defs>
     <g style="fill:#262626;" transform="translate(340.848 412.34655)scale(0.1728 -0.1728)">
      <use transform="translate(0 0.015625)" xlink:href="#DejaVuSans-56"/>
      <use transform="translate(68.408203 0.015625)" xlink:href="#DejaVuSans-6f"/>
      <use transform="translate(129.589844 0.015625)" xlink:href="#DejaVuSans-6c"/>
      <use transform="translate(157.373047 0.015625)" xlink:href="#DejaVuSans-75"/>
      <use transform="translate(220.751953 0.015625)" xlink:href="#DejaVuSans-6d"/>
      <use transform="translate(318.164062 0.015625)" xlink:href="#DejaVuSans-65"/>
      <use transform="translate(379.6875 0.015625)" xlink:href="#DejaVuSans-20"/>
      <use transform="translate(411.474609 0.015625)" xlink:href="#DejaVuSans-46"/>
      <use transform="translate(468.994141 0.015625)" xlink:href="#DejaVuSans-72"/>
      <use transform="translate(510.107422 0.015625)" xlink:href="#DejaVuSans-61"/>
      <use transform="translate(571.386719 0.015625)" xlink:href="#DejaVuSans-63"/>
      <use transform="translate(626.367188 0.015625)" xlink:href="#DejaVuSans-74"/>
      <use transform="translate(665.576172 0.015625)" xlink:href="#DejaVuSans-69"/>
      <use transform="translate(693.359375 0.015625)" xlink:href="#DejaVuSans-6f"/>
      <use transform="translate(754.541016 0.015625)" xlink:href="#DejaVuSans-6e"/>
      <use transform="translate(817.919922 0.015625)" xlink:href="#DejaVuSans-20"/>
      <use transform="translate(849.707031 0.015625)" xlink:href="#DejaVuSans-BoldOblique-3d5"/>
      <use transform="translate(929.345703 -16.390625)scale(0.7)" xlink:href="#DejaVuSans-BoldOblique-50"/>
      <use transform="translate(980.649414 -16.390625)scale(0.7)" xlink:href="#DejaVuSans-BoldOblique-43"/>
      <use transform="translate(1032.021484 -16.390625)scale(0.7)" xlink:href="#DejaVuSans-BoldOblique-45"/>
      <use transform="translate(1079.838867 -16.390625)scale(0.7)" xlink:href="#DejaVuSans-Bold-31"/>
      <use transform="translate(1128.544922 -16.390625)scale(0.7)" xlink:href="#DejaVuSans-Bold-31"/>
     </g>
    </g>
   </g>
   <g id="matplotlib.axis_2">
    <g id="ytick_1">
     <g id="line2d_13">
      <path clip-path="url(#p9ebf103abd)" d="M 108 365.588547 
L 777.6 365.588547 
" style="fill:none;stroke:#cccccc;stroke-linecap:round;stroke-width:0.8;"/>
     </g>
     <g id="line2d_14"/>
     <g id="text_8">
      <!-- 0.00 -->
      <g style="fill:#262626;" transform="translate(72.79375 370.147609)scale(0.12 -0.12)">
       <use xlink:href="#DejaVuSans-Bold-30"/>
       <use x="69.580078" xlink:href="#DejaVuSans-Bold-2e"/>
       <use x="107.568359" xlink:href="#DejaVuSans-Bold-30"/>
       <use x="177.148438" xlink:href="#DejaVuSans-Bold-30"/>
      </g>
     </g>
    </g>
    <g id="ytick_2">
     <g id="line2d_15">
      <path clip-path="url(#p9ebf103abd)" d="M 108 325.784485 
L 777.6 325.784485 
" style="fill:none;stroke:#cccccc;stroke-linecap:round;stroke-width:0.8;"/>
     </g>
     <g id="line2d_16"/>
     <g id="text_9">
      <!-- 0.05 -->
      <defs>
       <path d="M 10.59375 72.90625 
L 57.328125 72.90625 
L 57.328125 59.078125 
L 25.59375 59.078125 
L 25.59375 47.796875 
Q 27.734375 48.390625 29.90625 48.703125 
Q 32.078125 49.03125 34.421875 49.03125 
Q 47.75 49.03125 55.171875 42.359375 
Q 62.59375 35.6875 62.59375 23.78125 
Q 62.59375 11.96875 54.515625 5.265625 
Q 46.4375 -1.421875 32.078125 -1.421875 
Q 25.875 -1.421875 19.796875 -0.21875 
Q 13.71875 0.984375 7.71875 3.421875 
L 7.71875 18.21875 
Q 13.671875 14.796875 19.015625 13.078125 
Q 24.359375 11.375 29.109375 11.375 
Q 35.9375 11.375 39.859375 14.71875 
Q 43.796875 18.0625 43.796875 23.78125 
Q 43.796875 29.546875 39.859375 32.859375 
Q 35.9375 36.1875 29.109375 36.1875 
Q 25.046875 36.1875 20.453125 35.125 
Q 15.875 34.078125 10.59375 31.890625 
z
" id="DejaVuSans-Bold-35"/>
      </defs>
      <g style="fill:#262626;" transform="translate(72.79375 330.343547)scale(0.12 -0.12)">
       <use xlink:href="#DejaVuSans-Bold-30"/>
       <use x="69.580078" xlink:href="#DejaVuSans-Bold-2e"/>
       <use x="107.568359" xlink:href="#DejaVuSans-Bold-30"/>
       <use x="177.148438" xlink:href="#DejaVuSans-Bold-35"/>
      </g>
     </g>
    </g>
    <g id="ytick_3">
     <g id="line2d_17">
      <path clip-path="url(#p9ebf103abd)" d="M 108 285.980423 
L 777.6 285.980423 
" style="fill:none;stroke:#cccccc;stroke-linecap:round;stroke-width:0.8;"/>
     </g>
     <g id="line2d_18"/>
     <g id="text_10">
      <!-- 0.10 -->
      <g style="fill:#262626;" transform="translate(72.79375 290.539485)scale(0.12 -0.12)">
       <use xlink:href="#DejaVuSans-Bold-30"/>
       <use x="69.580078" xlink:href="#DejaVuSans-Bold-2e"/>
       <use x="107.568359" xlink:href="#DejaVuSans-Bold-31"/>
       <use x="177.148438" xlink:href="#DejaVuSans-Bold-30"/>
      </g>
     </g>
    </g>
    <g id="ytick_4">
     <g id="line2d_19">
      <path clip-path="url(#p9ebf103abd)" d="M 108 246.176361 
L 777.6 246.176361 
" style="fill:none;stroke:#cccccc;stroke-linecap:round;stroke-width:0.8;"/>
     </g>
     <g id="line2d_20"/>
     <g id="text_11">
      <!-- 0.15 -->
      <g style="fill:#262626;" transform="translate(72.79375 250.735423)scale(0.12 -0.12)">
       <use xlink:href="#DejaVuSans-Bold-30"/>
       <use x="69.580078" xlink:href="#DejaVuSans-Bold-2e"/>
       <use x="107.568359" xlink:href="#DejaVuSans-Bold-31"/>
       <use x="177.148438" xlink:href="#DejaVuSans-Bold-35"/>
      </g>
     </g>
    </g>
    <g id="ytick_5">
     <g id="line2d_21">
      <path clip-path="url(#p9ebf103abd)" d="M 108 206.372299 
L 777.6 206.372299 
" style="fill:none;stroke:#cccccc;stroke-linecap:round;stroke-width:0.8;"/>
     </g>
     <g id="line2d_22"/>
     <g id="text_12">
      <!-- 0.20 -->
      <g style="fill:#262626;" transform="translate(72.79375 210.931361)scale(0.12 -0.12)">
       <use xlink:href="#DejaVuSans-Bold-30"/>
       <use x="69.580078" xlink:href="#DejaVuSans-Bold-2e"/>
       <use x="107.568359" xlink:href="#DejaVuSans-Bold-32"/>
       <use x="177.148438" xlink:href="#DejaVuSans-Bold-30"/>
      </g>
     </g>
    </g>
    <g id="ytick_6">
     <g id="line2d_23">
      <path clip-path="url(#p9ebf103abd)" d="M 108 166.568237 
L 777.6 166.568237 
" style="fill:none;stroke:#cccccc;stroke-linecap:round;stroke-width:0.8;"/>
     </g>
     <g id="line2d_24"/>
     <g id="text_13">
      <!-- 0.25 -->
      <g style="fill:#262626;" transform="translate(72.79375 171.127299)scale(0.12 -0.12)">
       <use xlink:href="#DejaVuSans-Bold-30"/>
       <use x="69.580078" xlink:href="#DejaVuSans-Bold-2e"/>
       <use x="107.568359" xlink:href="#DejaVuSans-Bold-32"/>
       <use x="177.148438" xlink:href="#DejaVuSans-Bold-35"/>
      </g>
     </g>
    </g>
    <g id="ytick_7">
     <g id="line2d_25">
      <path clip-path="url(#p9ebf103abd)" d="M 108 126.764175 
L 777.6 126.764175 
" style="fill:none;stroke:#cccccc;stroke-linecap:round;stroke-width:0.8;"/>
     </g>
     <g id="line2d_26"/>
     <g id="text_14">
      <!-- 0.30 -->
      <defs>
       <path d="M 46.578125 39.3125 
Q 53.953125 37.40625 57.78125 32.6875 
Q 61.625 27.984375 61.625 20.703125 
Q 61.625 9.859375 53.3125 4.21875 
Q 45.015625 -1.421875 29.109375 -1.421875 
Q 23.484375 -1.421875 17.84375 -0.515625 
Q 12.203125 0.390625 6.6875 2.203125 
L 6.6875 16.703125 
Q 11.96875 14.0625 17.15625 12.71875 
Q 22.359375 11.375 27.390625 11.375 
Q 34.859375 11.375 38.84375 13.953125 
Q 42.828125 16.546875 42.828125 21.390625 
Q 42.828125 26.375 38.75 28.9375 
Q 34.671875 31.5 26.703125 31.5 
L 19.1875 31.5 
L 19.1875 43.609375 
L 27.09375 43.609375 
Q 34.1875 43.609375 37.640625 45.828125 
Q 41.109375 48.046875 41.109375 52.59375 
Q 41.109375 56.78125 37.734375 59.078125 
Q 34.375 61.375 28.21875 61.375 
Q 23.6875 61.375 19.046875 60.34375 
Q 14.40625 59.328125 9.8125 57.328125 
L 9.8125 71.09375 
Q 15.375 72.65625 20.84375 73.4375 
Q 26.3125 74.21875 31.59375 74.21875 
Q 45.796875 74.21875 52.84375 69.546875 
Q 59.90625 64.890625 59.90625 55.515625 
Q 59.90625 49.125 56.53125 45.046875 
Q 53.171875 40.96875 46.578125 39.3125 
z
" id="DejaVuSans-Bold-33"/>
      </defs>
      <g style="fill:#262626;" transform="translate(72.79375 131.323238)scale(0.12 -0.12)">
       <use xlink:href="#DejaVuSans-Bold-30"/>
       <use x="69.580078" xlink:href="#DejaVuSans-Bold-2e"/>
       <use x="107.568359" xlink:href="#DejaVuSans-Bold-33"/>
       <use x="177.148438" xlink:href="#DejaVuSans-Bold-30"/>
      </g>
     </g>
    </g>
    <g id="ytick_8">
     <g id="line2d_27">
      <path clip-path="url(#p9ebf103abd)" d="M 108 86.960113 
L 777.6 86.960113 
" style="fill:none;stroke:#cccccc;stroke-linecap:round;stroke-width:0.8;"/>
     </g>
     <g id="line2d_28"/>
     <g id="text_15">
      <!-- 0.35 -->
      <g style="fill:#262626;" transform="translate(72.79375 91.519176)scale(0.12 -0.12)">
       <use xlink:href="#DejaVuSans-Bold-30"/>
       <use x="69.580078" xlink:href="#DejaVuSans-Bold-2e"/>
       <use x="107.568359" xlink:href="#DejaVuSans-Bold-33"/>
       <use x="177.148438" xlink:href="#DejaVuSans-Bold-35"/>
      </g>
     </g>
    </g>
    <g id="text_16">
     <!-- Figure of Merit -->
     <defs>
      <path d="M 45.40625 27.984375 
Q 45.40625 37.75 41.375 43.109375 
Q 37.359375 48.484375 30.078125 48.484375 
Q 22.859375 48.484375 18.828125 43.109375 
Q 14.796875 37.75 14.796875 27.984375 
Q 14.796875 18.265625 18.828125 12.890625 
Q 22.859375 7.515625 30.078125 7.515625 
Q 37.359375 7.515625 41.375 12.890625 
Q 45.40625 18.265625 45.40625 27.984375 
z
M 54.390625 6.78125 
Q 54.390625 -7.171875 48.1875 -13.984375 
Q 42 -20.796875 29.203125 -20.796875 
Q 24.46875 -20.796875 20.265625 -20.09375 
Q 16.0625 -19.390625 12.109375 -17.921875 
L 12.109375 -9.1875 
Q 16.0625 -11.328125 19.921875 -12.34375 
Q 23.78125 -13.375 27.78125 -13.375 
Q 36.625 -13.375 41.015625 -8.765625 
Q 45.40625 -4.15625 45.40625 5.171875 
L 45.40625 9.625 
Q 42.625 4.78125 38.28125 2.390625 
Q 33.9375 0 27.875 0 
Q 17.828125 0 11.671875 7.65625 
Q 5.515625 15.328125 5.515625 27.984375 
Q 5.515625 40.671875 11.671875 48.328125 
Q 17.828125 56 27.875 56 
Q 33.9375 56 38.28125 53.609375 
Q 42.625 51.21875 45.40625 46.390625 
L 45.40625 54.6875 
L 54.390625 54.6875 
z
" id="DejaVuSans-67"/>
      <path d="M 37.109375 75.984375 
L 37.109375 68.5 
L 28.515625 68.5 
Q 23.6875 68.5 21.796875 66.546875 
Q 19.921875 64.59375 19.921875 59.515625 
L 19.921875 54.6875 
L 34.71875 54.6875 
L 34.71875 47.703125 
L 19.921875 47.703125 
L 19.921875 0 
L 10.890625 0 
L 10.890625 47.703125 
L 2.296875 47.703125 
L 2.296875 54.6875 
L 10.890625 54.6875 
L 10.890625 58.5 
Q 10.890625 67.625 15.140625 71.796875 
Q 19.390625 75.984375 28.609375 75.984375 
z
" id="DejaVuSans-66"/>
      <path d="M 9.8125 72.90625 
L 24.515625 72.90625 
L 43.109375 23.296875 
L 61.8125 72.90625 
L 76.515625 72.90625 
L 76.515625 0 
L 66.890625 0 
L 66.890625 64.015625 
L 48.09375 14.015625 
L 38.1875 14.015625 
L 19.390625 64.015625 
L 19.390625 0 
L 9.8125 0 
z
" id="DejaVuSans-4d"/>
     </defs>
     <g style="fill:#262626;" transform="translate(65.20005 278.03655)rotate(-90)scale(0.1728 -0.1728)">
      <use xlink:href="#DejaVuSans-46"/>
      <use x="57.410156" xlink:href="#DejaVuSans-69"/>
      <use x="85.193359" xlink:href="#DejaVuSans-67"/>
      <use x="148.669922" xlink:href="#DejaVuSans-75"/>
      <use x="212.048828" xlink:href="#DejaVuSans-72"/>
      <use x="253.130859" xlink:href="#DejaVuSans-65"/>
      <use x="314.654297" xlink:href="#DejaVuSans-20"/>
      <use x="346.441406" xlink:href="#DejaVuSans-6f"/>
      <use x="407.623047" xlink:href="#DejaVuSans-66"/>
      <use x="442.828125" xlink:href="#DejaVuSans-20"/>
      <use x="474.615234" xlink:href="#DejaVuSans-4d"/>
      <use x="560.894531" xlink:href="#DejaVuSans-65"/>
      <use x="622.417969" xlink:href="#DejaVuSans-72"/>
      <use x="663.53125" xlink:href="#DejaVuSans-69"/>
      <use x="691.314453" xlink:href="#DejaVuSans-74"/>
     </g>
    </g>
   </g>
   <g id="line2d_29">
    <path clip-path="url(#p9ebf103abd)" d="M 138.436364 360.102489 
L 155.497789 345.236238 
L 171.949877 331.194466 
L 187.792629 317.960172 
L 203.026044 305.515188 
L 218.259459 293.359727 
L 232.883538 281.977321 
L 246.89828 271.346686 
L 260.303686 261.44539 
L 273.709091 251.818477 
L 286.50516 242.89784 
L 299.301229 234.252709 
L 311.487961 226.287938 
L 323.065356 218.975891 
L 334.642752 211.92352 
L 345.610811 205.49295 
L 356.57887 199.317485 
L 366.937592 193.72991 
L 377.296314 188.39083 
L 387.655037 183.311357 
L 397.404423 178.778368 
L 407.153808 174.496181 
L 416.293857 170.719199 
L 425.433907 167.181925 
L 434.573956 163.894501 
L 443.104668 161.061108 
L 451.635381 158.4639 
L 459.556757 156.272169 
L 467.478133 154.300643 
L 475.399509 152.55794 
L 483.320885 151.053131 
L 490.632924 149.883485 
L 497.944963 148.932589 
L 505.257002 148.208755 
L 512.569042 147.720719 
L 519.271744 147.488335 
L 525.974447 147.469238 
L 532.67715 147.671226 
L 539.379853 148.102481 
L 546.082555 148.771595 
L 552.175921 149.593872 
L 558.269287 150.627291 
L 564.362654 151.8793 
L 570.45602 153.357697 
L 576.549386 155.07066 
L 582.642752 157.026764 
L 588.736118 159.235005 
L 594.220147 161.445798 
L 599.704177 163.875687 
L 605.188206 166.532219 
L 610.672236 169.423294 
L 616.156265 172.557182 
L 621.640295 175.942549 
L 627.124324 179.588475 
L 632.608354 183.504484 
L 638.092383 187.700571 
L 643.576413 192.187228 
L 649.060442 196.97548 
L 654.544472 202.076915 
L 660.028501 207.503724 
L 665.512531 213.268738 
L 670.99656 219.385471 
L 676.48059 225.868168 
L 681.964619 232.731854 
L 687.448649 239.992386 
L 692.932678 247.666516 
L 698.416708 255.771951 
L 703.2914 263.353983 
L 708.166093 271.305468 
L 713.040786 279.641021 
L 717.915479 288.376039 
L 722.790172 297.526754 
L 727.664865 307.110287 
L 732.539558 317.144716 
L 737.414251 327.649136 
L 742.288943 338.643737 
L 747.163636 350.149885 
L 747.163636 350.149885 
" style="fill:none;stroke:#aec7e8;stroke-linecap:round;stroke-width:2.5;"/>
   </g>
   <g id="line2d_30">
    <path clip-path="url(#p9ebf103abd)" d="M 138.436364 360.503845 
L 156.107125 346.225543 
L 173.16855 332.714252 
L 190.229975 319.489032 
L 206.682064 307.023296 
L 222.524816 295.30159 
L 237.758231 284.307218 
L 252.38231 274.022241 
L 266.397052 264.427502 
L 280.411794 255.103066 
L 293.817199 246.450809 
L 306.613268 238.448307 
L 319.409337 230.709662 
L 331.596069 223.597714 
L 343.173464 217.086726 
L 354.75086 210.826945 
L 365.718919 205.139884 
L 376.686978 199.701267 
L 387.0457 194.804015 
L 397.404423 190.150411 
L 407.153808 186.00365 
L 416.903194 182.093567 
L 426.65258 178.431248 
L 435.792629 175.233318 
L 444.932678 172.273823 
L 453.463391 169.736399 
L 461.994103 167.425648 
L 470.524816 165.351561 
L 478.446192 163.64678 
L 486.367568 162.164155 
L 494.288943 160.913168 
L 501.600983 159.972669 
L 508.913022 159.246411 
L 516.225061 158.743181 
L 523.537101 158.472251 
L 530.239803 158.436324 
L 536.942506 158.611773 
L 543.645209 159.006974 
L 550.347912 159.630752 
L 557.050614 160.492408 
L 563.14398 161.490404 
L 569.237346 162.700865 
L 575.330713 164.131954 
L 581.424079 165.792256 
L 587.517445 167.690811 
L 593.610811 169.837138 
L 599.704177 172.241271 
L 605.188206 174.634149 
L 610.672236 177.252534 
L 616.156265 180.104957 
L 621.640295 183.200383 
L 627.124324 186.548241 
L 632.608354 190.158454 
L 638.092383 194.041472 
L 643.576413 198.208311 
L 649.060442 202.670582 
L 654.544472 207.440542 
L 660.028501 212.531136 
L 665.512531 217.956043 
L 670.99656 223.729733 
L 675.871253 229.16707 
L 680.745946 234.903437 
L 685.620639 240.950799 
L 690.495332 247.321767 
L 695.370025 254.029646 
L 700.244717 261.088476 
L 705.11941 268.513092 
L 709.994103 276.319175 
L 714.868796 284.523317 
L 719.743489 293.143084 
L 724.618182 302.197092 
L 729.492875 311.705088 
L 734.367568 321.68803 
L 739.24226 332.168191 
L 744.116953 343.169255 
L 747.163636 350.320578 
L 747.163636 350.320578 
" style="fill:none;stroke:#ff7f0e;stroke-dasharray:9.25,4;stroke-dashoffset:0;stroke-width:2.5;"/>
   </g>
   <g id="line2d_31">
    <path clip-path="url(#p9ebf103abd)" d="M 138.436364 360.106197 
L 154.279115 346.335055 
L 169.512531 333.3911 
L 184.136609 321.251777 
L 198.760688 309.406062 
L 212.77543 298.341609 
L 226.180835 288.033165 
L 239.586241 278.005085 
L 252.38231 268.705393 
L 265.178378 259.683135 
L 277.365111 251.359099 
L 289.551843 243.3079 
L 301.129238 235.922177 
L 312.706634 228.802931 
L 323.674693 222.313853 
L 334.642752 216.083063 
L 345.001474 210.444636 
L 355.360197 205.054445 
L 365.718919 199.921831 
L 375.468305 195.335213 
L 385.21769 190.99404 
L 394.967076 186.907323 
L 404.107125 183.315527 
L 413.247174 179.963853 
L 422.387224 176.860861 
L 430.917936 174.197007 
L 439.448649 171.76523 
L 447.979361 169.573515 
L 455.900737 167.760604 
L 463.822113 166.168882 
L 471.743489 164.805649 
L 479.664865 163.678534 
L 486.976904 162.854578 
L 494.288943 162.245139 
L 501.600983 161.857037 
L 508.913022 161.697384 
L 516.225061 161.773599 
L 522.927764 162.057275 
L 529.630467 162.551867 
L 536.33317 163.263847 
L 543.035872 164.199955 
L 549.738575 165.367212 
L 556.441278 166.772935 
L 563.14398 168.424754 
L 569.237346 170.146652 
L 575.330713 172.084736 
L 581.424079 174.245482 
L 587.517445 176.635627 
L 593.610811 179.262185 
L 599.704177 182.132455 
L 605.797543 185.254042 
L 611.890909 188.634871 
L 617.984275 192.283203 
L 624.077641 196.207654 
L 630.171007 200.417213 
L 636.264373 204.921265 
L 642.35774 209.729611 
L 648.451106 214.852491 
L 653.935135 219.740848 
L 659.419165 224.900787 
L 664.903194 230.340789 
L 670.387224 236.069696 
L 675.871253 242.096722 
L 681.355283 248.431478 
L 686.839312 255.083996 
L 692.323342 262.064744 
L 697.807371 269.384658 
L 703.2914 277.055165 
L 708.77543 285.088209 
L 714.259459 293.496286 
L 719.743489 302.29247 
L 725.227518 311.490451 
L 730.711548 321.104572 
L 736.195577 331.149864 
L 741.679607 341.642094 
L 747.163636 352.597803 
L 747.163636 352.597803 
" style="fill:none;stroke:#ffbb78;stroke-linecap:round;stroke-width:2.5;"/>
   </g>
   <g id="line2d_32">
    <path clip-path="url(#p9ebf103abd)" d="M 138.436364 359.364283 
L 153.669779 344.314634 
L 168.903194 329.581832 
L 183.527273 315.750198 
L 197.542015 302.794616 
L 211.556757 290.145583 
L 224.962162 278.346068 
L 237.758231 267.368046 
L 250.5543 256.680488 
L 262.741032 246.783279 
L 274.927764 237.172157 
L 286.50516 228.317485 
L 298.082555 219.742657 
L 309.050614 211.887628 
L 320.018673 204.304257 
L 330.377396 197.401337 
L 340.736118 190.759901 
L 351.09484 184.389998 
L 360.844226 178.652295 
L 370.593612 173.173735 
L 379.733661 168.28158 
L 388.87371 163.634132 
L 398.013759 159.240199 
L 406.544472 155.376062 
L 415.075184 151.748669 
L 423.605897 148.366249 
L 431.527273 145.452305 
L 439.448649 142.764224 
L 447.370025 140.30954 
L 455.2914 138.096123 
L 462.60344 136.274224 
L 469.915479 134.671669 
L 477.227518 133.295507 
L 484.539558 132.153091 
L 491.851597 131.252098 
L 498.5543 130.645108 
L 505.257002 130.254149 
L 511.959705 130.085925 
L 518.662408 130.147421 
L 525.365111 130.445915 
L 531.458477 130.929316 
L 537.551843 131.620791 
L 543.645209 132.526512 
L 549.738575 133.652898 
L 555.831941 135.006627 
L 561.925307 136.594649 
L 568.018673 138.4242 
L 574.112039 140.502818 
L 580.205405 142.838356 
L 585.689435 145.166768 
L 591.173464 147.716126 
L 596.657494 150.492883 
L 602.141523 153.503747 
L 607.625553 156.755692 
L 613.109582 160.255972 
L 618.593612 164.012135 
L 624.077641 168.032038 
L 629.561671 172.323863 
L 635.0457 176.896134 
L 640.52973 181.757734 
L 646.013759 186.917926 
L 651.497789 192.386374 
L 656.981818 198.173162 
L 662.465848 204.288819 
L 667.949877 210.744342 
L 673.433907 217.551227 
L 678.917936 224.721493 
L 684.401966 232.267712 
L 689.885995 240.203045 
L 695.370025 248.541272 
L 700.854054 257.296834 
L 706.338084 266.48487 
L 711.822113 276.121258 
L 717.306143 286.222667 
L 722.790172 296.806597 
L 728.274201 307.891443 
L 733.758231 319.496543 
L 739.24226 331.642246 
L 744.72629 344.349975 
L 747.163636 350.184117 
L 747.163636 350.184117 
" style="fill:none;stroke:#2ca02c;stroke-dasharray:9.25,4;stroke-dashoffset:0;stroke-width:2.5;"/>
   </g>
   <g id="line2d_33">
    <path clip-path="url(#p9ebf103abd)" d="M 138.436364 358.338768 
L 154.279115 340.079748 
L 169.512531 322.850134 
L 184.745946 305.957916 
L 199.370025 290.075145 
L 213.384767 275.176563 
L 226.790172 261.235638 
L 240.195577 247.61253 
L 252.991646 234.919405 
L 265.787715 222.544421 
L 277.974447 211.068511 
L 289.551843 200.459361 
L 301.129238 190.14869 
L 312.097297 180.668321 
L 323.065356 171.480278 
L 333.424079 163.082779 
L 343.782801 154.969155 
L 353.532187 147.603066 
L 363.281572 140.510035 
L 373.030958 133.701431 
L 382.171007 127.587351 
L 391.311057 121.744245 
L 399.841769 116.544859 
L 408.372482 111.600524 
L 416.903194 106.921152 
L 424.82457 102.82238 
L 432.745946 98.969837 
L 440.667322 95.37274 
L 447.979361 92.287436 
L 455.2914 89.436025 
L 462.60344 86.826877 
L 469.915479 84.468769 
L 476.618182 82.535552 
L 483.320885 80.828432 
L 490.023587 79.355171 
L 496.72629 78.123896 
L 502.819656 77.221691 
L 508.913022 76.533176 
L 515.006388 76.06532 
L 521.099754 75.825399 
L 527.19312 75.82101 
L 533.286486 76.060095 
L 538.770516 76.490294 
L 544.254545 77.130741 
L 549.738575 77.988013 
L 555.222604 79.068967 
L 560.706634 80.380752 
L 566.190663 81.930822 
L 571.674693 83.726959 
L 577.158722 85.777285 
L 582.642752 88.090285 
L 587.517445 90.37396 
L 592.392138 92.878673 
L 597.26683 95.611184 
L 602.141523 98.57853 
L 607.016216 101.788039 
L 611.890909 105.247352 
L 616.765602 108.96443 
L 621.640295 112.947578 
L 626.514988 117.205462 
L 631.389681 121.747128 
L 636.264373 126.582024 
L 641.139066 131.720021 
L 646.013759 137.171439 
L 650.888452 142.947072 
L 655.763145 149.058214 
L 660.637838 155.516692 
L 665.512531 162.334893 
L 670.387224 169.525802 
L 675.261916 177.103036 
L 680.136609 185.080883 
L 685.011302 193.474345 
L 689.885995 202.299183 
L 694.760688 211.571964 
L 699.635381 221.310114 
L 704.510074 231.531977 
L 709.384767 242.256871 
L 714.259459 253.50516 
L 719.134152 265.298318 
L 724.008845 277.659014 
L 728.883538 290.611189 
L 733.758231 304.180152 
L 738.632924 318.392677 
L 743.507617 333.277108 
L 747.163636 344.899371 
L 747.163636 344.899371 
" style="fill:none;stroke:#98df8a;stroke-linecap:round;stroke-width:2.5;"/>
   </g>
   <g id="line2d_34">
    <path clip-path="url(#p9ebf103abd)" d="M 138.436364 357.862021 
L 153.669779 339.165032 
L 168.293857 321.5654 
L 182.3086 305.035317 
L 196.323342 288.849457 
L 209.728747 273.704045 
L 222.524816 259.567902 
L 235.320885 245.75891 
L 247.507617 232.924766 
L 259.694349 220.413491 
L 271.271744 208.839461 
L 282.84914 197.581895 
L 293.817199 187.220766 
L 304.785258 177.16747 
L 315.14398 167.966645 
L 325.502703 159.062723 
L 335.252088 150.964272 
L 345.001474 143.149479 
L 354.75086 135.629144 
L 363.890909 128.856349 
L 373.030958 122.362158 
L 381.561671 116.561366 
L 390.092383 111.021038 
L 398.623096 105.750376 
L 406.544472 101.106072 
L 414.465848 96.710674 
L 422.387224 92.572625 
L 430.3086 88.700756 
L 437.620639 85.370958 
L 444.932678 82.283424 
L 452.244717 79.446077 
L 458.94742 77.072017 
L 465.650123 74.921776 
L 472.352826 73.002271 
L 479.055528 71.320708 
L 485.758231 69.884596 
L 491.851597 68.798616 
L 497.944963 67.928076 
L 504.038329 67.27934 
L 510.131695 66.859024 
L 516.225061 66.674011 
L 522.318428 66.731463 
L 527.802457 66.996632 
L 533.286486 67.46988 
L 538.770516 68.157068 
L 544.254545 69.064278 
L 549.738575 70.197826 
L 555.222604 71.56427 
L 560.706634 73.170425 
L 566.190663 75.023377 
L 571.674693 77.130489 
L 577.158722 79.499425 
L 582.642752 82.138156 
L 587.517445 84.716891 
L 592.392138 87.521409 
L 597.26683 90.557989 
L 602.141523 93.833148 
L 607.016216 97.35365 
L 611.890909 101.126515 
L 616.765602 105.159035 
L 621.640295 109.458784 
L 626.514988 114.033635 
L 631.389681 118.891772 
L 636.264373 124.041709 
L 641.139066 129.492303 
L 646.013759 135.252773 
L 650.888452 141.332718 
L 655.763145 147.742141 
L 660.637838 154.491464 
L 665.512531 161.591554 
L 670.387224 169.053745 
L 675.261916 176.889868 
L 680.136609 185.112272 
L 685.011302 193.733857 
L 689.885995 202.768103 
L 694.760688 212.229105 
L 699.635381 222.131607 
L 704.510074 232.49104 
L 709.384767 243.323562 
L 714.259459 254.646102 
L 719.134152 266.476408 
L 724.008845 278.833095 
L 728.883538 291.735697 
L 733.758231 305.204728 
L 738.632924 319.261745 
L 743.507617 333.92941 
L 747.163636 345.345193 
L 747.163636 345.345193 
" style="fill:none;stroke:#d62728;stroke-dasharray:9.25,4;stroke-dashoffset:0;stroke-width:2.5;"/>
   </g>
   <g id="line2d_35">
    <path clip-path="url(#p9ebf103abd)" d="M 138.436364 360.506244 
L 155.497789 346.747128 
L 171.949877 333.769759 
L 187.792629 321.556733 
L 203.026044 310.089545 
L 217.650123 299.348616 
L 232.274201 288.882937 
L 246.288943 279.12441 
L 259.694349 270.050567 
L 273.099754 261.243617 
L 285.895823 253.097783 
L 298.691892 245.218786 
L 310.878624 237.974648 
L 323.065356 230.995666 
L 334.642752 224.622484 
L 346.220147 218.511003 
L 357.188206 212.973386 
L 368.156265 207.692104 
L 378.514988 202.949854 
L 388.87371 198.45656 
L 398.623096 194.464607 
L 408.372482 190.71215 
L 417.512531 187.420606 
L 426.65258 184.357006 
L 435.792629 181.53049 
L 444.323342 179.114804 
L 452.854054 176.922282 
L 461.384767 174.961603 
L 469.915479 173.241898 
L 477.836855 171.869201 
L 485.758231 170.720672 
L 493.679607 169.804824 
L 500.991646 169.173677 
L 508.303686 168.755798 
L 515.615725 168.558932 
L 522.927764 168.591204 
L 530.239803 168.861144 
L 536.942506 169.325016 
L 543.645209 170.003351 
L 550.347912 170.903726 
L 557.050614 172.034077 
L 563.753317 173.402724 
L 570.45602 175.018393 
L 576.549386 176.709238 
L 582.642752 178.619003 
L 588.736118 180.755228 
L 594.829484 183.125801 
L 600.92285 185.738982 
L 607.016216 188.603423 
L 613.109582 191.728192 
L 619.202948 195.122801 
L 625.296314 198.797228 
L 630.780344 202.352106 
L 636.264373 206.150121 
L 641.748403 210.199644 
L 647.232432 214.509435 
L 652.716462 219.088666 
L 658.200491 223.946945 
L 663.684521 229.094341 
L 669.16855 234.541416 
L 674.65258 240.299249 
L 680.136609 246.379476 
L 685.620639 252.794319 
L 691.104668 259.556625 
L 696.588698 266.679909 
L 702.072727 274.178395 
L 707.556757 282.067066 
L 713.040786 290.36171 
L 718.524816 299.078983 
L 724.008845 308.23646 
L 729.492875 317.852707 
L 734.976904 327.94735 
L 740.460934 338.541148 
L 745.944963 349.656079 
L 747.163636 352.199151 
L 747.163636 352.199151 
" style="fill:none;stroke:#ff9896;stroke-linecap:round;stroke-width:2.5;"/>
   </g>
   <g id="line2d_36">
    <path clip-path="url(#p9ebf103abd)" d="M 138.436364 360.603973 
L 155.497789 347.104465 
L 171.949877 334.364829 
L 187.792629 322.368637 
L 203.635381 310.653159 
L 218.868796 299.66702 
L 233.492875 289.390912 
L 247.507617 279.804429 
L 261.522359 270.486778 
L 274.927764 261.838355 
L 288.33317 253.461087 
L 301.129238 245.730015 
L 313.315971 238.619793 
L 325.502703 231.76787 
L 337.080098 225.508994 
L 348.657494 219.505551 
L 359.625553 214.064489 
L 370.593612 208.874119 
L 380.952334 204.21256 
L 391.311057 199.794959 
L 401.060442 195.869719 
L 410.809828 192.179633 
L 420.559214 188.734752 
L 429.699263 185.737319 
L 438.839312 182.973992 
L 447.979361 180.454545 
L 456.510074 178.332193 
L 465.040786 176.440131 
L 473.571499 174.787694 
L 481.492875 173.47645 
L 489.414251 172.388611 
L 497.335627 171.532916 
L 504.647666 170.957038 
L 511.959705 170.594404 
L 519.271744 170.453004 
L 526.583784 170.541227 
L 533.895823 170.867897 
L 540.598526 171.384729 
L 547.301229 172.117221 
L 554.003931 173.073243 
L 560.706634 174.261056 
L 567.409337 175.68933 
L 573.502703 177.204084 
L 579.596069 178.932268 
L 585.689435 180.881396 
L 591.782801 183.059339 
L 597.876167 185.474348 
L 603.969533 188.135073 
L 610.062899 191.050592 
L 616.156265 194.230434 
L 622.249631 197.684612 
L 627.733661 201.036614 
L 633.21769 204.627393 
L 638.70172 208.465374 
L 644.185749 212.559386 
L 649.669779 216.918681 
L 655.153808 221.552964 
L 660.637838 226.472418 
L 666.121867 231.687737 
L 671.605897 237.210154 
L 677.089926 243.05148 
L 682.573956 249.224138 
L 688.057985 255.741205 
L 693.542015 262.616456 
L 699.026044 269.864411 
L 704.510074 277.500385 
L 709.994103 285.540542 
L 715.478133 294.001959 
L 720.962162 302.902687 
L 726.446192 312.261825 
L 731.930221 322.099593 
L 737.414251 332.437421 
L 742.89828 343.298036 
L 747.163636 352.122004 
L 747.163636 352.122004 
" style="fill:none;stroke:#9467bd;stroke-dasharray:9.25,4;stroke-dashoffset:0;stroke-width:2.5;"/>
   </g>
   <g id="line2d_37">
    <path clip-path="url(#p9ebf103abd)" d="M 138.436364 361.667187 
L 155.497789 351.074222 
L 171.949877 341.116168 
L 188.401966 331.422278 
L 204.244717 322.349109 
L 219.478133 313.878574 
L 234.102211 305.99171 
L 248.72629 298.355718 
L 262.741032 291.283976 
L 276.755774 284.46401 
L 290.161179 278.186692 
L 303.566585 272.160789 
L 316.362654 266.653639 
L 328.549386 261.640684 
L 340.736118 256.863624 
L 352.92285 252.332439 
L 364.500246 248.265162 
L 376.077641 244.438867 
L 387.0457 241.045389 
L 398.013759 237.886303 
L 408.372482 235.12654 
L 418.731204 232.592833 
L 429.089926 230.294098 
L 438.839312 228.353633 
L 448.588698 226.637866 
L 458.338084 225.15546 
L 467.478133 223.985743 
L 476.618182 223.037029 
L 485.758231 222.317607 
L 494.288943 221.860695 
L 502.819656 221.618533 
L 511.350369 221.598911 
L 519.881081 221.810001 
L 527.802457 222.220083 
L 535.723833 222.843683 
L 543.645209 223.688338 
L 551.566585 224.761943 
L 559.487961 226.072775 
L 566.8 227.50083 
L 574.112039 229.145561 
L 581.424079 231.014447 
L 588.736118 233.115317 
L 596.048157 235.456367 
L 603.360197 238.046184 
L 610.062899 240.646399 
L 616.765602 243.470464 
L 623.468305 246.525964 
L 630.171007 249.820832 
L 636.87371 253.363365 
L 643.576413 257.16225 
L 650.279115 261.226585 
L 656.981818 265.565903 
L 663.684521 270.190198 
L 670.387224 275.109957 
L 676.48059 279.84811 
L 682.573956 284.848203 
L 688.667322 290.1193 
L 694.760688 295.670889 
L 700.854054 301.512906 
L 706.94742 307.655763 
L 713.040786 314.110375 
L 719.134152 320.88819 
L 725.227518 328.001226 
L 731.320885 335.462101 
L 737.414251 343.284079 
L 743.507617 351.481103 
L 747.163636 356.585411 
L 747.163636 356.585411 
" style="fill:none;stroke:#8c564b;stroke-linecap:round;stroke-width:2.5;"/>
   </g>
   <g id="line2d_38">
    <path clip-path="url(#p9ebf103abd)" d="M 138.436364 362.9666 
L 158.544472 354.636101 
L 178.043243 346.797887 
L 196.932678 339.442849 
L 215.212776 332.56104 
L 232.883538 326.14166 
L 249.944963 320.173037 
L 267.006388 314.442197 
L 283.458477 309.153544 
L 299.301229 304.29314 
L 314.534644 299.846116 
L 329.768059 295.632801 
L 344.392138 291.819373 
L 358.40688 288.388486 
L 372.421622 285.187661 
L 385.827027 282.35213 
L 399.232432 279.748863 
L 412.028501 277.491375 
L 424.215233 275.558047 
L 436.401966 273.846277 
L 447.979361 272.435023 
L 459.556757 271.243075 
L 471.134152 270.280771 
L 482.102211 269.590904 
L 493.07027 269.12695 
L 503.428993 268.905715 
L 513.787715 268.904846 
L 524.146437 269.134358 
L 533.895823 269.570332 
L 543.645209 270.229192 
L 553.394595 271.120897 
L 562.534644 272.177724 
L 571.674693 273.457696 
L 580.814742 274.97057 
L 589.345455 276.601823 
L 597.876167 278.453844 
L 606.40688 280.536025 
L 614.937592 282.8583 
L 622.858968 285.23886 
L 630.780344 287.844395 
L 638.70172 290.684297 
L 646.623096 293.768488 
L 654.544472 297.10746 
L 661.856511 300.425312 
L 669.16855 303.978929 
L 676.48059 307.778042 
L 683.792629 311.832926 
L 691.104668 316.154437 
L 698.416708 320.754054 
L 705.11941 325.225039 
L 711.822113 329.949794 
L 718.524816 334.938745 
L 725.227518 340.202898 
L 731.930221 345.753879 
L 738.632924 351.603976 
L 745.335627 357.766193 
L 747.163636 359.502757 
L 747.163636 359.502757 
" style="fill:none;stroke:#c49c94;stroke-dasharray:9.25,4;stroke-dashoffset:0;stroke-width:2.5;"/>
   </g>
   <g id="line2d_39">
    <path clip-path="url(#p9ebf103abd)" d="M 138.436364 362.63665 
L 158.544472 353.238808 
L 178.043243 344.367652 
L 196.932678 336.015115 
L 215.212776 328.172246 
L 232.883538 320.829168 
L 249.944963 313.975061 
L 266.397052 307.598133 
L 282.84914 301.462853 
L 298.691892 295.796611 
L 313.925307 290.585091 
L 328.549386 285.812913 
L 342.564128 281.463656 
L 356.57887 277.34583 
L 369.984275 273.63543 
L 383.389681 270.16058 
L 396.185749 267.075299 
L 408.372482 264.358481 
L 420.559214 261.869154 
L 432.136609 259.725888 
L 443.714005 257.809679 
L 454.682064 256.214378 
L 465.650123 254.844012 
L 476.008845 253.766538 
L 486.367568 252.910025 
L 496.72629 252.285343 
L 506.475676 251.919559 
L 516.225061 251.779702 
L 525.365111 251.863517 
L 534.50516 252.165149 
L 543.645209 252.69481 
L 552.175921 253.404467 
L 560.706634 254.331601 
L 569.237346 255.486166 
L 577.768059 256.878733 
L 585.689435 258.39475 
L 593.610811 260.135214 
L 601.532187 262.110249 
L 608.844226 264.150835 
L 616.156265 266.40939 
L 623.468305 268.895383 
L 630.780344 271.61884 
L 638.092383 274.590385 
L 644.795086 277.541852 
L 651.497789 280.720431 
L 658.200491 284.135835 
L 664.903194 287.79834 
L 671.605897 291.718823 
L 678.3086 295.908809 
L 685.011302 300.380522 
L 691.104668 304.70109 
L 697.198034 309.275527 
L 703.2914 314.114751 
L 709.384767 319.230312 
L 715.478133 324.634445 
L 721.571499 330.340118 
L 727.664865 336.361086 
L 733.758231 342.711954 
L 739.851597 349.408245 
L 745.944963 356.466468 
L 747.163636 357.923072 
L 747.163636 357.923072 
" style="fill:none;stroke:#e377c2;stroke-linecap:round;stroke-width:2.5;"/>
   </g>
   <g id="line2d_40">
    <path clip-path="url(#p9ebf103abd)" d="M 138.436364 363.174545 
L 159.763145 355.042025 
L 180.48059 347.384048 
L 199.979361 340.408222 
L 218.868796 333.877767 
L 237.758231 327.584643 
L 256.038329 321.734162 
L 273.709091 316.316271 
L 290.770516 311.319979 
L 307.222604 306.733343 
L 323.065356 302.543459 
L 338.298771 298.736456 
L 353.532187 295.158977 
L 368.156265 291.952488 
L 382.171007 289.100561 
L 396.185749 286.476619 
L 409.591155 284.191527 
L 422.99656 282.138013 
L 435.792629 280.405325 
L 447.979361 278.972512 
L 460.166093 277.762672 
L 471.743489 276.830295 
L 483.320885 276.120008 
L 494.288943 275.662123 
L 505.257002 275.423794 
L 516.225061 275.415858 
L 526.583784 275.630324 
L 536.942506 276.070989 
L 546.691892 276.702261 
L 556.441278 277.55351 
L 566.190663 278.63517 
L 575.330713 279.868353 
L 584.470762 281.323529 
L 593.610811 283.011029 
L 602.141523 284.805316 
L 610.672236 286.821026 
L 619.202948 289.068213 
L 627.733661 291.557552 
L 635.655037 294.095805 
L 643.576413 296.862255 
L 651.497789 299.86711 
L 659.419165 303.121195 
L 666.731204 306.356101 
L 674.043243 309.822732 
L 681.355283 313.531225 
L 688.667322 317.492317 
L 695.979361 321.717392 
L 703.2914 326.218527 
L 709.994103 330.598018 
L 716.696806 335.230718 
L 723.399509 340.127708 
L 730.102211 345.300731 
L 736.804914 350.762232 
L 743.507617 356.525417 
L 747.163636 359.801109 
L 747.163636 359.801109 
" style="fill:none;stroke:#f7b6d2;stroke-dasharray:9.25,4;stroke-dashoffset:0;stroke-width:2.5;"/>
   </g>
   <g id="line2d_41">
    <path clip-path="url(#p9ebf103abd)" d="M 138.436364 361.355905 
L 156.107125 349.495713 
L 173.16855 338.309541 
L 189.620639 327.782905 
L 205.463391 317.900309 
L 221.306143 308.280287 
L 236.539558 299.290878 
L 251.163636 290.913914 
L 265.787715 282.7974 
L 279.802457 275.2759 
L 293.207862 268.328436 
L 306.613268 261.634464 
L 319.409337 255.492782 
L 331.596069 249.879602 
L 343.782801 244.507585 
L 355.360197 239.637906 
L 366.937592 235.00651 
L 377.905651 230.848638 
L 388.87371 226.924425 
L 399.841769 223.24439 
L 410.200491 220.003061 
L 420.559214 216.999452 
L 430.3086 214.399132 
L 440.057985 212.028051 
L 449.807371 209.896059 
L 458.94742 208.123716 
L 468.087469 206.579739 
L 476.618182 205.353178 
L 485.148894 204.342112 
L 493.679607 203.555201 
L 502.210319 203.001572 
L 510.131695 202.704784 
L 518.053071 202.625568 
L 525.974447 202.772477 
L 533.895823 203.154517 
L 541.207862 203.724064 
L 548.519902 204.509895 
L 555.831941 205.520265 
L 563.14398 206.763855 
L 570.45602 208.249798 
L 577.158722 209.833017 
L 583.861425 211.635741 
L 590.564128 213.666145 
L 597.26683 215.932813 
L 603.969533 218.444765 
L 610.672236 221.21149 
L 616.765602 223.956168 
L 622.858968 226.927522 
L 628.952334 230.133813 
L 635.0457 233.583708 
L 641.139066 237.286304 
L 647.232432 241.251161 
L 653.325799 245.488321 
L 659.419165 250.008351 
L 665.512531 254.822369 
L 671.605897 259.942084 
L 677.699263 265.379835 
L 683.183292 270.556471 
L 688.667322 276.01123 
L 694.151351 281.754597 
L 699.635381 287.797588 
L 705.11941 294.151791 
L 710.60344 300.829396 
L 716.087469 307.84324 
L 721.571499 315.206849 
L 727.055528 322.934481 
L 732.539558 331.041185 
L 738.023587 339.542845 
L 743.507617 348.456251 
L 747.163636 354.635993 
L 747.163636 354.635993 
" style="fill:none;stroke:#7f7f7f;stroke-linecap:round;stroke-width:2.5;"/>
   </g>
   <g id="line2d_42">
    <path clip-path="url(#p9ebf103abd)" d="M 138.436364 361.533721 
L 156.716462 349.780213 
L 174.387224 338.684765 
L 191.448649 328.234541 
L 207.900737 318.415674 
L 223.743489 309.213255 
L 238.976904 300.611344 
L 254.210319 292.26416 
L 268.834398 284.503267 
L 282.84914 277.309979 
L 296.863882 270.368178 
L 310.269287 263.975623 
L 323.065356 258.110769 
L 335.861425 252.489114 
L 348.048157 247.372384 
L 360.234889 242.49848 
L 371.812285 238.104057 
L 383.389681 233.950459 
L 394.35774 230.248124 
L 405.325799 226.782829 
L 415.684521 223.737744 
L 426.043243 220.924007 
L 435.792629 218.496586 
L 445.542015 216.292814 
L 455.2914 214.322593 
L 464.43145 212.696948 
L 473.571499 211.29495 
L 482.711548 210.126284 
L 491.24226 209.255082 
L 499.772973 208.604879 
L 508.303686 208.184983 
L 516.225061 208.009892 
L 524.146437 208.050176 
L 532.067813 208.314604 
L 539.989189 208.812426 
L 547.301229 209.487544 
L 554.613268 210.377942 
L 561.925307 211.492147 
L 569.237346 212.83914 
L 576.549386 214.42839 
L 583.252088 216.106539 
L 589.954791 218.004743 
L 596.657494 220.131525 
L 603.360197 222.495851 
L 610.062899 225.107168 
L 616.765602 227.975425 
L 622.858968 230.814715 
L 628.952334 233.883316 
L 635.0457 237.189946 
L 641.139066 240.743771 
L 647.232432 244.554433 
L 653.325799 248.632084 
L 659.419165 252.987417 
L 665.512531 257.631702 
L 671.605897 262.576831 
L 677.699263 267.835355 
L 683.183292 272.846922 
L 688.667322 278.13326 
L 694.151351 283.705087 
L 699.635381 289.57369 
L 705.11941 295.750954 
L 710.60344 302.249413 
L 716.087469 309.082283 
L 721.571499 316.263519 
L 727.055528 323.807863 
L 732.539558 331.7309 
L 738.023587 340.049118 
L 743.507617 348.779981 
L 747.163636 354.838896 
L 747.163636 354.838896 
" style="fill:none;stroke:#c7c7c7;stroke-dasharray:9.25,4;stroke-dashoffset:0;stroke-width:2.5;"/>
   </g>
   <g id="line2d_43">
    <path clip-path="url(#p9ebf103abd)" d="M 138.436364 363.036613 
L 159.153808 354.681174 
L 179.261916 346.811976 
L 198.760688 339.42137 
L 217.650123 332.500872 
L 235.930221 326.041133 
L 253.600983 320.031914 
L 270.662408 314.462064 
L 287.114496 309.319505 
L 302.957248 304.59123 
L 318.8 300.094799 
L 334.033415 296.002053 
L 348.657494 292.297522 
L 363.281572 288.824867 
L 377.296314 285.726196 
L 390.70172 282.9834 
L 404.107125 280.468194 
L 416.903194 278.290619 
L 429.699263 276.342466 
L 441.885995 274.711271 
L 454.072727 273.30997 
L 465.650123 272.202366 
L 477.227518 271.323593 
L 488.195577 270.71254 
L 499.163636 270.327552 
L 509.522359 270.181501 
L 519.881081 270.256903 
L 530.239803 270.564323 
L 539.989189 271.075671 
L 549.738575 271.812474 
L 558.878624 272.717404 
L 568.018673 273.839069 
L 577.158722 275.187301 
L 586.298771 276.772535 
L 594.829484 278.475687 
L 603.360197 280.404509 
L 611.890909 282.569139 
L 619.812285 284.799686 
L 627.733661 287.251943 
L 635.655037 289.935562 
L 643.576413 292.86076 
L 651.497789 296.038368 
L 658.809828 299.205498 
L 666.121867 302.607046 
L 673.433907 306.253131 
L 680.745946 310.154463 
L 688.057985 314.322387 
L 694.760688 318.387434 
L 701.463391 322.696394 
L 708.166093 327.259626 
L 714.868796 332.088082 
L 721.571499 337.193357 
L 728.274201 342.587728 
L 734.976904 348.284211 
L 741.679607 354.296613 
L 747.163636 359.46105 
L 747.163636 359.46105 
" style="fill:none;stroke:#bcbd22;stroke-linecap:round;stroke-width:2.5;"/>
   </g>
   <g id="line2d_44">
    <path clip-path="url(#p9ebf103abd)" d="M 138.436364 361.794334 
L 156.716462 350.801892 
L 174.387224 340.433159 
L 191.448649 330.675442 
L 207.900737 321.51507 
L 224.352826 312.612422 
L 240.195577 304.296342 
L 255.428993 296.550584 
L 270.053071 289.357874 
L 284.67715 282.415872 
L 298.691892 276.010532 
L 312.097297 270.121837 
L 325.502703 264.477732 
L 338.298771 259.329676 
L 351.09484 254.427175 
L 363.281572 249.997583 
L 374.858968 246.016254 
L 386.436364 242.266316 
L 397.404423 238.937049 
L 408.372482 235.835063 
L 419.340541 232.970797 
L 429.699263 230.493915 
L 440.057985 228.248869 
L 449.807371 226.35707 
L 459.556757 224.689225 
L 469.306143 223.255161 
L 478.446192 222.132297 
L 487.586241 221.233128 
L 496.72629 220.567252 
L 505.257002 220.165198 
L 513.787715 219.983935 
L 522.318428 220.03267 
L 530.239803 220.292365 
L 538.161179 220.766978 
L 546.082555 221.465171 
L 554.003931 222.396076 
L 561.315971 223.470246 
L 568.62801 224.758895 
L 575.940049 226.270425 
L 583.252088 228.013686 
L 590.564128 229.997999 
L 597.26683 232.037097 
L 603.969533 234.29497 
L 610.672236 236.779996 
L 617.374939 239.500985 
L 624.077641 242.467208 
L 630.780344 245.68843 
L 637.483047 249.174941 
L 643.576413 252.583824 
L 649.669779 256.229496 
L 655.763145 260.120973 
L 661.856511 264.267735 
L 667.949877 268.679757 
L 674.043243 273.367541 
L 680.136609 278.342147 
L 686.229975 283.61524 
L 692.323342 289.199122 
L 698.416708 295.106782 
L 704.510074 301.351943 
L 710.60344 307.949114 
L 716.087469 314.200209 
L 721.571499 320.760674 
L 727.055528 327.642963 
L 732.539558 334.860203 
L 738.023587 342.426249 
L 743.507617 350.355728 
L 747.163636 355.851553 
L 747.163636 355.851553 
" style="fill:none;stroke:#dbdb8d;stroke-dasharray:9.25,4;stroke-dashoffset:0;stroke-width:2.5;"/>
   </g>
   <g id="line2d_45">
    <path clip-path="url(#p9ebf103abd)" d="M 138.436364 362.247576 
L 158.544472 351.596284 
L 178.043243 341.519565 
L 196.932678 332.00983 
L 215.212776 323.058541 
L 232.883538 314.65617 
L 249.944963 306.792155 
L 266.397052 299.454871 
L 282.239803 292.631605 
L 297.473219 286.308537 
L 312.097297 280.470739 
L 326.721376 274.87398 
L 340.736118 269.74983 
L 354.141523 265.080421 
L 367.546929 260.650796 
L 380.342998 256.658855 
L 392.52973 253.083599 
L 404.716462 249.741568 
L 416.293857 246.794358 
L 427.871253 244.081045 
L 438.839312 241.737769 
L 449.807371 239.627331 
L 460.166093 237.859066 
L 470.524816 236.320653 
L 480.274201 235.093362 
L 490.023587 234.090832 
L 499.163636 233.365147 
L 508.303686 232.856894 
L 517.443735 232.576664 
L 525.974447 232.53079 
L 534.50516 232.703149 
L 543.035872 233.104133 
L 550.957248 233.690847 
L 558.878624 234.493642 
L 566.8 235.522514 
L 574.721376 236.788088 
L 582.033415 238.176161 
L 589.345455 239.78498 
L 596.657494 241.624555 
L 603.969533 243.705511 
L 610.672236 245.834726 
L 617.374939 248.185463 
L 624.077641 250.767483 
L 630.780344 253.591129 
L 637.483047 256.66737 
L 644.185749 260.007849 
L 650.279115 263.28434 
L 656.372482 266.799278 
L 662.465848 270.563091 
L 668.559214 274.586826 
L 674.65258 278.882193 
L 680.745946 283.461615 
L 686.839312 288.338286 
L 692.932678 293.526228 
L 698.416708 298.473823 
L 703.900737 303.697165 
L 709.384767 309.208479 
L 714.868796 315.020728 
L 720.352826 321.147659 
L 725.836855 327.603876 
L 731.320885 334.404895 
L 736.804914 341.567226 
L 742.288943 349.108448 
L 747.163636 356.14496 
L 747.163636 356.14496 
" style="fill:none;stroke:#17becf;stroke-linecap:round;stroke-width:2.5;"/>
   </g>
   <g id="patch_3">
    <path d="M 108 378 
L 108 51.84 
" style="fill:none;stroke:#cccccc;stroke-linecap:square;stroke-linejoin:miter;"/>
   </g>
   <g id="patch_4">
    <path d="M 108 378 
L 777.6 378 
" style="fill:none;stroke:#cccccc;stroke-linecap:square;stroke-linejoin:miter;"/>
   </g>
   <g id="text_17">
    <!-- Relative Missibility FoM -->
    <defs>
     <path d="M 44.390625 34.1875 
Q 47.5625 33.109375 50.5625 29.59375 
Q 53.5625 26.078125 56.59375 19.921875 
L 66.609375 0 
L 56 0 
L 46.6875 18.703125 
Q 43.0625 26.03125 39.671875 28.421875 
Q 36.28125 30.8125 30.421875 30.8125 
L 19.671875 30.8125 
L 19.671875 0 
L 9.8125 0 
L 9.8125 72.90625 
L 32.078125 72.90625 
Q 44.578125 72.90625 50.734375 67.671875 
Q 56.890625 62.453125 56.890625 51.90625 
Q 56.890625 45.015625 53.6875 40.46875 
Q 50.484375 35.9375 44.390625 34.1875 
z
M 19.671875 64.796875 
L 19.671875 38.921875 
L 32.078125 38.921875 
Q 39.203125 38.921875 42.84375 42.21875 
Q 46.484375 45.515625 46.484375 51.90625 
Q 46.484375 58.296875 42.84375 61.546875 
Q 39.203125 64.796875 32.078125 64.796875 
z
" id="DejaVuSans-52"/>
     <path d="M 2.984375 54.6875 
L 12.5 54.6875 
L 29.59375 8.796875 
L 46.6875 54.6875 
L 56.203125 54.6875 
L 35.6875 0 
L 23.484375 0 
z
" id="DejaVuSans-76"/>
     <path d="M 44.28125 53.078125 
L 44.28125 44.578125 
Q 40.484375 46.53125 36.375 47.5 
Q 32.28125 48.484375 27.875 48.484375 
Q 21.1875 48.484375 17.84375 46.4375 
Q 14.5 44.390625 14.5 40.28125 
Q 14.5 37.15625 16.890625 35.375 
Q 19.28125 33.59375 26.515625 31.984375 
L 29.59375 31.296875 
Q 39.15625 29.25 43.1875 25.515625 
Q 47.21875 21.78125 47.21875 15.09375 
Q 47.21875 7.46875 41.1875 3.015625 
Q 35.15625 -1.421875 24.609375 -1.421875 
Q 20.21875 -1.421875 15.453125 -0.5625 
Q 10.6875 0.296875 5.421875 2 
L 5.421875 11.28125 
Q 10.40625 8.6875 15.234375 7.390625 
Q 20.0625 6.109375 24.8125 6.109375 
Q 31.15625 6.109375 34.5625 8.28125 
Q 37.984375 10.453125 37.984375 14.40625 
Q 37.984375 18.0625 35.515625 20.015625 
Q 33.0625 21.96875 24.703125 23.78125 
L 21.578125 24.515625 
Q 13.234375 26.265625 9.515625 29.90625 
Q 5.8125 33.546875 5.8125 39.890625 
Q 5.8125 47.609375 11.28125 51.796875 
Q 16.75 56 26.8125 56 
Q 31.78125 56 36.171875 55.265625 
Q 40.578125 54.546875 44.28125 53.078125 
z
" id="DejaVuSans-73"/>
     <path d="M 48.6875 27.296875 
Q 48.6875 37.203125 44.609375 42.84375 
Q 40.53125 48.484375 33.40625 48.484375 
Q 26.265625 48.484375 22.1875 42.84375 
Q 18.109375 37.203125 18.109375 27.296875 
Q 18.109375 17.390625 22.1875 11.75 
Q 26.265625 6.109375 33.40625 6.109375 
Q 40.53125 6.109375 44.609375 11.75 
Q 48.6875 17.390625 48.6875 27.296875 
z
M 18.109375 46.390625 
Q 20.953125 51.265625 25.265625 53.625 
Q 29.59375 56 35.59375 56 
Q 45.5625 56 51.78125 48.09375 
Q 58.015625 40.1875 58.015625 27.296875 
Q 58.015625 14.40625 51.78125 6.484375 
Q 45.5625 -1.421875 35.59375 -1.421875 
Q 29.59375 -1.421875 25.265625 0.953125 
Q 20.953125 3.328125 18.109375 8.203125 
L 18.109375 0 
L 9.078125 0 
L 9.078125 75.984375 
L 18.109375 75.984375 
z
" id="DejaVuSans-62"/>
     <path d="M 32.171875 -5.078125 
Q 28.375 -14.84375 24.75 -17.8125 
Q 21.140625 -20.796875 15.09375 -20.796875 
L 7.90625 -20.796875 
L 7.90625 -13.28125 
L 13.1875 -13.28125 
Q 16.890625 -13.28125 18.9375 -11.515625 
Q 21 -9.765625 23.484375 -3.21875 
L 25.09375 0.875 
L 2.984375 54.6875 
L 12.5 54.6875 
L 29.59375 11.921875 
L 46.6875 54.6875 
L 56.203125 54.6875 
z
" id="DejaVuSans-79"/>
    </defs>
    <g style="fill:#262626;" transform="translate(341.9307 45.84)scale(0.1728 -0.1728)">
     <use xlink:href="#DejaVuSans-52"/>
     <use x="69.419922" xlink:href="#DejaVuSans-65"/>
     <use x="130.943359" xlink:href="#DejaVuSans-6c"/>
     <use x="158.726562" xlink:href="#DejaVuSans-61"/>
     <use x="220.005859" xlink:href="#DejaVuSans-74"/>
     <use x="259.214844" xlink:href="#DejaVuSans-69"/>
     <use x="286.998047" xlink:href="#DejaVuSans-76"/>
     <use x="346.177734" xlink:href="#DejaVuSans-65"/>
     <use x="407.701172" xlink:href="#DejaVuSans-20"/>
     <use x="439.488281" xlink:href="#DejaVuSans-4d"/>
     <use x="525.767578" xlink:href="#DejaVuSans-69"/>
     <use x="553.550781" xlink:href="#DejaVuSans-73"/>
     <use x="605.650391" xlink:href="#DejaVuSans-73"/>
     <use x="657.75" xlink:href="#DejaVuSans-69"/>
     <use x="685.533203" xlink:href="#DejaVuSans-62"/>
     <use x="749.009766" xlink:href="#DejaVuSans-69"/>
     <use x="776.792969" xlink:href="#DejaVuSans-6c"/>
     <use x="804.576172" xlink:href="#DejaVuSans-69"/>
     <use x="832.359375" xlink:href="#DejaVuSans-74"/>
     <use x="871.568359" xlink:href="#DejaVuSans-79"/>
     <use x="930.748047" xlink:href="#DejaVuSans-20"/>
     <use x="962.535156" xlink:href="#DejaVuSans-46"/>
     <use x="1020.007812" xlink:href="#DejaVuSans-6f"/>
     <use x="1081.189453" xlink:href="#DejaVuSans-4d"/>
    </g>
   </g>
   <g id="legend_1">
    <g id="patch_5">
     <path d="M 753.11552 327.511307 
L 833.551508 327.511307 
Q 835.550228 327.511307 835.550228 325.512587 
L 835.550228 77.14352 
Q 835.550228 75.1448 833.551508 75.1448 
L 753.11552 75.1448 
Q 751.1168 75.1448 751.1168 77.14352 
L 751.1168 325.512587 
Q 751.1168 327.511307 753.11552 327.511307 
z
" style="fill:#4c4c4c;opacity:0.5;stroke:#4c4c4c;stroke-linejoin:miter;stroke-width:0.24;"/>
    </g>
    <g id="patch_6">
     <path d="M 751.11552 325.511307 
L 831.551508 325.511307 
Q 833.550228 325.511307 833.550228 323.512587 
L 833.550228 75.14352 
Q 833.550228 73.1448 831.551508 73.1448 
L 751.11552 73.1448 
Q 749.1168 73.1448 749.1168 75.14352 
L 749.1168 323.512587 
Q 749.1168 325.511307 751.11552 325.511307 
z
" style="fill:#ffffff;stroke:#000000;stroke-linejoin:miter;stroke-width:0.24;"/>
    </g>
    <g id="line2d_46">
     <path d="M 753.11424 81.238054 
L 773.10144 81.238054 
" style="fill:none;stroke:#aec7e8;stroke-linecap:round;stroke-width:2.5;"/>
    </g>
    <g id="line2d_47"/>
    <g id="text_18">
     <!-- TC71BM -->
     <defs>
      <path d="M 0.484375 72.90625 
L 67.671875 72.90625 
L 67.671875 58.6875 
L 43.5 58.6875 
L 43.5 0 
L 24.703125 0 
L 24.703125 58.6875 
L 0.484375 58.6875 
z
" id="DejaVuSans-Bold-54"/>
      <path d="M 67 4 
Q 61.8125 1.3125 56.203125 -0.046875 
Q 50.59375 -1.421875 44.484375 -1.421875 
Q 26.265625 -1.421875 15.625 8.765625 
Q 4.984375 18.953125 4.984375 36.375 
Q 4.984375 53.859375 15.625 64.03125 
Q 26.265625 74.21875 44.484375 74.21875 
Q 50.59375 74.21875 56.203125 72.84375 
Q 61.8125 71.484375 67 68.796875 
L 67 53.71875 
Q 61.765625 57.28125 56.6875 58.9375 
Q 51.609375 60.59375 46 60.59375 
Q 35.9375 60.59375 30.171875 54.140625 
Q 24.421875 47.703125 24.421875 36.375 
Q 24.421875 25.09375 30.171875 18.640625 
Q 35.9375 12.203125 46 12.203125 
Q 51.609375 12.203125 56.6875 13.859375 
Q 61.765625 15.53125 67 19.09375 
z
" id="DejaVuSans-Bold-43"/>
      <path d="M 6.6875 72.90625 
L 61.625 72.90625 
L 61.625 62.3125 
L 33.203125 0 
L 14.890625 0 
L 41.796875 59.078125 
L 6.6875 59.078125 
z
" id="DejaVuSans-Bold-37"/>
      <path d="M 38.375 44.671875 
Q 42.828125 44.671875 45.109375 46.625 
Q 47.40625 48.578125 47.40625 52.390625 
Q 47.40625 56.15625 45.109375 58.125 
Q 42.828125 60.109375 38.375 60.109375 
L 27.984375 60.109375 
L 27.984375 44.671875 
z
M 39.015625 12.796875 
Q 44.671875 12.796875 47.53125 15.1875 
Q 50.390625 17.578125 50.390625 22.40625 
Q 50.390625 27.15625 47.5625 29.515625 
Q 44.734375 31.890625 39.015625 31.890625 
L 27.984375 31.890625 
L 27.984375 12.796875 
z
M 56.5 39.015625 
Q 62.546875 37.25 65.859375 32.515625 
Q 69.1875 27.78125 69.1875 20.90625 
Q 69.1875 10.359375 62.0625 5.171875 
Q 54.9375 0 40.375 0 
L 9.1875 0 
L 9.1875 72.90625 
L 37.40625 72.90625 
Q 52.59375 72.90625 59.40625 68.3125 
Q 66.21875 63.71875 66.21875 53.609375 
Q 66.21875 48.296875 63.71875 44.5625 
Q 61.234375 40.828125 56.5 39.015625 
z
" id="DejaVuSans-Bold-42"/>
      <path d="M 9.1875 72.90625 
L 33.109375 72.90625 
L 49.703125 33.890625 
L 66.40625 72.90625 
L 90.28125 72.90625 
L 90.28125 0 
L 72.515625 0 
L 72.515625 53.328125 
L 55.71875 14.015625 
L 43.796875 14.015625 
L 27 53.328125 
L 27 0 
L 9.1875 0 
z
" id="DejaVuSans-Bold-4d"/>
     </defs>
     <g style="fill:#262626;" transform="translate(781.09632 84.735814)scale(0.099936 -0.099936)">
      <use xlink:href="#DejaVuSans-Bold-54"/>
      <use x="68.212891" xlink:href="#DejaVuSans-Bold-43"/>
      <use x="141.601562" xlink:href="#DejaVuSans-Bold-37"/>
      <use x="211.181641" xlink:href="#DejaVuSans-Bold-31"/>
      <use x="280.761719" xlink:href="#DejaVuSans-Bold-42"/>
      <use x="356.982422" xlink:href="#DejaVuSans-Bold-4d"/>
     </g>
    </g>
    <g id="line2d_48">
     <path d="M 753.11424 95.906785 
L 773.10144 95.906785 
" style="fill:none;stroke:#ff7f0e;stroke-dasharray:9.25,4;stroke-dashoffset:0;stroke-width:2.5;"/>
    </g>
    <g id="line2d_49"/>
    <g id="text_19">
     <!-- PC71BM -->
     <defs>
      <path d="M 9.1875 72.90625 
L 40.375 72.90625 
Q 54.296875 72.90625 61.734375 66.71875 
Q 69.1875 60.546875 69.1875 49.125 
Q 69.1875 37.640625 61.734375 31.46875 
Q 54.296875 25.296875 40.375 25.296875 
L 27.984375 25.296875 
L 27.984375 0 
L 9.1875 0 
z
M 27.984375 59.28125 
L 27.984375 38.921875 
L 38.375 38.921875 
Q 43.84375 38.921875 46.828125 41.578125 
Q 49.8125 44.234375 49.8125 49.125 
Q 49.8125 54 46.828125 56.640625 
Q 43.84375 59.28125 38.375 59.28125 
z
" id="DejaVuSans-Bold-50"/>
     </defs>
     <g style="fill:#262626;" transform="translate(781.09632 99.404545)scale(0.099936 -0.099936)">
      <use xlink:href="#DejaVuSans-Bold-50"/>
      <use x="73.291016" xlink:href="#DejaVuSans-Bold-43"/>
      <use x="146.679688" xlink:href="#DejaVuSans-Bold-37"/>
      <use x="216.259766" xlink:href="#DejaVuSans-Bold-31"/>
      <use x="285.839844" xlink:href="#DejaVuSans-Bold-42"/>
      <use x="362.060547" xlink:href="#DejaVuSans-Bold-4d"/>
     </g>
    </g>
    <g id="line2d_50">
     <path d="M 753.11424 110.575516 
L 773.10144 110.575516 
" style="fill:none;stroke:#ffbb78;stroke-linecap:round;stroke-width:2.5;"/>
    </g>
    <g id="line2d_51"/>
    <g id="text_20">
     <!-- PC61MM -->
     <g style="fill:#262626;" transform="translate(781.09632 114.073276)scale(0.099936 -0.099936)">
      <use xlink:href="#DejaVuSans-Bold-50"/>
      <use x="73.291016" xlink:href="#DejaVuSans-Bold-43"/>
      <use x="146.679688" xlink:href="#DejaVuSans-Bold-36"/>
      <use x="216.259766" xlink:href="#DejaVuSans-Bold-31"/>
      <use x="285.839844" xlink:href="#DejaVuSans-Bold-4d"/>
      <use x="385.351562" xlink:href="#DejaVuSans-Bold-4d"/>
     </g>
    </g>
    <g id="line2d_52">
     <path d="M 753.11424 125.244248 
L 773.10144 125.244248 
" style="fill:none;stroke:#2ca02c;stroke-dasharray:9.25,4;stroke-dashoffset:0;stroke-width:2.5;"/>
    </g>
    <g id="line2d_53"/>
    <g id="text_21">
     <!-- PC61PM -->
     <g style="fill:#262626;" transform="translate(781.09632 128.742007)scale(0.099936 -0.099936)">
      <use xlink:href="#DejaVuSans-Bold-50"/>
      <use x="73.291016" xlink:href="#DejaVuSans-Bold-43"/>
      <use x="146.679688" xlink:href="#DejaVuSans-Bold-36"/>
      <use x="216.259766" xlink:href="#DejaVuSans-Bold-31"/>
      <use x="285.839844" xlink:href="#DejaVuSans-Bold-50"/>
      <use x="359.130859" xlink:href="#DejaVuSans-Bold-4d"/>
     </g>
    </g>
    <g id="line2d_54">
     <path d="M 753.11424 139.912978 
L 773.10144 139.912978 
" style="fill:none;stroke:#98df8a;stroke-linecap:round;stroke-width:2.5;"/>
    </g>
    <g id="line2d_55"/>
    <g id="text_22">
     <!-- PC61BM -->
     <g style="fill:#262626;" transform="translate(781.09632 143.410738)scale(0.099936 -0.099936)">
      <use xlink:href="#DejaVuSans-Bold-50"/>
      <use x="73.291016" xlink:href="#DejaVuSans-Bold-43"/>
      <use x="146.679688" xlink:href="#DejaVuSans-Bold-36"/>
      <use x="216.259766" xlink:href="#DejaVuSans-Bold-31"/>
      <use x="285.839844" xlink:href="#DejaVuSans-Bold-42"/>
      <use x="362.060547" xlink:href="#DejaVuSans-Bold-4d"/>
     </g>
    </g>
    <g id="line2d_56">
     <path d="M 753.11424 154.581709 
L 773.10144 154.581709 
" style="fill:none;stroke:#d62728;stroke-dasharray:9.25,4;stroke-dashoffset:0;stroke-width:2.5;"/>
    </g>
    <g id="line2d_57"/>
    <g id="text_23">
     <!-- PC61BE -->
     <defs>
      <path d="M 9.1875 72.90625 
L 59.90625 72.90625 
L 59.90625 58.6875 
L 27.984375 58.6875 
L 27.984375 45.125 
L 58.015625 45.125 
L 58.015625 30.90625 
L 27.984375 30.90625 
L 27.984375 14.203125 
L 60.984375 14.203125 
L 60.984375 0 
L 9.1875 0 
z
" id="DejaVuSans-Bold-45"/>
     </defs>
     <g style="fill:#262626;" transform="translate(781.09632 158.079469)scale(0.099936 -0.099936)">
      <use xlink:href="#DejaVuSans-Bold-50"/>
      <use x="73.291016" xlink:href="#DejaVuSans-Bold-43"/>
      <use x="146.679688" xlink:href="#DejaVuSans-Bold-36"/>
      <use x="216.259766" xlink:href="#DejaVuSans-Bold-31"/>
      <use x="285.839844" xlink:href="#DejaVuSans-Bold-42"/>
      <use x="362.060547" xlink:href="#DejaVuSans-Bold-45"/>
     </g>
    </g>
    <g id="line2d_58">
     <path d="M 753.11424 169.25044 
L 773.10144 169.25044 
" style="fill:none;stroke:#ff9896;stroke-linecap:round;stroke-width:2.5;"/>
    </g>
    <g id="line2d_59"/>
    <g id="text_24">
     <!-- TC61PM -->
     <g style="fill:#262626;" transform="translate(781.09632 172.7482)scale(0.099936 -0.099936)">
      <use xlink:href="#DejaVuSans-Bold-54"/>
      <use x="68.212891" xlink:href="#DejaVuSans-Bold-43"/>
      <use x="141.601562" xlink:href="#DejaVuSans-Bold-36"/>
      <use x="211.181641" xlink:href="#DejaVuSans-Bold-31"/>
      <use x="280.761719" xlink:href="#DejaVuSans-Bold-50"/>
      <use x="354.052734" xlink:href="#DejaVuSans-Bold-4d"/>
     </g>
    </g>
    <g id="line2d_60">
     <path d="M 753.11424 183.919171 
L 773.10144 183.919171 
" style="fill:none;stroke:#9467bd;stroke-dasharray:9.25,4;stroke-dashoffset:0;stroke-width:2.5;"/>
    </g>
    <g id="line2d_61"/>
    <g id="text_25">
     <!-- TC61BM -->
     <g style="fill:#262626;" transform="translate(781.09632 187.416931)scale(0.099936 -0.099936)">
      <use xlink:href="#DejaVuSans-Bold-54"/>
      <use x="68.212891" xlink:href="#DejaVuSans-Bold-43"/>
      <use x="141.601562" xlink:href="#DejaVuSans-Bold-36"/>
      <use x="211.181641" xlink:href="#DejaVuSans-Bold-31"/>
      <use x="280.761719" xlink:href="#DejaVuSans-Bold-42"/>
      <use x="356.982422" xlink:href="#DejaVuSans-Bold-4d"/>
     </g>
    </g>
    <g id="line2d_62">
     <path d="M 753.11424 198.587903 
L 773.10144 198.587903 
" style="fill:none;stroke:#8c564b;stroke-linecap:round;stroke-width:2.5;"/>
    </g>
    <g id="line2d_63"/>
    <g id="text_26">
     <!-- TFP -->
     <defs>
      <path d="M 9.1875 72.90625 
L 59.90625 72.90625 
L 59.90625 58.6875 
L 27.984375 58.6875 
L 27.984375 45.125 
L 58.015625 45.125 
L 58.015625 30.90625 
L 27.984375 30.90625 
L 27.984375 0 
L 9.1875 0 
z
" id="DejaVuSans-Bold-46"/>
     </defs>
     <g style="fill:#262626;" transform="translate(781.09632 202.085663)scale(0.099936 -0.099936)">
      <use xlink:href="#DejaVuSans-Bold-54"/>
      <use x="68.212891" xlink:href="#DejaVuSans-Bold-46"/>
      <use x="136.523438" xlink:href="#DejaVuSans-Bold-50"/>
     </g>
    </g>
    <g id="line2d_64">
     <path d="M 753.11424 213.256633 
L 773.10144 213.256633 
" style="fill:none;stroke:#c49c94;stroke-dasharray:9.25,4;stroke-dashoffset:0;stroke-width:2.5;"/>
    </g>
    <g id="line2d_65"/>
    <g id="text_27">
     <!-- PFP -->
     <g style="fill:#262626;" transform="translate(781.09632 216.754393)scale(0.099936 -0.099936)">
      <use xlink:href="#DejaVuSans-Bold-50"/>
      <use x="73.291016" xlink:href="#DejaVuSans-Bold-46"/>
      <use x="141.601562" xlink:href="#DejaVuSans-Bold-50"/>
     </g>
    </g>
    <g id="line2d_66">
     <path d="M 753.11424 227.925365 
L 773.10144 227.925365 
" style="fill:none;stroke:#e377c2;stroke-linecap:round;stroke-width:2.5;"/>
    </g>
    <g id="line2d_67"/>
    <g id="text_28">
     <!-- MOPFP -->
     <defs>
      <path d="M 42.484375 60.59375 
Q 33.890625 60.59375 29.15625 54.25 
Q 24.421875 47.90625 24.421875 36.375 
Q 24.421875 24.90625 29.15625 18.546875 
Q 33.890625 12.203125 42.484375 12.203125 
Q 51.125 12.203125 55.859375 18.546875 
Q 60.59375 24.90625 60.59375 36.375 
Q 60.59375 47.90625 55.859375 54.25 
Q 51.125 60.59375 42.484375 60.59375 
z
M 42.484375 74.21875 
Q 60.0625 74.21875 70.015625 64.15625 
Q 79.984375 54.109375 79.984375 36.375 
Q 79.984375 18.703125 70.015625 8.640625 
Q 60.0625 -1.421875 42.484375 -1.421875 
Q 24.953125 -1.421875 14.96875 8.640625 
Q 4.984375 18.703125 4.984375 36.375 
Q 4.984375 54.109375 14.96875 64.15625 
Q 24.953125 74.21875 42.484375 74.21875 
z
" id="DejaVuSans-Bold-4f"/>
     </defs>
     <g style="fill:#262626;" transform="translate(781.09632 231.423125)scale(0.099936 -0.099936)">
      <use xlink:href="#DejaVuSans-Bold-4d"/>
      <use x="99.511719" xlink:href="#DejaVuSans-Bold-4f"/>
      <use x="184.521484" xlink:href="#DejaVuSans-Bold-50"/>
      <use x="257.8125" xlink:href="#DejaVuSans-Bold-46"/>
      <use x="326.123047" xlink:href="#DejaVuSans-Bold-50"/>
     </g>
    </g>
    <g id="line2d_68">
     <path d="M 753.11424 242.594096 
L 773.10144 242.594096 
" style="fill:none;stroke:#f7b6d2;stroke-dasharray:9.25,4;stroke-dashoffset:0;stroke-width:2.5;"/>
    </g>
    <g id="line2d_69"/>
    <g id="text_29">
     <!-- ICMA -->
     <defs>
      <path d="M 9.1875 72.90625 
L 27.984375 72.90625 
L 27.984375 0 
L 9.1875 0 
z
" id="DejaVuSans-Bold-49"/>
      <path d="M 53.421875 13.28125 
L 24.03125 13.28125 
L 19.390625 0 
L 0.484375 0 
L 27.484375 72.90625 
L 49.90625 72.90625 
L 76.90625 0 
L 58.015625 0 
z
M 28.71875 26.8125 
L 48.6875 26.8125 
L 38.71875 55.8125 
z
" id="DejaVuSans-Bold-41"/>
     </defs>
     <g style="fill:#262626;" transform="translate(781.09632 246.091856)scale(0.099936 -0.099936)">
      <use xlink:href="#DejaVuSans-Bold-49"/>
      <use x="37.207031" xlink:href="#DejaVuSans-Bold-43"/>
      <use x="110.595703" xlink:href="#DejaVuSans-Bold-4d"/>
      <use x="210.107422" xlink:href="#DejaVuSans-Bold-41"/>
     </g>
    </g>
    <g id="line2d_70">
     <path d="M 753.11424 257.262827 
L 773.10144 257.262827 
" style="fill:none;stroke:#7f7f7f;stroke-linecap:round;stroke-width:2.5;"/>
    </g>
    <g id="line2d_71"/>
    <g id="text_30">
     <!-- ICMM -->
     <g style="fill:#262626;" transform="translate(781.09632 260.760587)scale(0.099936 -0.099936)">
      <use xlink:href="#DejaVuSans-Bold-49"/>
      <use x="37.207031" xlink:href="#DejaVuSans-Bold-43"/>
      <use x="110.595703" xlink:href="#DejaVuSans-Bold-4d"/>
      <use x="210.107422" xlink:href="#DejaVuSans-Bold-4d"/>
     </g>
    </g>
    <g id="line2d_72">
     <path d="M 753.11424 271.931557 
L 773.10144 271.931557 
" style="fill:none;stroke:#c7c7c7;stroke-dasharray:9.25,4;stroke-dashoffset:0;stroke-width:2.5;"/>
    </g>
    <g id="line2d_73"/>
    <g id="text_31">
     <!-- ICEM -->
     <g style="fill:#262626;" transform="translate(781.09632 275.429318)scale(0.099936 -0.099936)">
      <use xlink:href="#DejaVuSans-Bold-49"/>
      <use x="37.207031" xlink:href="#DejaVuSans-Bold-43"/>
      <use x="110.595703" xlink:href="#DejaVuSans-Bold-45"/>
      <use x="178.90625" xlink:href="#DejaVuSans-Bold-4d"/>
     </g>
    </g>
    <g id="line2d_74">
     <path d="M 753.11424 286.600288 
L 773.10144 286.600288 
" style="fill:none;stroke:#bcbd22;stroke-linecap:round;stroke-width:2.5;"/>
    </g>
    <g id="line2d_75"/>
    <g id="text_32">
     <!-- NCMA -->
     <defs>
      <path d="M 9.1875 72.90625 
L 30.171875 72.90625 
L 56.6875 22.90625 
L 56.6875 72.90625 
L 74.515625 72.90625 
L 74.515625 0 
L 53.515625 0 
L 27 50 
L 27 0 
L 9.1875 0 
z
" id="DejaVuSans-Bold-4e"/>
     </defs>
     <g style="fill:#262626;" transform="translate(781.09632 290.098049)scale(0.099936 -0.099936)">
      <use xlink:href="#DejaVuSans-Bold-4e"/>
      <use x="83.691406" xlink:href="#DejaVuSans-Bold-43"/>
      <use x="157.080078" xlink:href="#DejaVuSans-Bold-4d"/>
      <use x="256.591797" xlink:href="#DejaVuSans-Bold-41"/>
     </g>
    </g>
    <g id="line2d_76">
     <path d="M 753.11424 301.26902 
L 773.10144 301.26902 
" style="fill:none;stroke:#dbdb8d;stroke-dasharray:9.25,4;stroke-dashoffset:0;stroke-width:2.5;"/>
    </g>
    <g id="line2d_77"/>
    <g id="text_33">
     <!-- NCM -->
     <g style="fill:#262626;" transform="translate(781.09632 304.76678)scale(0.099936 -0.099936)">
      <use xlink:href="#DejaVuSans-Bold-4e"/>
      <use x="83.691406" xlink:href="#DejaVuSans-Bold-43"/>
      <use x="157.080078" xlink:href="#DejaVuSans-Bold-4d"/>
     </g>
    </g>
    <g id="line2d_78">
     <path d="M 753.11424 315.937751 
L 773.10144 315.937751 
" style="fill:none;stroke:#17becf;stroke-linecap:round;stroke-width:2.5;"/>
    </g>
    <g id="line2d_79"/>
    <g id="text_34">
     <!-- ICBA -->
     <g style="fill:#262626;" transform="translate(781.09632 319.435511)scale(0.099936 -0.099936)">
      <use xlink:href="#DejaVuSans-Bold-49"/>
      <use x="37.207031" xlink:href="#DejaVuSans-Bold-43"/>
      <use x="110.595703" xlink:href="#DejaVuSans-Bold-42"/>
      <use x="186.816406" xlink:href="#DejaVuSans-Bold-41"/>
     </g>
    </g>
   </g>
  </g>
 </g>
 <defs>
  <clipPath id="p9ebf103abd">
   <rect height="326.16" width="669.6" x="108" y="51.84"/>
  </clipPath>
 </defs>
</svg>
